<?xml version="1.0" standalone="no"?>
<!DOCTYPE svg PUBLIC "-//W3C//DTD SVG 1.1//EN" "http://www.w3.org/Graphics/SVG/1.1/DTD/svg11.dtd" >
<svg xmlns="http://www.w3.org/2000/svg" xmlns:xlink="http://www.w3.org/1999/xlink" version="1.1">
<metadata>
Created by FontForge 20170924 at Thu Nov 27 17:50:06 1997
 By www-data
a_Rewinder *Arsenal Company (c)1997*  FAX: (095)924-3775; e-Mail: arsenal@itco.msk.su; Phone: (095)924-5811 (Design and Featuring W.Chufarofsky &#38; M.Slutsker)
</metadata>
<defs>
<font id="ARewinderBoldItalic" horiz-adv-x="667" >
  <font-face 
    font-family="a_Rewinder"
    font-weight="700"
    font-style="italic"
    font-stretch="normal"
    units-per-em="1000"
    panose-1="4 3 8 5 2 8 2 9 8 2"
    ascent="800"
    descent="-200"
    x-height="556"
    cap-height="741"
    bbox="-122 -236 1177 952"
    underline-thickness="90"
    underline-position="-255"
    slope="-11"
    unicode-range="U+0020-2122"
  />
<missing-glyph horiz-adv-x="500" 
d="M63 0v952h375v-952h-375zM125 63h250v827h-250v-827z" />
    <glyph glyph-name=".notdef" horiz-adv-x="500" 
d="M63 0v952h375v-952h-375zM125 63h250v827h-250v-827z" />
    <glyph glyph-name=".null" horiz-adv-x="0" 
 />
    <glyph glyph-name="nonmarkingreturn" horiz-adv-x="378" 
 />
    <glyph glyph-name="space" unicode=" " horiz-adv-x="378" 
 />
    <glyph glyph-name="exclam" unicode="!" horiz-adv-x="338" 
d="M224 174l-37 -174h-194l37 174h194zM233 215h-194l112 526h194z" />
    <glyph glyph-name="quotedbl" unicode="&#x22;" horiz-adv-x="348" 
d="M66 702h107l-58 -274h-107zM232 702h109l-58 -274h-109z" />
    <glyph glyph-name="numbersign" unicode="#" horiz-adv-x="769" 
d="M334 716h122l-68 -193h115l69 193h122l-68 -193h132l-42 -112h-131l-39 -113h135l-41 -112h-134l-69 -192h-122l68 192h-115l-69 -192h-122l68 192h-134l42 112h132l40 113h-138l42 112h136zM345 411l-40 -113h120l40 113h-120z" />
    <glyph glyph-name="dollar" unicode="$" 
d="M339 806h160l-14 -65h102l10 -169h-197q-44 0 -44 -31q0 -23 46 -83q67 -88 85 -117q46 -75 46 -137q0 -83 -63 -139q-57 -53 -142 -63l-17 -83h-160l17 81h-101l-12 169h218q40 0 40 34q0 25 -46 83q-68 86 -84 112q-46 73 -46 135q0 78 56 137q53 56 132 67z" />
    <glyph glyph-name="percent" unicode="%" horiz-adv-x="727" 
d="M270 750q139 0 139 -92q0 -85 -65 -173q-69 -94 -151 -94q-63 0 -94 54q-26 45 -26 112q0 193 197 193zM185 572q0 -73 31 -73q23 0 49 46q25 43 25 69q0 32 -42 32q-63 0 -63 -74zM580 741l95 -59l-556 -682l-90 64zM534 341q139 0 139 -91q0 -85 -65 -173
q-69 -96 -151 -96q-62 0 -94 55q-25 44 -25 111q0 101 48 147.5t148 46.5zM449 161q0 -71 31 -71q24 0 50 46q24 43 24 69q0 32 -42 32q-63 0 -63 -76z" />
    <glyph glyph-name="ampersand" unicode="&#x26;" horiz-adv-x="720" 
d="M599 572h-241q-15 0 -27 -11t-12 -26q0 -46 122 -142q-212 -126 -212 -189q0 -35 48 -35h145l61 287h202l-28 -132h-26l-69 -324h-313q-112 0 -164 17q-90 30 -90 118q0 139 173 264q-66 65 -66 142q0 92 72 148q67 52 161 52h256z" />
    <glyph glyph-name="quotesingle" unicode="'" horiz-adv-x="181" 
d="M66 702h107l-58 -274h-107z" />
    <glyph glyph-name="parenleft" unicode="(" horiz-adv-x="404" 
d="M464 755q-210 -317 -210 -596q0 -118 31 -249l-182 -78q-47 145 -47 295q0 185 71 374q68 184 188 332z" />
    <glyph glyph-name="parenright" unicode=")" horiz-adv-x="404" 
d="M-65 -90q209 314 209 600q0 120 -30 245l182 78q46 -142 46 -292q0 -186 -70 -376q-69 -185 -188 -333z" />
    <glyph glyph-name="asterisk" unicode="*" horiz-adv-x="500" 
d="M166 310l-100 72l93 116l-132 37l38 116l127 -45v135h116v-135l127 44l38 -116l-133 -35l93 -117l-100 -70l-83 120z" />
    <glyph glyph-name="plus" unicode="+" horiz-adv-x="833" 
d="M359 596h116v-241h234v-113h-234v-242h-116v242h-235v113h235v241z" />
    <glyph glyph-name="comma" unicode="," horiz-adv-x="345" 
d="M166 -82h-180l133 257h180z" />
    <glyph glyph-name="hyphen" unicode="-" horiz-adv-x="347" 
d="M25 356h297v-150h-297v150z" />
    <glyph glyph-name="hyphen" unicode="&#x2010;" horiz-adv-x="347" 
d="M25 356h297v-150h-297v150z" />
    <glyph glyph-name="period" unicode="." horiz-adv-x="345" 
d="M277 174l-36 -174h-173l36 174h173z" />
    <glyph glyph-name="slash" unicode="/" horiz-adv-x="505" 
d="M505 741l95 -66l-626 -768l-96 65z" />
    <glyph glyph-name="zero" unicode="0" 
d="M415 750q258 0 258 -197q0 -102 -59 -236q-62 -140 -154 -232q-103 -104 -209 -104q-117 0 -174 127q-43 95 -43 229q0 196 92 302q97 111 289 111zM379 581q-93 0 -129 -81q-25 -56 -25 -162q0 -176 65 -176q61 0 125 137q58 123 58 197q0 85 -94 85z" />
    <glyph glyph-name="one" unicode="1" 
d="M489 0h-451l36 168h128l86 404h-104l80 169h257l-122 -573h126z" />
    <glyph glyph-name="two" unicode="2" 
d="M135 572l80 169h223q164 0 164 -112q0 -69 -60 -151l-223 -305h214l-87 -173h-473q107 144 214 287q176 240 176 262q0 23 -30 23h-198z" />
    <glyph glyph-name="three" unicode="3" 
d="M269 741h391l-181 -258q92 -30 92 -132q0 -28 -7 -59q-35 -154 -177 -233q-123 -68 -294 -68l-16 173q101 0 172 20q112 31 112 106q0 39 -63 50q-28 5 -94 4l161 228h-179z" />
    <glyph glyph-name="four" unicode="4" 
d="M50 161l-4 166l275 414h200l-272 -414h105l30 144h190l-30 -144h60l-36 -166h-60l-34 -161h-190l34 161h-268z" />
    <glyph glyph-name="five" unicode="5" 
d="M597 572h-232l-20 -75q100 0 152 -23q74 -33 74 -121q0 -29 -7 -61q-34 -153 -177 -233q-123 -68 -294 -68l-16 173q284 0 284 128q0 46 -82 46h-165l108 403h367z" />
    <glyph glyph-name="six" unicode="6" 
d="M267 339q-42 -60 -42 -115q0 -65 68 -65q43 0 72.5 31t29.5 74q0 75 -128 75zM591 741q-147 -150 -217 -244q98 -5 156 -46q69 -49 69 -142q0 -25 -8 -63q-27 -126 -122 -192q-89 -63 -221 -63q-100 0 -158 39q-69 46 -69 141q0 228 344 570h226z" />
    <glyph glyph-name="seven" unicode="7" 
d="M209 741h461l-387 -741h-208l300 572h-246z" />
    <glyph glyph-name="eight" unicode="8" 
d="M484 394q87 -79 87 -165q0 -21 -5 -45q-23 -111 -116 -157q-72 -36 -198 -36q-237 0 -237 143q0 144 177 260q-70 71 -70 144q0 19 4 38q37 174 288 174q219 0 219 -133q0 -117 -149 -223zM318 302q-103 -75 -103 -114t71 -39q92 0 92 59q0 35 -60 94zM356 481
q84 52 84 87q0 34 -58 34q-28 0 -49 -12q-25 -14 -25 -40q0 -27 48 -69z" />
    <glyph glyph-name="nine" unicode="9" 
d="M412 394q31 65 31 114q0 73 -75 73q-38 0 -65 -26t-27 -64q0 -74 136 -97zM309 234q-102 19 -163 68q-74 59 -74 154q0 135 96 217q91 77 227 77q253 0 253 -193q0 -42 -10 -89q-45 -210 -193 -341q-154 -136 -365 -136l-9 173q161 -1 238 70z" />
    <glyph glyph-name="colon" unicode=":" horiz-adv-x="345" 
d="M242 174l-37 -174h-173l37 174h173zM313 512l-36 -173h-173l36 173h173z" />
    <glyph glyph-name="semicolon" unicode=";" horiz-adv-x="345" 
d="M322 512l-37 -173h-173l37 173h173zM130 -82h-180l133 257h180z" />
    <glyph glyph-name="less" unicode="&#x3c;" horiz-adv-x="833" 
d="M704 593v-124l-417 -171l417 -170v-124l-575 237v114z" />
    <glyph glyph-name="equal" unicode="=" horiz-adv-x="833" 
d="M124 464h585v-113h-585v113zM124 245h585v-112h-585v112z" />
    <glyph glyph-name="greater" unicode="&#x3e;" horiz-adv-x="833" 
d="M129 593l575 -238v-114l-575 -237v124l417 170l-417 171v124z" />
    <glyph glyph-name="question" unicode="?" horiz-adv-x="542" 
d="M224 0h-199l37 174h199zM64 572l80 169h204q88 0 142 -34q66 -40 66 -123q0 -93 -70 -172q-36 -41 -133 -112q-76 -56 -83 -85h-199l7 31q8 37 21 56t45 44q58 42 117 83q79 62 79 105q0 38 -67 38h-209z" />
    <glyph glyph-name="at" unicode="@" horiz-adv-x="1000" 
d="M555 340q-14 76 -84 76q-54 0 -85 -63q-26 -51 -26 -110q0 -108 72 -108q66 0 95 75q9 23 28 130zM560 128h-4q-45 -78 -137 -78q-178 0 -178 199q0 101 57 171q61 76 160 76q75 0 117 -60l13 45h97q-15 -70 -29 -139q-16 -81 -16 -141q0 -23 10 -42q12 -24 34 -24
q70 0 111 74q34 61 34 137q0 135 -105 216q-96 74 -235 74q-159 0 -263 -91q-109 -96 -109 -253q0 -171 85 -263q89 -96 258 -96q231 0 369 79l29 -78q-77 -43 -189 -67q-101 -22 -200 -22q-208 0 -330.5 123t-122.5 331q0 193 138 314q132 115 328 115q184 0 310 -101
q136 -110 136 -289q0 -117 -69 -200q-74 -88 -188 -88q-98 0 -111 78z" />
    <glyph glyph-name="A" unicode="A" horiz-adv-x="704" 
d="M712 741l9 -167q-14 0 -58 1h-57q-124 0 -197 -33q-86 -38 -143 -137h189l30 139h200l-116 -544h-200l50 234h-209q-6 -37 -6 -70q0 -86 32 -164l-180 -104q-53 120 -53 248q0 61 13 121q47 219 200.5 347.5t376.5 128.5h119z" />
    <glyph glyph-name="B" unicode="B" horiz-adv-x="708" 
d="M109 544h194l-80 -375h139q65 0 65 57q0 77 -151 168q189 105 189 152q0 28 -50 28h-335l81 167h327q205 0 205 -125q0 -117 -136 -213q88 -73 88 -171q0 -20 -5 -43q-26 -118 -129 -160q-70 -29 -213 -29h-305z" />
    <glyph glyph-name="C" unicode="C" horiz-adv-x="560" 
d="M553 741l12 -169q-15 0 -58 2q-37 1 -59 1q-110 0 -163 -49t-53 -161q0 -105 80 -156q66 -42 179 -42l-86 -167h-10q-161 0 -260 89q-102 93 -102 252q0 51 12 108q62 292 393 292h115z" />
    <glyph glyph-name="D" unicode="D" horiz-adv-x="713" 
d="M109 544h199l-79 -373q109 11 196.5 104.5t87.5 202.5q0 96 -111 96h-322l81 167h275q281 0 281 -207q0 -165 -118.5 -314.5t-278.5 -195.5q-83 -24 -195 -24h-132z" />
    <glyph glyph-name="E" unicode="E" horiz-adv-x="602" 
d="M603 576h-297l-25 -117h271l-84 -162h-222l-27 -130h322l-89 -167h-468l158 741h451z" />
    <glyph glyph-name="F" unicode="F" horiz-adv-x="583" 
d="M596 741l10 -169h-289l-25 -114h263l-84 -171h-215q-15 -68 -31 -135q-23 -115 -19 -152l-195 -110q-12 27 -12 72q0 58 19 147l134 632h444z" />
    <glyph glyph-name="G" unicode="G" horiz-adv-x="713" 
d="M440 0q-115 0 -193 27q-102 35 -159 128q-53 86 -53 199q0 49 10 96q62 291 393 291h235l11 -169h-257q-194 0 -194 -201q0 -84 49.5 -136.5t133.5 -62.5l36 171h-79l35 164h271l-108 -507h-131z" />
    <glyph glyph-name="H" unicode="H" horiz-adv-x="722" 
d="M352 741l-49 -232h199l49 232h199l-157 -741h-199l72 338h-199q-17 -77 -35 -155q-30 -145 -26 -183l-195 -110q-12 27 -12 72q0 58 19 147l134 632h200z" />
    <glyph glyph-name="I" unicode="I" horiz-adv-x="338" 
d="M146 741h204l-158 -741h-204z" />
    <glyph glyph-name="J" unicode="J" horiz-adv-x="424" 
d="M70 572l84 169h300l-118 -557q-32 -149 -123 -238q-83 -80 -236 -131l-45 156q89 32 135 76q51 51 70 137q27 129 82 388h-149z" />
    <glyph glyph-name="K" unicode="K" horiz-adv-x="699" 
d="M142 741h200l-158 -741h-200zM388 0l-108 408l246 333h223l-252 -326l123 -415h-232z" />
    <glyph glyph-name="L" unicode="L" horiz-adv-x="530" 
d="M146 741h199l-119 -560h257l-90 -181h-405z" />
    <glyph glyph-name="M" unicode="M" horiz-adv-x="819" 
d="M144 741h185l107 -248l212 248h186l-158 -741h-197l95 444l-194 -216l-102 216l-95 -444h-197z" />
    <glyph glyph-name="N" unicode="N" horiz-adv-x="731" 
d="M286 465l-99 -465h-199l158 741h190l154 -269l57 269h196l-158 -741h-196l44 208z" />
    <glyph glyph-name="O" unicode="O" horiz-adv-x="729" 
d="M447 750q285 0 285 -201q0 -112 -62 -245q-63 -137 -161 -225q-110 -98 -226 -98q-130 0 -195 113q-54 92 -54 232q0 424 413 424zM236 332q0 -179 84 -179q72 0 141 138q62 123 62 206q0 49 -34 68q-26 14 -79 14q-107 0 -146 -74q-28 -54 -28 -173z" />
    <glyph glyph-name="P" unicode="P" horiz-adv-x="646" 
d="M-7 0l116 544h197l-39 -183q191 85 191 171q0 42 -60 42h-318l81 167h310q85 0 136 -34q60 -40 60 -120q0 -147 -154 -267q-111 -86 -287 -150l-36 -170h-197z" />
    <glyph glyph-name="Q" unicode="Q" horiz-adv-x="729" 
d="M408 579q-100 0 -140 -62q-32 -50 -32 -157q0 -67 14 -115q22 -75 72 -75q66 0 136 131q64 120 64 195q0 83 -114 83zM668 174l-88 -174h-242q-147 0 -229 99q-76 93 -76 243q0 408 412 408q286 0 286 -202q0 -187 -169 -381z" />
    <glyph glyph-name="R" unicode="R" horiz-adv-x="704" 
d="M506 318q58 -183 149 -309l-183 -118q-128 189 -190 460q212 119 212 190q0 33 -50 33h-352l80 167h347q83 0 135 -29q65 -37 65 -114q0 -164 -213 -280zM120 544h199l-115 -544h-199z" />
    <glyph glyph-name="S" unicode="S" horiz-adv-x="528" 
d="M532 572h-195q-44 0 -44 -31q0 -23 46 -83q67 -88 85 -117q46 -75 46 -137q0 -15 -4 -34q-21 -99 -107 -139q-65 -31 -180 -31h-177l-12 171h216q41 0 41 34q0 25 -45 82q-69 85 -85 111q-45 72 -45 134q0 18 4 37q36 172 266 172h181z" />
    <glyph glyph-name="T" unicode="T" horiz-adv-x="613" 
d="M327 0h-199l121 569h-207l82 172h524l7 -172h-207z" />
    <glyph glyph-name="U" unicode="U" horiz-adv-x="701" 
d="M718 741l-158 -741h-233q-149 0 -219 31q-105 47 -105 176q0 217 234 534h207q-231 -328 -231 -474q0 -73 62 -91q24 -7 122 -7l122 572h199z" />
    <glyph glyph-name="V" unicode="V" horiz-adv-x="625" 
d="M74 741h204l9 -489l219 489h203l-363 -741h-225z" />
    <glyph glyph-name="W" unicode="W" horiz-adv-x="984" 
d="M274 245l201 496h192l-12 -501l198 501h210l-353 -741h-209l-1 407l-175 -407h-210l-36 741h209z" />
    <glyph glyph-name="X" unicode="X" horiz-adv-x="653" 
d="M198 388l-103 353h220l44 -216l137 216h220l-254 -353l112 -388h-220l-55 243l-158 -243h-220z" />
    <glyph glyph-name="Y" unicode="Y" horiz-adv-x="616" 
d="M352 0l-195 -110q-11 26 -11 71q0 71 20 168q18 82 37 165l-120 447h215l49 -242l150 242h216l-311 -447l-32 -142q-23 -112 -18 -152z" />
    <glyph glyph-name="Z" unicode="Z" horiz-adv-x="623" 
d="M327 572h-219l78 169h473l-376 -570h247l-87 -171h-494z" />
    <glyph glyph-name="bracketleft" unicode="[" horiz-adv-x="405" 
d="M436 579h-122l-114 -533h78l10 -162h-300l182 857h256z" />
    <glyph glyph-name="backslash" unicode="\" horiz-adv-x="505" 
d="M54 675l124 66l298 -769l-123 -65z" />
    <glyph glyph-name="bracketright" unicode="]" horiz-adv-x="405" 
d="M-31 46h122l114 533h-78l-10 162h300l-182 -857h-256z" />
    <glyph glyph-name="asciicircum" unicode="^" horiz-adv-x="1000" 
d="M429 714h141l227 -275h-129l-168 167l-169 -167h-129z" />
    <glyph glyph-name="underscore" unicode="_" horiz-adv-x="512" 
d="M0 -119h512v-117h-512v117z" />
    <glyph glyph-name="grave" unicode="`" horiz-adv-x="500" 
d="M252 737l67 -138h-87l-135 138h155z" />
    <glyph glyph-name="a" unicode="a" horiz-adv-x="572" 
d="M575 556l-118 -556h-124q-133 0 -215 61q-91 69 -91 197q0 140 75 219t213 79h260zM318 407q-110 0 -110 -121q0 -50 27.5 -87t75.5 -49l54 257h-47z" />
    <glyph glyph-name="b" unicode="b" horiz-adv-x="572" 
d="M242 407l-55 -257q68 8 118 62q47 51 62 121q3 14 3 22q0 52 -67 52h-61zM135 741h178l-40 -185q142 0 183 -11q101 -26 101 -126q0 -30 -8 -68q-35 -169 -164 -262q-123 -89 -299 -89h-109z" />
    <glyph glyph-name="c" unicode="c" horiz-adv-x="426" 
d="M421 556l11 -149q-13 0 -43.5 2t-47.5 2q-134 0 -134 -128q0 -70 55 -105q46 -30 120 -30l-73 -148h-9q-122 0 -197 69.5t-75 190.5q0 139 75 217.5t212 78.5h106z" />
    <glyph glyph-name="d" unicode="d" horiz-adv-x="572" 
d="M600 741l-158 -741h-109q-141 0 -226 59q-98 67 -98 202q0 44 10 90q30 140 132 181q61 24 231 24l40 185h178zM289 407q-101 0 -101 -124q0 -54 27 -89q29 -38 81 -44l55 257h-62z" />
    <glyph glyph-name="e" unicode="e" horiz-adv-x="528" 
d="M458 148l-73 -148h-76q-125 0 -202 67q-80 70 -80 193q0 41 9 83q25 119 106 172q73 47 200 47q88 0 133 -16q72 -27 72 -98q0 -160 -252 -289q30 -12 80 -13q-6 0 83 2zM201 262q156 73 156 132q0 28 -49 28q-50 0 -80 -37.5t-30 -89.5q0 -18 3 -33z" />
    <glyph glyph-name="f" unicode="f" horiz-adv-x="387" 
d="M83 405h-51l32 151h51q20 97 64 139q49 46 145 46h96l14 -139q-10 0 -31 1.5t-32 1.5q-66 0 -76 -54h101l-31 -146h-101l-86 -405h-181z" />
    <glyph glyph-name="g" unicode="g" horiz-adv-x="574" 
d="M18 -37h242q50 0 53 47q-117 6 -189 72q-76 69 -76 184q0 146 86 220q80 70 227 70h237l-116 -545q-24 -111 -80.5 -153.5t-171.5 -42.5h-200zM320 407q-91 0 -91 -119q0 -52 28 -85.5t79 -37.5l51 242h-67z" />
    <glyph glyph-name="h" unicode="h" horiz-adv-x="579" 
d="M135 741h178l-40 -185h113q67 -4 100 -29q43 -30 43 -98q0 -38 -11 -90l-72 -339h-178l67 313q6 28 6 46q0 33 -27 42q-12 4 -56 4h-17l-86 -405h-178z" />
    <glyph glyph-name="i" unicode="i" horiz-adv-x="301" 
d="M99 556h181l-118 -556h-181zM139 741h181l-31 -146h-181z" />
    <glyph glyph-name="j" unicode="j" horiz-adv-x="308" 
d="M126 556h181l-87 -409q-42 -196 -200 -332l-119 97q110 102 134 216zM165 741h181l-31 -146h-181z" />
    <glyph glyph-name="k" unicode="k" horiz-adv-x="573" 
d="M136 741h178l-158 -741h-178zM296 0l-66 303l164 253h195l-172 -253l77 -303h-198z" />
    <glyph glyph-name="l" unicode="l" horiz-adv-x="301" 
d="M139 741h181l-158 -741h-181z" />
    <glyph glyph-name="m" unicode="m" horiz-adv-x="831" 
d="M-3 0l118 556h508q84 0 123 -22q53 -29 53 -105q0 -38 -11 -90l-72 -339h-175l66 313q7 33 7 48q0 31 -29 40q-13 4 -55 4l-86 -405h-175l86 405h-97l-86 -405h-175z" />
    <glyph glyph-name="n" unicode="n" horiz-adv-x="579" 
d="M-3 0l118 556h263q82 0 120 -23q51 -29 51 -104q0 -38 -10 -85l-73 -344h-178l66 313q9 42 9 54q0 31 -39 37q-5 1 -63 1l-86 -405h-178z" />
    <glyph glyph-name="o" unicode="o" horiz-adv-x="567" 
d="M345 562q99 0 150 -24q73 -34 73 -121q0 -136 -103 -278q-111 -153 -242 -153q-99 0 -151 89q-43 73 -43 180q0 45 10 92q26 121 106 171q70 44 200 44zM313 412q-102 0 -102 -139q0 -129 45 -129q38 0 82 88q41 80 41 125q0 55 -66 55z" />
    <glyph glyph-name="p" unicode="p" horiz-adv-x="574" 
d="M-23 -185l158 741h214q106 0 162 -25q80 -36 80 -129q0 -151 -126 -267q-113 -103 -270 -135l-40 -185h-178zM228 155q67 19 119 72q57 59 57 124q0 54 -69 54h-54z" />
    <glyph glyph-name="q" unicode="q" horiz-adv-x="572" 
d="M335 148l55 257q-70 -8 -126 -71t-56 -134q0 -52 65 -52h62zM600 556l-158 -741h-178l40 185q-142 0 -183 11q-102 26 -102 126q0 30 8 68q35 169 165 262q123 89 299 89h109z" />
    <glyph glyph-name="r" unicode="r" horiz-adv-x="384" 
d="M118 556h181l-5 -28q44 34 122 34l-33 -155q-79 0 -127 -57l-75 -350h-181z" />
    <glyph glyph-name="s" unicode="s" horiz-adv-x="410" 
d="M13 0l-13 146h136q26 0 26 20q0 15 -50 96.5t-50 135.5q0 86 74 127q58 31 151 31h101l12 -146q-7 0 -33 2q-20 1 -33 1q-68 0 -68 -27q0 -15 47.5 -92.5t47.5 -131.5q0 -87 -69 -128q-56 -34 -147 -34h-132z" />
    <glyph glyph-name="t" unicode="t" horiz-adv-x="384" 
d="M182 0q-73 0 -107 19q-47 25 -47 91q0 29 9 71l48 224h-52l32 151h52l21 99l192 53l-32 -152h91l-32 -151h-91q-14 -60 -27 -119q-21 -94 -21 -112q0 -31 47 -31q10 0 28 1.5t26 1.5l-72 -146h-65z" />
    <glyph glyph-name="u" unicode="u" horiz-adv-x="579" 
d="M582 556l-118 -556h-252q-209 0 -209 154q0 144 174 402h178q-161 -264 -161 -349q0 -43 44 -54q14 -3 80 -3l86 406h178z" />
    <glyph glyph-name="v" unicode="v" horiz-adv-x="549" 
d="M113 0l-54 556h186l6 -385l170 385h187l-291 -556h-204z" />
    <glyph glyph-name="w" unicode="w" horiz-adv-x="852" 
d="M568 182l152 374h184l-270 -556h-194l-3 329l-143 -329h-194l-34 556h186l-9 -374l156 374h172z" />
    <glyph glyph-name="x" unicode="x" horiz-adv-x="542" 
d="M157 295l-84 261h194l33 -146l95 146h194l-195 -263l91 -293h-199l-38 163l-108 -163h-199z" />
    <glyph glyph-name="y" unicode="y" horiz-adv-x="549" 
d="M450 556h185l-295 -500q-73 -125 -114 -166q-75 -75 -180 -75l-31 162q132 -2 149 79l-92 500h203l24 -277h3z" />
    <glyph glyph-name="z" unicode="z" horiz-adv-x="481" 
d="M230 407h-162l75 149h382l-276 -408h175l-77 -148h-392z" />
    <glyph glyph-name="braceleft" unicode="{" horiz-adv-x="500" 
d="M437 722v-118h-17q-51 0 -69 -19.5t-18 -71.5q0 -19 3 -56.5t3 -56.5q0 -119 -106 -141q106 -22 106 -139q0 -19 -3 -57t-3 -57q0 -59 24 -77q20 -14 80 -14v-118h-45q-123 0 -162 44q-31 34 -31 131v45q1 32 1 51q0 79 -24 106t-101 27v116q76 0 100.5 28t24.5 112
q0 18 -1 48t-1 40q0 108 44 145q39 32 150 32h45z" />
    <glyph glyph-name="bar" unicode="|" horiz-adv-x="500" 
d="M192 831h117v-1000h-117v1000z" />
    <glyph glyph-name="braceright" unicode="}" horiz-adv-x="500" 
d="M63 604v118h45q103 0 146 -30q37 -26 44 -89q2 -16 2 -150q0 -80 23.5 -108t101.5 -28v-116q-77 0 -101 -27t-24 -106q0 -16 1 -47t1 -47q0 -109 -44 -145q-39 -32 -150 -32h-45v118h17q51 0 69 19.5t18 71.5q0 19 -3 57t-3 57q0 117 106 139q-106 22 -106 141
q0 19 3 56.5t3 56.5q0 59 -24 77q-19 14 -80 14z" />
    <glyph glyph-name="asciitilde" unicode="~" horiz-adv-x="833" 
d="M747 400v-124q-97 -67 -184 -67q-50 0 -144.5 32t-144.5 32q-80 0 -187 -77v124q108 70 189 70q50 0 145 -32t145 -32q81 0 181 74z" />
    <glyph glyph-name="currency" unicode="&#xa4;" horiz-adv-x="606" 
d="M87 705l99 -98q51 36 117 36q68 0 119 -36l98 98l58 -57l-98 -100q34 -52 34 -116t-34 -116l98 -99l-58 -58l-98 99q-50 -36 -118 -36q-66 0 -118 36l-99 -99l-57 58l98 99q-35 52 -35 116q0 66 35 116l-98 100zM304 559q-52 0 -89.5 -37.5t-37.5 -89.5t37.5 -89.5
t89.5 -37.5t89.5 37.5t37.5 89.5t-37.5 89.5t-89.5 37.5z" />
    <glyph glyph-name="brokenbar" unicode="&#xa6;" horiz-adv-x="500" 
d="M192 699h117v-370h-117v370zM192 199h117v-370h-117v370z" />
    <glyph glyph-name="section" unicode="&#xa7;" horiz-adv-x="500" 
d="M511 610h-146q-37 0 -37 -25q0 -10 6 -16l136 -145q28 -30 28 -76q0 -71 -54 -126q-47 -49 -121 -72q53 -55 53 -99q0 -89 -68 -132q-55 -35 -149 -35h-150l-13 129h168q30 0 30 23q0 12 -9 21l-148 155q-31 32 -31 83q0 133 186 185q-52 58 -52 99q0 89 73 130
q57 32 152 32h136zM250 229q91 23 91 71q0 21 -33 58q-24 23 -47 47q-92 -23 -92 -72q0 -20 35 -58z" />
    <glyph glyph-name="copyright" unicode="&#xa9;" horiz-adv-x="1024" 
d="M512 870q183 0 310.5 -127.5t127.5 -310.5q0 -179 -129.5 -308.5t-308.5 -129.5q-176 0 -306.5 131t-130.5 307q0 182 127.5 310t309.5 128zM513 791q-149 0 -253 -104.5t-104 -254.5q0 -144 106 -251t250 -107q148 0 253.5 105t105.5 253q0 150 -104 254.5t-254 104.5z
M603 650l29 -102q-11 0 -34.5 1t-35.5 1q-107 0 -107 -83q0 -82 53 -124q48 -38 131 -38l-30 -100h-6q-116 0 -191.5 76.5t-75.5 192.5q0 176 198 176h69z" />
    <glyph glyph-name="guillemotleft" unicode="&#xab;" horiz-adv-x="440" 
d="M185 497l86 -50l-114 -162l52 -178l-109 -48l-64 226zM350 497l86 -50l-114 -162l52 -178l-109 -48l-65 226z" />
    <glyph glyph-name="logicalnot" unicode="&#xac;" horiz-adv-x="833" 
d="M124 423h585v-245h-112v134h-473v111z" />
    <glyph glyph-name="registered" unicode="&#xae;" horiz-adv-x="1024" 
d="M512 870q183 0 310.5 -127.5t127.5 -310.5q0 -179 -129.5 -308.5t-308.5 -129.5q-176 0 -306.5 131t-130.5 307q0 182 127.5 310t309.5 128zM513 791q-149 0 -253 -104.5t-104 -254.5q0 -144 106 -251t250 -107q148 0 253.5 105t105.5 253q0 150 -104 254.5t-254 104.5z
M601 422q56 -107 128 -186l-95 -70q-98 111 -172 276q103 67 103 106q0 27 -35 27h-211l27 101h208q61 0 98 -25q43 -30 43 -88q0 -83 -94 -141zM340 557h120v-326h-120v326z" />
    <glyph glyph-name="degree" unicode="&#xb0;" horiz-adv-x="329" 
d="M197 716q53 0 88 -34t35 -87q0 -71 -58 -127t-130 -56q-53 0 -87.5 33.5t-34.5 86.5q0 72 57 128t130 56zM182 645q-39 0 -69.5 -29.5t-30.5 -68.5q0 -28 18.5 -45.5t47.5 -17.5q38 0 68.5 30t30.5 68q0 28 -18.5 45.5t-46.5 17.5z" />
    <glyph glyph-name="plusminus" unicode="&#xb1;" horiz-adv-x="833" 
d="M359 606h116v-156h234v-113h-234v-156h-116v156h-235v113h235v156zM124 104h585v-113h-585v113z" />
    <glyph glyph-name="paragraph" unicode="&#xb6;" horiz-adv-x="500" 
d="M487 722v-60h-52v-662h-85v662h-74v-662h-85v383q-78 3 -126 47q-51 46 -51 122q0 81 56 127q52 43 134 43h283z" />
    <glyph glyph-name="guillemotright" unicode="&#xbb;" horiz-adv-x="440" 
d="M90 59l-86 49l113 162l-51 179l109 48l64 -227zM255 59l-87 49l113 162l-51 179l109 48l64 -227z" />
    <glyph glyph-name="mu" unicode="&#xb5;" horiz-adv-x="642" 
d="M94 601h175l-39 -258q-6 -40 -6 -70q0 -83 70 -83q82 0 104 141l43 270h174l-85 -532h-157l9 61q-38 -69 -102 -69q-60 0 -90 59l-40 -260h-172z" />
    <glyph glyph-name="mu" unicode="&#x3bc;" horiz-adv-x="642" 
d="M94 601h175l-39 -258q-6 -40 -6 -70q0 -83 70 -83q82 0 104 141l43 270h174l-85 -532h-157l9 61q-38 -69 -102 -69q-60 0 -90 59l-40 -260h-172z" />
    <glyph glyph-name="afii10023" unicode="&#x401;" horiz-adv-x="602" 
d="M584 576h-297l-25 -117h271l-84 -162h-222l-27 -130h322l-89 -167h-468l158 741h451zM367 920l-27 -128h-119l27 128h119zM540 920l-27 -128h-119l27 128h119z" />
    <glyph glyph-name="afii10017" unicode="&#x410;" horiz-adv-x="704" 
d="M593 741h119l9 -167q-17 0 -58 1h-57q-125 0 -197 -32q-86 -39 -143 -138h189l30 139h200l-116 -544h-200l50 234h-209q-6 -37 -6 -71q0 -85 32 -163l-180 -104q-53 120 -53 247q0 173 91 323q166 275 499 275z" />
    <glyph glyph-name="afii10018" unicode="&#x411;" horiz-adv-x="699" 
d="M614 741l15 -167h-330l-86 -405h139q65 0 65 57q0 77 -151 168l157 110q211 -137 211 -277q0 -19 -4 -38q-26 -118 -131 -161q-72 -28 -216 -28h-300l158 741h473z" />
    <glyph glyph-name="afii10019" unicode="&#x412;" horiz-adv-x="708" 
d="M109 544h194l-80 -375h139q65 0 65 57q0 77 -151 168q189 106 189 153q0 27 -50 27h-335l81 167h327q205 0 205 -125q0 -117 -136 -213q88 -73 88 -170q0 -21 -5 -44q-26 -117 -126 -159q-70 -30 -210 -30h-311z" />
    <glyph glyph-name="afii10020" unicode="&#x413;" horiz-adv-x="583" 
d="M596 741l9 -169h-289l-95 -448q-19 -90 -15 -124l-195 -108q-12 27 -12 72q0 56 21 155l132 622h444z" />
    <glyph glyph-name="afii10021" unicode="&#x414;" horiz-adv-x="796" 
d="M-40 0l-4 162h104q-2 26 -2 43q0 237 172 390q166 146 406 146h101l9 -167q-16 0 -51.5 1t-53.5 1q-181 0 -264 -71q-64 -55 -96 -152q-28 -83 -27 -180v-11h177l81 382h198l-81 -382h102l-72 -162h-699z" />
    <glyph glyph-name="afii10022" unicode="&#x415;" horiz-adv-x="602" 
d="M603 576h-297l-25 -117h271l-84 -162h-222l-27 -130h322l-89 -167h-468l158 741h451z" />
    <glyph glyph-name="afii10024" unicode="&#x416;" horiz-adv-x="1040" 
d="M502 741h194l-158 -741h-194zM736 0l-102 408l241 333h216l-254 -333l124 -408h-225zM146 0h-225l298 408l-112 333h216l99 -333z" />
    <glyph glyph-name="afii10025" unicode="&#x417;" 
d="M130 572l80 169h241q68 0 112 -28q51 -32 51 -97q0 -118 -142 -217q81 -84 81 -171q0 -21 -5 -44q-25 -115 -122 -156q-67 -28 -205 -28h-178l-12 173h235q27 0 45 12q22 14 22 39q0 58 -136 169q186 110 186 156q0 23 -27 23h-226z" />
    <glyph glyph-name="afii10026" unicode="&#x418;" horiz-adv-x="754" 
d="M772 741l-158 -741h-198l104 487l-285 -228l-55 -259h-198l158 741h198l-49 -230l285 230h198z" />
    <glyph glyph-name="afii10027" unicode="&#x419;" horiz-adv-x="754" 
d="M749 741l-157 -741h-198l103 487l-284 -228l-55 -259h-198l157 741h198l-49 -230l285 230h198zM440 774q-112 0 -111 30l6 148q48 -38 135 -38t151 38l-56 -148q-11 -30 -125 -30z" />
    <glyph glyph-name="afii10028" unicode="&#x41a;" horiz-adv-x="699" 
d="M142 741h200l-158 -741h-200zM388 0l-108 408l246 333h223l-252 -326l123 -415h-232z" />
    <glyph glyph-name="afii10029" unicode="&#x41b;" horiz-adv-x="704" 
d="M370 0l115 544h200l-115 -544h-200zM712 741l10 -167h-151q-176 0 -275 -126q-91 -115 -91 -296q0 -76 32 -152l-181 -108q-53 120 -53 247q0 66 13 126q47 220 200.5 348t376.5 128h119z" />
    <glyph glyph-name="afii10030" unicode="&#x41c;" horiz-adv-x="819" 
d="M144 741h185l107 -248l212 248h186l-158 -741h-197l95 444l-194 -216l-102 216l-95 -444h-197z" />
    <glyph glyph-name="afii10031" unicode="&#x41d;" horiz-adv-x="722" 
d="M352 741l-49 -232h199l49 232h199l-157 -741h-199l72 338h-199q-17 -77 -35 -154q-31 -147 -26 -184l-195 -108q-12 27 -12 72q0 56 21 155l132 622h200z" />
    <glyph glyph-name="afii10032" unicode="&#x41e;" horiz-adv-x="729" 
d="M447 750q285 0 285 -201q0 -112 -62 -245q-64 -137 -161 -225q-110 -98 -226 -98q-130 0 -195 114q-54 92 -54 232q0 423 413 423zM236 332q0 -179 84 -179q72 0 141 138q62 123 62 206q0 49 -34 68q-26 14 -79 14q-107 0 -146 -74q-28 -54 -28 -173z" />
    <glyph glyph-name="afii10033" unicode="&#x41f;" horiz-adv-x="722" 
d="M152 741h598l-157 -741h-199l121 570h-199l-95 -446q-19 -90 -15 -124l-195 -110q-12 27 -12 72q0 58 21 157z" />
    <glyph glyph-name="afii10034" unicode="&#x420;" horiz-adv-x="646" 
d="M-7 0l116 544h197l-39 -183q191 85 191 171q0 42 -60 42h-318l81 167h310q85 0 136 -34q60 -40 60 -120q0 -147 -154 -267q-111 -86 -287 -150l-36 -170h-197z" />
    <glyph glyph-name="afii10035" unicode="&#x421;" horiz-adv-x="560" 
d="M553 741l12 -169h-138q-80 0 -123 -29q-48 -31 -64 -107q-8 -37 -8 -71q0 -105 80 -156q67 -42 179 -42l-86 -167h-10q-167 0 -264 91.5t-97 257.5q0 136 67 240q73 112 200 140q55 12 137 12h115z" />
    <glyph glyph-name="afii10036" unicode="&#x422;" horiz-adv-x="613" 
d="M327 0h-199l121 569h-207l82 172h524l7 -172h-207z" />
    <glyph glyph-name="afii10037" unicode="&#x423;" horiz-adv-x="621" 
d="M337 367l192 374h193l-353 -608q-72 -124 -114 -166q-74 -75 -180 -75l-32 162q46 0 62 3q31 6 56.5 28.5t31.5 47.5l-106 608h200l48 -374h2z" />
    <glyph glyph-name="afii10038" unicode="&#x424;" horiz-adv-x="963" 
d="M468 741h185l-13 -60q150 0 208 -14q127 -31 127 -134q0 -139 -165 -265q-118 -91 -291 -157l-24 -111h-185l24 111q-121 55 -196 127q-100 94 -100 201q0 26 5 49q28 129 162 170q74 23 250 23zM606 520l-49 -229q61 21 128 70q82 61 82 110t-80 49h-81zM372 291l49 229
h-81q-43 0 -71 -16q-36 -20 -36 -60q0 -42 50 -91q43 -44 89 -62z" />
    <glyph glyph-name="afii10039" unicode="&#x425;" horiz-adv-x="653" 
d="M198 388l-103 353h220l44 -216l137 216h220l-254 -353l112 -388h-220l-55 243l-158 -243h-220z" />
    <glyph glyph-name="afii10040" unicode="&#x426;" horiz-adv-x="753" 
d="M718 741l-122 -572h102l-73 -169h-298q-149 0 -219 31q-105 46 -105 175q0 218 234 535h207q-231 -329 -231 -477q0 -69 63 -87q26 -8 121 -8l122 572h199z" />
    <glyph glyph-name="afii10041" unicode="&#x427;" horiz-adv-x="640" 
d="M462 741h196l-158 -741h-196l40 185q-81 0 -101 1q-57 5 -97 23q-123 56 -123 196q0 81 46 176q7 14 92 160h185q-125 -192 -125 -290q0 -66 50 -88q32 -15 107 -15z" />
    <glyph glyph-name="afii10042" unicode="&#x428;" horiz-adv-x="1074" 
d="M237 741h207q-231 -329 -231 -477q0 -69 63 -87q26 -8 121 -8l86 404l197 81l-103 -485h194l122 572h199l-158 -741h-607q-150 0 -219 30q-105 46 -105 175q0 219 234 536z" />
    <glyph glyph-name="afii10043" unicode="&#x429;" horiz-adv-x="1115" 
d="M237 741h207q-231 -329 -231 -477q0 -69 63 -87q26 -8 121 -8l86 404l197 81l-103 -485h194l122 572h199l-122 -572h102l-73 -169h-672q-150 0 -219 30q-105 46 -105 175q0 219 234 536z" />
    <glyph glyph-name="afii10044" unicode="&#x42a;" horiz-adv-x="773" 
d="M60 -1l122 575h-139l89 167h280l-122 -572h139q65 0 65 57q0 77 -151 168l157 110q212 -138 212 -277q0 -19 -4 -38q-26 -119 -132 -161q-71 -29 -216 -29h-300z" />
    <glyph glyph-name="afii10045" unicode="&#x42b;" horiz-adv-x="1010" 
d="M-18 0l158 741h194l-122 -572h139q65 0 65 57q0 77 -151 168l157 110q211 -137 211 -277q0 -19 -4 -38q-26 -118 -131 -161q-72 -28 -216 -28h-300zM824 741h198l-158 -741h-198z" />
    <glyph glyph-name="afii10046" unicode="&#x42c;" horiz-adv-x="696" 
d="M-17 0l158 741h194l-122 -572h139q65 0 65 57q0 77 -151 168l157 110q211 -137 211 -277q0 -19 -4 -38q-26 -118 -131 -161q-72 -28 -216 -28h-300z" />
    <glyph glyph-name="afii10047" unicode="&#x42d;" horiz-adv-x="562" 
d="M86 459h267q2 14 2 23q0 92 -134 92h-150l84 167h127q278 0 278 -207q0 -43 -9 -85q-42 -198 -196 -323.5t-356 -125.5l-14 167q208 0 308 139h-199z" />
    <glyph glyph-name="afii10048" unicode="&#x42e;" horiz-adv-x="1043" 
d="M339 741l-59 -279h84q32 155 138 225q96 63 260 63q285 0 285 -201q0 -112 -62 -245q-64 -137 -161 -225q-110 -98 -226 -98q-122 0 -189 108q-56 89 -60 220h-102l-66 -309h-198l158 741h198zM552 342q0 -189 83 -189q70 0 140 138q63 124 63 206q0 49 -34 68
q-26 14 -79 14q-105 0 -144 -70q-29 -51 -29 -167z" />
    <glyph glyph-name="afii10049" unicode="&#x42f;" horiz-adv-x="704" 
d="M198 318q-113 80 -113 189q0 113 86 177q77 57 194 57h347l10 -167h-352q-69 0 -69 -57q0 -66 135 -166q-178 -272 -384 -459l-133 117q141 123 279 309zM680 544l-115 -544h-199l115 544h199z" />
    <glyph glyph-name="afii10065" unicode="&#x430;" horiz-adv-x="572" 
d="M575 556l-118 -556h-124q-133 0 -215 61q-91 68 -91 196q0 140 75 219.5t213 79.5h260zM318 407q-110 0 -110 -121q0 -50 27.5 -87t75.5 -49l54 257h-47z" />
    <glyph glyph-name="afii10066" unicode="&#x431;" horiz-adv-x="529" 
d="M262 386q-51 0 -77 -56q-20 -44 -20 -101q0 -96 45 -96q42 0 79 81q32 70 32 119q0 53 -59 53zM525 741l12 -147h-202q-54 0 -81 -19t-37 -71h3q19 0 61 14.5t67 14.5q72 0 113 -32q46 -35 46 -104q0 -23 -6 -53q-26 -129 -108 -234q-96 -124 -214 -124q-90 0 -133 85
q-34 66 -34 165q0 63 18 151q17 75 34 149q23 108 70 154q52 51 158 51h233z" />
    <glyph glyph-name="afii10067" unicode="&#x432;" horiz-adv-x="567" 
d="M-3 0l118 556h265q170 0 170 -99q0 -45 -37 -90q-2 -2 -70 -71q45 -58 47 -60q23 -36 23 -72q0 -88 -68 -130q-56 -34 -149 -34h-299zM255 410l-56 -264h81q33 0 33 18q0 15 -28 65q-20 34 -40 67q86 85 86 99q0 15 -27 15h-49z" />
    <glyph glyph-name="afii10068" unicode="&#x433;" horiz-adv-x="433" 
d="M261 405l-86 -405h-178l118 556h333l3 -151h-190z" />
    <glyph glyph-name="afii10069" unicode="&#x434;" horiz-adv-x="618" 
d="M590 144l-56 -144h-568l6 144h84q-1 13 -1 24q0 39 9 80q68 308 452 308h83l-87 -412h78zM343 144l56 268q-84 0 -136 -85q-46 -74 -46 -163q0 -10 2 -20h124z" />
    <glyph glyph-name="afii10070" unicode="&#x435;" horiz-adv-x="528" 
d="M458 148l-73 -148h-76q-125 0 -202 67q-80 70 -80 193q0 41 9 83q25 119 106 172q73 47 200 47q88 0 133 -16q72 -27 72 -98q0 -160 -252 -289q31 -13 163 -11zM201 262q156 73 156 133q0 27 -49 27q-51 0 -80.5 -37.5t-29.5 -89.5q0 -18 3 -33z" />
    <glyph glyph-name="afii10072" unicode="&#x436;" horiz-adv-x="853" 
d="M399 556h173l-118 -556h-173zM610 0l-83 303l182 253h183l-186 -248l90 -308h-186zM125 0h-186l220 308l-80 248h183l74 -253z" />
    <glyph glyph-name="afii10073" unicode="&#x437;" horiz-adv-x="424" 
d="M-9 0l-1 146h147q34 0 34 16q0 14 -59 134q87 85 87 95q0 19 -36 19h-93l63 146h122q162 0 162 -96q0 -47 -39 -92q-8 -10 -76 -72q23 -30 47 -60q23 -36 23 -72q0 -88 -69 -130q-55 -34 -148 -34h-164z" />
    <glyph glyph-name="afii10074" unicode="&#x438;" horiz-adv-x="603" 
d="M118 556h178l-28 -128l163 128h178l-119 -556h-178l79 369l-160 -115q-9 -39 -19 -79q-10 -47 -10 -80q0 -30 9 -49l-178 -70q-15 30 -15 74q0 38 14 104z" />
    <glyph glyph-name="afii10075" unicode="&#x439;" horiz-adv-x="603" 
d="M94 556h178l-27 -128l162 128h178l-118 -556h-178l79 369l-160 -115q-9 -39 -19 -79q-10 -47 -10 -80q0 -30 9 -49l-178 -70q-15 30 -15 74q0 38 14 104zM356 630q-47 0 -90 24l6 120q40 -31 108 -31q70 0 123 31l-48 -120q-53 -24 -99 -24z" />
    <glyph glyph-name="afii10076" unicode="&#x43a;" horiz-adv-x="581" 
d="M115 556h178l-118 -556h-178zM336 0l-88 303l186 253h195l-190 -248l95 -308h-198z" />
    <glyph glyph-name="afii10077" unicode="&#x43b;" horiz-adv-x="572" 
d="M466 0h-178l88 412q-93 -8 -147 -111q-45 -85 -45 -188q0 -52 26 -113l-149 -88q-50 91 -50 176q0 201 123 333q127 135 326 135h124z" />
    <glyph glyph-name="afii10078" unicode="&#x43c;" horiz-adv-x="738" 
d="M741 556l-118 -556h-178l78 369l-166 -147l-104 147l-78 -369h-178l118 556h169l113 -144l175 144h169z" />
    <glyph glyph-name="afii10079" unicode="&#x43d;" horiz-adv-x="585" 
d="M413 556h178l-119 -556h-178l54 254h-117q-9 -39 -19 -79q-10 -47 -10 -80q0 -30 9 -49l-178 -70q-15 30 -15 74q0 38 14 104l86 402h178l-32 -151h117z" />
    <glyph glyph-name="afii10080" unicode="&#x43e;" horiz-adv-x="567" 
d="M345 562q99 0 150 -24q73 -34 73 -121q0 -136 -103 -278q-111 -153 -242 -153q-99 0 -151 89q-43 74 -43 180q0 45 10 92q26 121 106 171q70 44 200 44zM313 412q-102 0 -102 -139q0 -129 45 -129q38 0 82 88q41 80 41 125q0 55 -66 55z" />
    <glyph glyph-name="afii10081" unicode="&#x43f;" horiz-adv-x="585" 
d="M-3 0l118 556h473l-118 -556h-178l86 405h-117l-86 -405h-178z" />
    <glyph glyph-name="afii10082" unicode="&#x440;" horiz-adv-x="574" 
d="M-23 -185l158 741h214q106 0 162 -25q80 -36 80 -129q0 -151 -126 -267q-113 -103 -270 -135l-40 -185h-178zM228 155q67 19 119 72q57 59 57 124q0 54 -69 54h-54z" />
    <glyph glyph-name="afii10083" unicode="&#x441;" horiz-adv-x="426" 
d="M421 556l11 -149q-15 0 -44 1t-43 1q-66 0 -97 -21q-40 -27 -40 -100q0 -74 52 -110q46 -31 122 -30l-73 -148h-9q-122 0 -197 69.5t-75 190.5q0 139 75 217.5t212 78.5h106z" />
    <glyph glyph-name="afii10084" unicode="&#x442;" horiz-adv-x="518" 
d="M375 405l-86 -405h-178l86 405h-163l67 151h434l3 -151h-163z" />
    <glyph glyph-name="afii10085" unicode="&#x443;" horiz-adv-x="549" 
d="M450 556h185l-295 -500q-74 -125 -114 -166q-74 -75 -180 -75l-31 162q46 0 62 3q30 6 55.5 28.5t31.5 47.5l-92 500h203l24 -277h3z" />
    <glyph glyph-name="afii10086" unicode="&#x444;" horiz-adv-x="856" 
d="M615 741l-39 -185q124 0 181 -20q97 -35 97 -135q0 -151 -126 -266q-113 -103 -270 -135l-39 -185h-178l39 185q-110 25 -177 91q-75 74 -75 181q0 35 7 69q27 131 134 180q77 35 229 35l39 185h178zM544 405l-55 -258q66 18 120 76q58 63 58 128q0 54 -69 54h-54z
M311 147l55 258h-54q-103 0 -103 -115q0 -50 27.5 -89.5t74.5 -53.5z" />
    <glyph glyph-name="afii10087" unicode="&#x445;" horiz-adv-x="542" 
d="M157 295l-84 261h194l33 -146l95 146h194l-195 -263l91 -293h-199l-38 163l-108 -163h-199z" />
    <glyph glyph-name="afii10088" unicode="&#x446;" horiz-adv-x="596" 
d="M404 556h178l-87 -409h80l-62 -147h-301q-209 0 -209 154q0 144 174 402h178q-161 -265 -161 -350q0 -44 43 -55q16 -4 80 -4z" />
    <glyph glyph-name="afii10089" unicode="&#x447;" horiz-adv-x="536" 
d="M361 556h178l-118 -556h-178l31 144q-112 0 -163 21q-80 33 -80 128q0 68 30 138q17 41 68 125h178q-89 -142 -89 -204q0 -59 87 -58z" />
    <glyph glyph-name="afii10090" unicode="&#x448;" horiz-adv-x="868" 
d="M693 556h178l-118 -556h-541q-209 0 -209 154q0 144 174 402h178q-161 -265 -161 -350q0 -44 43 -55q16 -4 80 -4l61 284l181 61l-73 -345h120z" />
    <glyph glyph-name="afii10091" unicode="&#x449;" horiz-adv-x="894" 
d="M693 556h178l-87 -409h80l-62 -147h-590q-209 0 -209 154q0 144 174 402h178q-161 -265 -161 -350q0 -44 43 -55q16 -4 80 -4l61 284l181 61l-73 -345h120z" />
    <glyph glyph-name="afii10092" unicode="&#x44a;" horiz-adv-x="595" 
d="M27 0l87 412h-86l61 144h227l-87 -410h79q34 0 34 19q0 14 -67 131l134 94l108 -152q26 -36 26 -73q0 -88 -68 -130q-56 -35 -149 -35h-299z" />
    <glyph glyph-name="afii10093" unicode="&#x44b;" horiz-adv-x="842" 
d="M293 556l-87 -410h79q34 0 34 19q0 14 -67 131l134 94l108 -152q26 -36 26 -73q0 -88 -68 -130q-56 -35 -149 -35h-306l118 556h178zM549 0l118 556h178l-118 -556h-178z" />
    <glyph glyph-name="afii10094" unicode="&#x44c;" horiz-adv-x="572" 
d="M293 556l-87 -410h79q34 0 34 19q0 14 -67 131l134 94l108 -152q26 -36 26 -73q0 -88 -68 -130q-56 -35 -149 -35h-306l118 556h178z" />
    <glyph glyph-name="afii10095" unicode="&#x44d;" horiz-adv-x="427" 
d="M47 409l73 147h112q195 0 195 -150q0 -31 -7 -64q-32 -149 -149 -245.5t-269 -96.5l-11 147q131 0 200 85h-109l-12 117h170v5q2 55 -74 55h-119z" />
    <glyph glyph-name="afii10096" unicode="&#x44e;" horiz-adv-x="856" 
d="M13 0l119 562h171l-45 -213h70q24 118 107 169q71 44 199 44q99 0 150 -24q73 -34 73 -121q0 -136 -103 -278q-111 -153 -242 -153q-92 0 -145 80q-43 67 -48 166h-86l-49 -232h-171zM602 412q-60 0 -84 -43q-18 -33 -18 -98q0 -127 45 -127q38 0 82 88q41 80 41 125
q0 55 -66 55z" />
    <glyph glyph-name="afii10097" unicode="&#x44f;" horiz-adv-x="601" 
d="M141 0h-179l184 237q-40 51 -46 61q-21 36 -21 73q0 93 74 143q64 42 162 42h289l-118 -556h-178l87 410h-71q-47 0 -47 -38q0 -18 27 -67l40 -68z" />
    <glyph glyph-name="afii10071" unicode="&#x451;" horiz-adv-x="528" 
d="M440 148l-73 -148h-76q-125 0 -202 67q-80 70 -80 193q0 41 9 83q25 119 106 172q73 47 200 47q88 0 133 -16q72 -27 72 -98q0 -160 -252 -289q31 -13 163 -11zM183 262q156 73 156 133q0 27 -49 27q-51 0 -80.5 -37.5t-29.5 -89.5q0 -18 3 -33zM329 732l-27 -128h-119
l27 128h119zM502 732l-27 -128h-119l27 128h119z" />
    <glyph glyph-name="endash" unicode="&#x2013;" horiz-adv-x="500" 
d="M0 338h500v-118h-500v118z" />
    <glyph glyph-name="emdash" unicode="&#x2014;" horiz-adv-x="1000" 
d="M1000 220h-1000v118h1000v-118z" />
    <glyph glyph-name="quoteleft" unicode="&#x2018;" horiz-adv-x="345" 
d="M253 741l11 -253h-167l-20 253h176z" />
    <glyph glyph-name="quoteright" unicode="&#x2019;" horiz-adv-x="345" 
d="M156 741h176l-136 -253h-168z" />
    <glyph glyph-name="quotesinglbase" unicode="&#x201a;" horiz-adv-x="345" 
d="M130 174h176l-136 -253h-168z" />
    <glyph glyph-name="quotedblleft" unicode="&#x201c;" horiz-adv-x="444" 
d="M201 542h-109l-29 199h114zM226 741h114l19 -199h-109z" />
    <glyph glyph-name="quotedblright" unicode="&#x201d;" horiz-adv-x="444" 
d="M153 542h-109l103 199h114zM310 741h114l-113 -199h-109z" />
    <glyph glyph-name="quotedblbase" unicode="&#x201e;" horiz-adv-x="444" 
d="M121 -79h-109l103 199h114zM278 120h114l-113 -199h-109z" />
    <glyph glyph-name="dagger" unicode="&#x2020;" horiz-adv-x="500" 
d="M387 537h148l-30 -138h-148l-109 -515h-178l109 515h-148l30 138h148l43 204h178z" />
    <glyph glyph-name="bullet" unicode="&#x2022;" horiz-adv-x="590" 
d="M150 372q0 60 42.5 102t102.5 42q59 0 101.5 -42.5t42.5 -101.5t-43 -102t-102 -43q-60 0 -102 42.5t-42 102.5z" />
    <glyph glyph-name="ellipsis" unicode="&#x2026;" horiz-adv-x="1000" 
d="M253 174v-174h-173v174h173zM586 174v-174h-173v174h173zM920 174v-174h-173v174h173z" />
    <glyph glyph-name="perthousand" unicode="&#x2030;" horiz-adv-x="1083" 
d="M270 750q139 0 139 -92q0 -85 -65 -173q-69 -94 -151 -94q-63 0 -94 54q-26 45 -26 112q0 193 197 193zM185 572q0 -73 31 -73q23 0 49 46q25 43 25 69q0 32 -42 32q-63 0 -63 -74zM580 741l95 -59l-556 -682l-90 64zM534 341q139 0 139 -91q0 -85 -65 -173
q-69 -96 -151 -96q-62 0 -94 55q-25 44 -25 111q0 101 48 147.5t148 46.5zM449 161q0 -71 31 -71q24 0 50 46q24 43 24 69q0 32 -42 32q-63 0 -63 -76zM890 341q140 0 140 -92q0 -85 -65 -173q-70 -95 -152 -95q-62 0 -94 55q-25 44 -25 111q0 101 48 147.5t148 46.5z
M806 162q0 -72 31 -72q24 0 50 46q24 43 24 69q0 32 -42 32q-63 0 -63 -75z" />
    <glyph glyph-name="afii61352" unicode="&#x2116;" horiz-adv-x="1189" 
d="M286 465l-99 -465h-199l158 741h190l154 -269l57 269h196l-158 -741h-196l44 208zM1008 604q169 0 169 -104q0 -98 -77 -196q-82 -103 -178 -103q-73 0 -113 62q-35 54 -35 131q0 210 234 210zM992 499h-14q-68 0 -68 -90q0 -97 36 -97q28 0 60 61q30 56 30 88
q0 38 -44 38zM718 117h369l-25 -117h-369z" />
    <glyph glyph-name="trademark" unicode="&#x2122;" horiz-adv-x="833" 
d="M92 715h245v-62h-80v-207h-85v207h-80v62zM389 715h109l55 -148l56 148h108v-269h-76v190l-71 -190h-32l-73 190v-190h-76v269z" />
    <glyph glyph-name="periodcentered" unicode="&#xb7;" horiz-adv-x="345" 
d="M193 473q35 0 58.5 -22t23.5 -57q0 -48 -38 -85t-86 -37q-35 0 -58 23t-23 58q0 47 38 83.5t85 36.5z" />
    <glyph glyph-name="periodcentered" unicode="&#x2219;" horiz-adv-x="345" 
d="M193 473q35 0 58.5 -22t23.5 -57q0 -48 -38 -85t-86 -37q-35 0 -58 23t-23 58q0 47 38 83.5t85 36.5z" />
    <glyph glyph-name="FLW127" horiz-adv-x="1260" 
 />
    <glyph glyph-name="quilsinglleft" unicode="&#x2039;" horiz-adv-x="275" 
d="M185 497l86 -50l-114 -162l52 -178l-109 -48l-64 226z" />
    <glyph glyph-name="quilsinglright" unicode="&#x203a;" horiz-adv-x="275" 
d="M90 59l-86 49l113 162l-51 179l109 48l64 -227z" />
    </font>
</defs>
</svg>
