<svg width="60" height="60" viewBox="0 0 60 60" fill="none" xmlns="http://www.w3.org/2000/svg">
<g clip-path="url(#clip0)">
<path d="M10.6339 21.1797C9.98703 21.1797 9.46198 21.7043 9.46198 22.3511C9.46198 22.9979 9.98703 23.523 10.6339 23.523C11.2807 23.523 11.8057 22.9979 11.8057 22.3511C11.8057 21.7043 11.2807 21.1797 10.6339 21.1797Z" fill="#C159C8"/>
<path d="M43.4677 35.1822C43.2484 34.9625 42.9499 34.8389 42.6391 34.8389C42.6272 34.8412 42.1768 34.816 41.8106 35.1822L40.9825 36.0103L38.2899 33.3182C44.2317 24.9892 43.328 13.4998 36.0107 6.18287C27.7682 -2.05962 14.4262 -2.06099 6.18281 6.18287C-2.05968 14.4249 -2.06105 27.7673 6.18281 36.0107C13.4819 43.3102 24.9667 44.2468 33.3177 38.29L36.0102 40.9825L35.1821 41.8106C34.7248 42.2679 34.7244 43.0104 35.1821 43.4682L49.9972 58.2819C52.2865 60.5725 55.9921 60.5739 58.2818 58.2823C60.5725 55.9935 60.5734 52.2875 58.2818 49.9977L43.4677 35.1822ZM37.6673 39.3254L35.1583 36.8164C35.4499 36.555 35.7351 36.2868 36.0107 36.0107C36.2867 35.7352 36.555 35.45 36.8164 35.1589L39.3254 37.6679L37.6673 39.3254ZM7.83992 34.3536C0.512951 27.0271 0.512035 15.1674 7.83992 7.83998C15.1664 0.513012 27.0262 0.512096 34.3536 7.83998C41.6641 15.15 41.7011 27.007 34.3536 34.3536C26.9232 41.785 15.0666 41.5808 7.83992 34.3536ZM42.6391 37.6679L45.9529 40.9821L40.982 45.9529L37.6678 42.6392L42.6391 37.6679ZM56.6247 56.6252C55.2514 57.9999 53.029 58.0003 51.6548 56.6252L42.6391 47.61L47.61 42.6392L56.6252 51.6553C57.9994 53.0281 58.0007 55.2506 56.6247 56.6252Z" fill="#C159C8"/>
<path d="M32.6967 9.49712C26.2885 3.08888 15.9068 3.08522 9.49587 9.4962C3.10091 15.8925 3.10091 26.3002 9.49587 32.697C15.9078 39.1085 26.2834 39.1089 32.6958 32.697C39.0921 26.3002 39.0926 15.893 32.6967 9.49712ZM31.0387 31.0395C25.5432 36.5349 16.6498 36.5363 11.153 31.0399C5.67171 25.5568 5.67171 16.6359 11.153 11.1528C16.6457 5.6606 25.5451 5.65923 31.0396 11.1542C36.5218 16.6364 36.5213 25.5568 31.0387 31.0395Z" fill="#C159C8"/>
<path d="M21.0965 9.38013C17.9645 9.38013 15.0219 10.5987 12.811 12.8111C11.5292 14.0928 10.5858 15.6071 10.0072 17.3127C9.79933 17.9252 10.1271 18.5908 10.74 18.7986C11.3539 19.0069 12.0186 18.6773 12.2264 18.0657C12.6883 16.7039 13.4427 15.4936 14.4681 14.4677C16.2369 12.6985 18.5907 11.7239 21.0965 11.7239C21.7437 11.7239 22.2683 11.1993 22.2683 10.552C22.2683 9.90472 21.7437 9.38013 21.0965 9.38013Z" fill="#C159C8"/>
</g>
<defs>
<clipPath id="clip0">
<rect width="60" height="60" fill="white"/>
</clipPath>
</defs>
</svg>
