<svg width="60" height="60" viewBox="0 0 60 60" fill="none" xmlns="http://www.w3.org/2000/svg">
<path d="M5.25 60H43.25C46.0103 59.9966 48.2466 57.7603 48.25 55V35.4141L57.957 25.707C59.2388 24.4248 61.0991 21.4351 58.957 19.293C56.8149 17.1509 53.8252 19.0098 52.543 20.293L48.25 24.5859V5C48.2466 2.23975 46.0103 0.00341798 43.25 0H5.25C2.48975 0.00341798 0.253418 2.23975 0.25 5V55C0.253418 57.7603 2.48975 59.9966 5.25 60ZM37.25 43.5859L34.6641 41L53.25 22.4141L55.8359 25L37.25 43.5859ZM33.5962 42.7612L35.4961 44.6548L32.2251 46.0298L33.5962 42.7612ZM57.543 20.707C58.3428 21.5068 57.7432 22.7271 57.1802 23.5161L54.7339 21.0698C55.5249 20.5122 56.7412 19.9058 57.543 20.707ZM2.25 5C2.25 3.34326 3.59326 2 5.25 2H43.25C44.9067 2 46.25 3.34326 46.25 5V26.5859L32.543 40.293C32.4604 40.3921 32.3882 40.499 32.3281 40.6128L29.4282 47.5132C29.271 47.8877 29.3564 48.3198 29.644 48.6069C29.9312 48.8936 30.3638 48.9785 30.7378 48.8208L37.6328 45.9209C37.7466 45.8608 37.8535 45.7886 37.9521 45.7061L46.25 37.4141V55C46.25 56.6567 44.9067 58 43.25 58H5.25C3.59326 58 2.25 56.6567 2.25 55V5Z" fill="#C159C8"/>
</svg>
