<svg width="60" height="60" viewBox="0 0 60 60" fill="none" xmlns="http://www.w3.org/2000/svg">
<path d="M51.2133 8.78672C45.5469 3.12047 38.0133 0 30 0C21.9867 0 14.4531 3.12047 8.78672 8.78672C3.12035 14.453 0 21.9867 0 30C0 38.0133 3.12047 45.5469 8.78672 51.2133C14.453 56.8796 21.9867 60 30 60C38.0133 60 45.5469 56.8795 51.2133 51.2133C56.8796 45.547 60 38.0133 60 30C60 21.9867 56.8795 14.4531 51.2133 8.78672ZM49.8874 49.8874C44.5753 55.1995 37.5124 58.125 30 58.125C22.4876 58.125 15.4247 55.1995 10.1126 49.8874C4.80047 44.5753 1.875 37.5124 1.875 30C1.875 22.4876 4.80047 15.4247 10.1126 10.1126C15.4247 4.80047 22.4876 1.875 30 1.875C37.5124 1.875 44.5753 4.80047 49.8874 10.1126C55.1995 15.4247 58.125 22.4876 58.125 30C58.125 37.5124 55.1995 44.5753 49.8874 49.8874Z" fill="#C159C8"/>
<path d="M5.625 30C5.625 16.5596 16.5596 5.625 30 5.625C34.8478 5.625 39.5304 7.04426 43.5416 9.72938C43.9718 10.0174 44.5541 9.90211 44.8422 9.4718C45.1302 9.0416 45.0149 8.4593 44.5846 8.17125C40.2637 5.27883 35.2205 3.75 30 3.75C22.9883 3.75 16.3964 6.48047 11.4384 11.4384C6.48047 16.3964 3.75 22.9883 3.75 30C3.75 36.4688 6.12352 42.6834 10.4334 47.4994C10.6186 47.7063 10.875 47.8117 11.1323 47.8117C11.3549 47.8117 11.5784 47.7329 11.7572 47.5727C12.143 47.2274 12.1759 46.6348 11.8305 46.249C7.82895 41.7773 5.625 36.0067 5.625 30Z" fill="#C159C8"/>
<path d="M51.8289 15.4156C51.5408 14.9853 50.9585 14.87 50.5283 15.1581C50.0981 15.4461 49.9827 16.0284 50.2707 16.4586C52.9557 20.4697 54.375 25.1523 54.375 30C54.375 43.4403 43.4403 54.375 30 54.375C24.4239 54.375 18.9731 52.4438 14.6521 48.9374C14.25 48.6111 13.6596 48.6725 13.3334 49.0746C13.0071 49.4767 13.0685 50.0671 13.4706 50.3933C18.1247 54.17 23.995 56.25 30 56.25C37.0117 56.25 43.6036 53.5195 48.5616 48.5615C53.5195 43.6036 56.25 37.0117 56.25 30C56.25 24.7796 54.7212 19.7363 51.8289 15.4156Z" fill="#C159C8"/>
<path d="M46.249 11.8307C46.8794 12.3947 47.4871 12.9984 48.0553 13.6246C48.2404 13.8285 48.4947 13.9321 48.7499 13.9321C48.9745 13.9321 49.2001 13.8517 49.3797 13.6888C49.763 13.3409 49.7918 12.7479 49.4439 12.3645C48.8322 11.6904 48.1779 11.0407 47.4994 10.4335C47.1136 10.0882 46.5209 10.1211 46.1756 10.5068C45.8304 10.8926 45.8631 11.4854 46.249 11.8307Z" fill="#C159C8"/>
<path d="M30 12.1875C30.5177 12.1875 30.9375 11.7677 30.9375 11.25V8.4375C30.9375 7.91977 30.5177 7.5 30 7.5C29.4823 7.5 29.0625 7.91977 29.0625 8.4375V11.25C29.0625 11.7677 29.4823 12.1875 30 12.1875Z" fill="#C159C8"/>
<path d="M29.0625 48.75V51.5625C29.0625 52.0802 29.4823 52.5 30 52.5C30.5177 52.5 30.9375 52.0802 30.9375 51.5625V48.75C30.9375 48.2323 30.5177 47.8125 30 47.8125C29.4823 47.8125 29.0625 48.2323 29.0625 48.75Z" fill="#C159C8"/>
<path d="M12.1875 30C12.1875 29.4823 11.7677 29.0625 11.25 29.0625H8.4375C7.91977 29.0625 7.5 29.4823 7.5 30C7.5 30.5177 7.91977 30.9375 8.4375 30.9375H11.25C11.7677 30.9375 12.1875 30.5177 12.1875 30Z" fill="#C159C8"/>
<path d="M47.8125 30C47.8125 30.5177 48.2323 30.9375 48.75 30.9375H51.5625C52.0802 30.9375 52.5 30.5177 52.5 30C52.5 29.4823 52.0802 29.0625 51.5625 29.0625H48.75C48.2323 29.0625 47.8125 29.4823 47.8125 30Z" fill="#C159C8"/>
<path d="M21.4369 13.2933L20.0306 10.8575C19.7718 10.409 19.1984 10.2556 18.75 10.5144C18.3016 10.7733 18.148 11.3467 18.4069 11.795L19.8131 14.2308C19.9868 14.5315 20.3019 14.6996 20.6259 14.6996C20.785 14.6996 20.9462 14.6591 21.0939 14.5739C21.5421 14.315 21.6957 13.7416 21.4369 13.2933Z" fill="#C159C8"/>
<path d="M40.1869 45.7691C39.928 45.3207 39.3545 45.1673 38.9063 45.4259C38.4579 45.6848 38.3043 46.2582 38.5631 46.7066L39.9694 49.1423C40.1431 49.443 40.4582 49.6112 40.7822 49.6112C40.9412 49.6112 41.1025 49.5706 41.2501 49.4854C41.6985 49.2266 41.8521 48.6532 41.5932 48.2048L40.1869 45.7691Z" fill="#C159C8"/>
<path d="M11.3272 41.7189C11.4863 41.7189 11.6475 41.6783 11.7952 41.5932L14.2309 40.1869C14.6793 39.928 14.8329 39.3546 14.574 38.9063C14.3152 38.4579 13.7417 38.3045 13.2934 38.5631L10.8577 39.9694C10.4093 40.2283 10.2557 40.8017 10.5145 41.25C10.6881 41.5507 11.0032 41.7189 11.3272 41.7189Z" fill="#C159C8"/>
<path d="M46.2388 21.5626C46.3978 21.5626 46.5591 21.5221 46.7067 21.4369L49.1425 20.0306C49.5908 19.7718 49.7445 19.1984 49.4856 18.75C49.2267 18.3017 48.6533 18.1483 48.205 18.4069L45.7692 19.8131C45.3209 20.072 45.1672 20.6454 45.4261 21.0938C45.5998 21.3945 45.9149 21.5626 46.2388 21.5626Z" fill="#C159C8"/>
<path d="M41.25 10.5143C40.8016 10.2553 40.2282 10.4089 39.9694 10.8574L38.5631 13.2931C38.3043 13.7415 38.4579 14.3149 38.9063 14.5737C39.0539 14.6591 39.215 14.6995 39.3742 14.6995C39.6982 14.6995 40.0133 14.5313 40.187 14.2306L41.5932 11.7949C41.852 11.3465 41.6984 10.7731 41.25 10.5143Z" fill="#C159C8"/>
<path d="M21.0937 45.426C20.6454 45.1672 20.072 45.3208 19.8131 45.7692L18.4069 48.2049C18.148 48.6533 18.3016 49.2267 18.75 49.4855C18.8977 49.5708 19.0588 49.6113 19.2179 49.6113C19.542 49.6113 19.8571 49.4431 20.0307 49.1424L21.437 46.7067C21.6957 46.2583 21.5421 45.6849 21.0937 45.426Z" fill="#C159C8"/>
<path d="M45.7692 40.1868L48.2049 41.5931C48.3526 41.6784 48.5137 41.7188 48.6729 41.7188C48.9969 41.7188 49.312 41.5506 49.4857 41.2499C49.7445 40.8016 49.5909 40.2282 49.1426 39.9693L46.7068 38.5631C46.2585 38.3041 45.6851 38.4578 45.4262 38.9062C45.1672 39.3545 45.3208 39.9279 45.7692 40.1868Z" fill="#C159C8"/>
<path d="M14.2308 19.8131L11.795 18.4068C11.3467 18.1478 10.7733 18.3016 10.5144 18.7499C10.2556 19.1983 10.4092 19.7717 10.8575 20.0306L13.2933 21.4368C13.4409 21.5221 13.6021 21.5625 13.7612 21.5625C14.0852 21.5625 14.4004 21.3944 14.574 21.0937C14.8328 20.6453 14.6791 20.0719 14.2308 19.8131Z" fill="#C159C8"/>
<path d="M36.5264 42.2403C36.6854 42.2403 36.8467 42.1998 36.9943 42.1146C37.4427 41.8557 37.5963 41.2823 37.3375 40.834L32.1367 31.8259C32.5575 31.3341 32.8125 30.6964 32.8125 30C32.8125 28.7779 32.0286 27.7357 30.9375 27.3488V15C30.9375 14.4823 30.5177 14.0625 30 14.0625C29.4823 14.0625 29.0625 14.4823 29.0625 15V27.3488C27.9714 27.7357 27.1875 28.7779 27.1875 30C27.1875 31.5509 28.4491 32.8125 30 32.8125C30.1754 32.8125 30.347 32.7955 30.5136 32.7647L35.7137 41.7715C35.8874 42.0722 36.2025 42.2403 36.5264 42.2403ZM29.0625 30C29.0625 29.4831 29.4831 29.0625 30 29.0625C30.5169 29.0625 30.9375 29.4831 30.9375 30C30.9375 30.5169 30.5169 30.9375 30 30.9375C29.4831 30.9375 29.0625 30.5169 29.0625 30Z" fill="#C159C8"/>
</svg>
