<svg width="60" height="60" viewBox="0 0 60 60" fill="none" xmlns="http://www.w3.org/2000/svg">
<g clip-path="url(#clip0)">
<path d="M59.8897 14.2277C59.6832 13.4598 59.1794 12.8051 58.49 12.4082C57.8002 12.0093 56.98 11.9014 56.2106 12.1079C55.4422 12.3149 54.7875 12.8183 54.3906 13.5076L53.8907 14.3776C53.4157 14.1047 52.8089 14.2653 52.5311 14.7379L49.9915 19.0667L49.1215 18.5668C48.8911 18.4335 48.6167 18.3974 48.3599 18.4667C48.1026 18.5365 47.8839 18.7055 47.7516 18.9369C47.4807 19.4148 47.6457 20.0221 48.1217 20.2965L48.9916 20.7964L40.4931 35.5239L38.3934 41.1333L37.3935 43.0026C36.8082 44.021 36.8707 45.2869 37.5537 46.2423L35.304 49.0016L34.6743 47.4222C34.3901 46.7183 33.7325 46.2359 32.9763 46.1768C32.2196 46.1173 31.4946 46.4912 31.1046 47.142L30.7448 47.7518L30.405 43.7525C30.3269 42.8063 29.5941 42.0457 28.6519 41.9315C27.7091 41.8177 26.8167 42.3826 26.5155 43.2828L24.056 50.6614C23.8841 51.1833 24.1653 51.7457 24.6857 51.9215C24.7834 51.9669 24.8883 51.9942 24.9957 52.0011C25.4254 52.0025 25.8081 51.7286 25.9458 51.3215L28.3951 43.9429L28.7451 48.0017C28.8174 48.8678 29.4398 49.5879 30.2863 49.7841C31.1329 49.9804 32.0087 49.6074 32.4544 48.8619L32.8245 48.2517L33.4445 49.8217C33.7076 50.4832 34.3027 50.9553 35.0072 51.0603C35.7117 51.1653 36.4186 50.8875 36.8638 50.3314L39.1935 47.3822C39.4513 47.4496 39.7169 47.4833 39.9834 47.4823C41.055 47.4906 42.05 46.9262 42.5928 46.0021L43.5927 44.3324L47.4021 39.7033L55.9905 24.7957L56.8604 25.2956C57.0923 25.4284 57.2612 25.6476 57.3301 25.9059C57.3994 26.1622 57.3633 26.4356 57.2305 26.6655L53.2312 33.5945C53.0803 33.822 53.029 34.1013 53.0896 34.3678C53.1501 34.6339 53.3166 34.8638 53.5509 35.004C53.7814 35.1377 54.0557 35.1738 54.3125 35.1045C54.5698 35.0347 54.7885 34.8658 54.9208 34.6344L58.9201 27.7054C59.319 27.0156 59.4269 26.1954 59.2199 25.426C59.0129 24.6576 58.5096 24.0029 57.8202 23.606L56.9503 23.1061L59.4498 18.7767C59.7227 18.3017 59.5621 17.6954 59.09 17.4171L59.5899 16.5471C59.9995 15.8466 60.1079 15.0098 59.8897 14.2277ZM56.1203 14.5074C56.2526 14.276 56.4723 14.1066 56.7306 14.0378C56.9874 13.9743 57.2588 14.01 57.4902 14.1379C57.7221 14.2702 57.891 14.4899 57.9603 14.7476C58.0238 15.0044 57.9882 15.2759 57.8603 15.5073L57.3603 16.3772L55.6204 15.3774L56.1203 14.5074ZM42.4928 42.4231L41.9928 42.1331L40.5131 41.2729L41.9328 37.4737L45.0822 39.2933L42.4928 42.4231ZM39.4933 45.3123C39.071 45.0179 38.9411 44.4516 39.1935 44.0024L39.6934 43.1329L41.4329 44.1328L40.933 44.9925C40.7929 45.2356 40.5575 45.4084 40.2837 45.4695C40.0098 45.53 39.7232 45.4734 39.4933 45.3123ZM46.2221 37.6539L42.7627 35.6542L50.7614 21.7962L54.2207 23.7959L46.2221 37.6539ZM55.2206 22.0662L51.7612 20.0666L53.7609 16.6072L57.2202 18.6068L55.2206 22.0662Z" fill="#C159C8"/>
<path d="M15.7771 44.8124L12.2381 48.3421L10.1184 46.2223C9.72832 45.8347 9.09855 45.8347 8.70848 46.2223C8.51906 46.4103 8.41263 46.6656 8.41263 46.9322C8.41263 47.1987 8.51906 47.4545 8.70848 47.642L10.8282 49.7618C11.2032 50.1338 11.7099 50.3422 12.2381 50.3417C12.7693 50.3447 13.2805 50.1362 13.6578 49.7618L17.187 46.2223C17.5268 45.8254 17.5039 45.2342 17.1348 44.8651C16.7652 44.4956 16.174 44.4726 15.7771 44.8124Z" fill="#C159C8"/>
<path d="M3.99933 47.5019C3.99933 52.196 7.80434 56.0005 12.4979 56.0005C17.1914 56.0005 20.9964 52.196 20.9964 47.5019C20.9964 46.9498 20.5488 46.5021 19.9966 46.5021C19.4445 46.5021 18.9968 46.9498 18.9968 47.5019C18.9968 51.0912 16.0871 54.0008 12.4979 54.0008C8.90865 54.0008 5.99899 51.0912 5.99899 47.5019C5.99899 43.9127 8.90865 41.003 12.4979 41.003C13.9049 40.9991 15.2743 41.4556 16.3971 42.3031C16.8389 42.6346 17.4658 42.5448 17.7968 42.103C18.1283 41.6611 18.0389 41.0348 17.5971 40.7033C15.0219 38.772 11.5762 38.4615 8.69726 39.9007C5.81787 41.3404 3.99933 44.2832 3.99933 47.5019Z" fill="#C159C8"/>
<path d="M35.9939 8.00869C36.546 8.00869 36.9937 7.5615 36.9937 7.00886C36.9937 6.45671 36.546 6.00903 35.9939 6.00903H9.99829C9.44614 6.00903 8.99846 6.45671 8.99846 7.00886V11.0082C8.99846 11.5608 9.44614 12.008 9.99829 12.008H35.9939C36.546 12.008 36.9937 11.5608 36.9937 11.0082C36.9937 10.456 36.546 10.0084 35.9939 10.0084H10.9981V8.00869H35.9939Z" fill="#C159C8"/>
<path d="M12.9978 14.0076C12.4456 14.0076 11.998 14.4552 11.998 15.0074C11.998 15.56 12.4456 16.0072 12.9978 16.0072H32.9944C33.5465 16.0072 33.9942 15.56 33.9942 15.0074C33.9942 14.4552 33.5465 14.0076 32.9944 14.0076H12.9978Z" fill="#C159C8"/>
<path d="M38.9933 21.0066H16.9971C16.4449 21.0066 15.9973 21.4543 15.9973 22.0064C15.9973 22.5591 16.4449 23.0063 16.9971 23.0063H38.9933C39.5455 23.0063 39.9932 22.5591 39.9932 22.0064C39.9932 21.4543 39.5455 21.0066 38.9933 21.0066Z" fill="#C159C8"/>
<path d="M28.9951 28.0052C28.9951 27.453 28.5474 27.0054 27.9952 27.0054H7.99864C7.44649 27.0054 6.99881 27.453 6.99881 28.0052C6.99881 28.5578 7.44649 29.005 7.99864 29.005H27.9952C28.5474 29.005 28.9951 28.5578 28.9951 28.0052Z" fill="#C159C8"/>
<path d="M38.9934 27.0054H31.9946C31.4424 27.0054 30.9947 27.453 30.9947 28.0052C30.9947 28.5578 31.4424 29.005 31.9946 29.005H38.9934C39.5455 29.005 39.9932 28.5578 39.9932 28.0052C39.9932 27.453 39.5455 27.0054 38.9934 27.0054Z" fill="#C159C8"/>
<path d="M17.9969 34.0041C18.5491 34.0041 18.9968 33.5569 18.9968 33.0042C18.9968 32.4521 18.5491 32.0044 17.9969 32.0044H7.99864C7.44649 32.0044 6.99881 32.4521 6.99881 33.0042C6.99881 33.5569 7.44649 34.0041 7.99864 34.0041H17.9969Z" fill="#C159C8"/>
<path d="M21.9963 34.0041H28.9951C29.5472 34.0041 29.9949 33.5569 29.9949 33.0042C29.9949 32.4521 29.5472 32.0044 28.9951 32.0044H21.9963C21.4441 32.0044 20.9964 32.4521 20.9964 33.0042C20.9964 33.5569 21.4441 34.0041 21.9963 34.0041Z" fill="#C159C8"/>
<path d="M44.9923 46.0014C44.4402 46.0014 43.9925 46.4491 43.9925 47.0013V56.9996C43.9925 57.5522 43.5448 57.9994 42.9927 57.9994H2.99949C2.44734 57.9994 1.99966 57.5522 1.99966 56.9996V3.00877C1.99966 2.45661 2.44734 2.00894 2.99949 2.00894H42.9927C43.5448 2.00894 43.9925 2.45661 43.9925 3.00877V21.7858C43.9925 22.338 44.4402 22.7857 44.9923 22.7857C45.5445 22.7857 45.9922 22.338 45.9922 21.7858V3.00877C45.9922 1.35231 44.6491 0.00927734 42.9927 0.00927734H2.99949C1.34303 0.00927734 0 1.35231 0 3.00877V56.9996C0 58.6565 1.34303 59.9991 2.99949 59.9991H42.9927C44.6491 59.9991 45.9922 58.6565 45.9922 56.9996V47.0013C45.9922 46.4491 45.5445 46.0014 44.9923 46.0014Z" fill="#C159C8"/>
</g>
<defs>
<clipPath id="clip0">
<rect width="60" height="60" fill="white"/>
</clipPath>
</defs>
</svg>
