<svg width="96" height="96" viewBox="0 0 96 96" fill="none" xmlns="http://www.w3.org/2000/svg">
<path d="M64.875 59.8125C63.8396 59.8125 63 60.6519 63 61.6875V74.625C63 79.7944 58.7944 84 53.625 84H33.381C32.3458 84 31.5068 84.8387 31.506 85.8737L31.5034 89.6016L27.0281 85.1265C26.7384 84.4614 26.0754 84 25.3086 84H13.125C7.95563 84 3.75 79.7944 3.75 74.625V45.75C3.75 40.5806 7.95563 36.375 13.125 36.375H32.0625C33.0979 36.375 33.9375 35.5356 33.9375 34.5C33.9375 33.4644 33.0979 32.625 32.0625 32.625H13.125C5.88788 32.625 0 38.5129 0 45.75V74.625C0 81.8621 5.88788 87.75 13.125 87.75H24.3484L32.0492 95.4508C32.4079 95.8095 32.8873 96 33.3754 96C33.6167 96 33.8602 95.9533 34.0918 95.8575C34.7925 95.5676 35.2494 94.8844 35.25 94.1263L35.2545 87.75H53.625C60.8621 87.75 66.75 81.8621 66.75 74.625V61.6875C66.75 60.6519 65.9104 59.8125 64.875 59.8125Z" fill="url(#paint0_linear)"/>
<path d="M68.7478 0H64.0024C48.9754 0 36.75 12.2254 36.75 27.2524C36.75 42.2794 48.9754 54.5046 64.0022 54.5046H68.7476C71.0931 54.5046 73.4145 54.2066 75.6645 53.6179L82.6746 60.624C83.0332 60.9823 83.5125 61.1728 84.0004 61.1728C84.2421 61.1728 84.4858 61.1261 84.7178 61.0299C85.4183 60.7397 85.875 60.0561 85.875 59.2978V48.4498C88.8429 46.0462 91.3084 43.0101 93.0386 39.6182C95.0038 35.7658 96 31.6054 96 27.2524C96 12.2254 83.7746 0 68.7478 0ZM82.8718 46.0378C82.4017 46.392 82.125 46.9466 82.125 47.5356V54.7731L77.5367 50.1872C77.1797 49.8306 76.7008 49.6384 76.2111 49.6384C76.0273 49.6384 75.8417 49.6656 75.6606 49.7212C73.4288 50.4071 71.103 50.7547 68.7478 50.7547H64.0024C51.0429 50.7547 40.5 40.2116 40.5 27.2524C40.5 14.2931 51.0431 3.75 64.0024 3.75H68.7478C81.7071 3.75 92.25 14.2931 92.25 27.2524C92.25 34.7019 88.8319 41.5491 82.8718 46.0378Z" fill="url(#paint1_linear)"/>
<path d="M74.819 20.5164C74.5484 16.5911 71.3842 13.4269 67.4587 13.1563C65.2334 13.0035 63.1098 13.7541 61.4844 15.2715C59.8812 16.7679 58.9619 18.8833 58.9619 21.0754C58.9619 22.1109 59.8015 22.9504 60.8369 22.9504C61.8723 22.9504 62.7119 22.1109 62.7119 21.0754C62.7119 19.9018 63.1848 18.8141 64.0432 18.0129C64.9008 17.2125 66.0217 16.8163 67.201 16.8977C69.2688 17.0402 70.9355 18.7069 71.078 20.7744C71.222 22.8626 69.8519 24.708 67.8205 25.1625C66.1747 25.5307 65.0253 26.961 65.0253 28.6404V33.1451C65.0253 34.1807 65.8649 35.0201 66.9003 35.0201C67.9358 35.0201 68.7753 34.1807 68.7751 33.1451V28.7903C72.5532 27.8775 75.088 24.4204 74.819 20.5164Z" fill="url(#paint2_linear)"/>
<path d="M68.226 39.2363C67.8773 38.8875 67.3935 38.6869 66.9004 38.6869C66.4073 38.6869 65.9235 38.8875 65.5748 39.2363C65.226 39.585 65.0254 40.0688 65.0254 40.5619C65.0254 41.0569 65.2262 41.5406 65.5748 41.8894C65.9235 42.2381 66.4073 42.4369 66.9004 42.4369C67.3935 42.4369 67.8773 42.2381 68.226 41.8894C68.5748 41.5388 68.7754 41.0569 68.7754 40.5619C68.7754 40.0688 68.5746 39.585 68.226 39.2363Z" fill="url(#paint3_linear)"/>
<path d="M51.5625 58.125H12C10.9646 58.125 10.125 58.9644 10.125 60C10.125 61.0356 10.9646 61.875 12 61.875H51.5625C52.5981 61.875 53.4375 61.0356 53.4375 60C53.4375 58.9644 52.5979 58.125 51.5625 58.125Z" fill="url(#paint4_linear)"/>
<path d="M52.8879 69.1744C52.5394 68.8256 52.0556 68.625 51.5625 68.625C51.0694 68.625 50.5856 68.8256 50.2369 69.1744C49.8879 69.5231 49.6875 70.0069 49.6875 70.5C49.6875 70.9931 49.8881 71.4769 50.2369 71.8256C50.5856 72.1744 51.0694 72.375 51.5625 72.375C52.0556 72.375 52.5394 72.1744 52.8879 71.8256C53.2369 71.4769 53.4375 70.995 53.4375 70.5C53.4375 70.0069 53.2367 69.5231 52.8879 69.1744Z" fill="url(#paint5_linear)"/>
<path d="M44.1876 68.625H12C10.9646 68.625 10.125 69.4644 10.125 70.5C10.125 71.5356 10.9646 72.375 12 72.375H44.1876C45.2231 72.375 46.0626 71.5356 46.0626 70.5C46.0626 69.4644 45.2229 68.625 44.1876 68.625Z" fill="url(#paint6_linear)"/>
<path d="M39.375 47.625H12C10.9646 47.625 10.125 48.4644 10.125 49.5C10.125 50.5356 10.9646 51.375 12 51.375H39.375C40.4106 51.375 41.25 50.5356 41.25 49.5C41.25 48.4644 40.4104 47.625 39.375 47.625Z" fill="url(#paint7_linear)"/>
<defs>
<linearGradient id="paint0_linear" x1="2.60319e-07" y1="64.3124" x2="66.75" y2="64.3124" gradientUnits="userSpaceOnUse">
<stop stop-color="#EC577C"/>
<stop offset="0.176598" stop-color="#C557C5"/>
<stop offset="0.415159" stop-color="#6E76FF"/>
<stop offset="1" stop-color="#3639C5"/>
</linearGradient>
<linearGradient id="paint1_linear" x1="36.75" y1="30.5863" x2="96" y2="30.5863" gradientUnits="userSpaceOnUse">
<stop stop-color="#EC577C"/>
<stop offset="0.176598" stop-color="#C557C5"/>
<stop offset="0.415159" stop-color="#6E76FF"/>
<stop offset="1" stop-color="#3639C5"/>
</linearGradient>
<linearGradient id="paint2_linear" x1="58.9619" y1="24.0784" x2="74.8385" y2="24.0784" gradientUnits="userSpaceOnUse">
<stop stop-color="#EC577C"/>
<stop offset="0.176598" stop-color="#C557C5"/>
<stop offset="0.415159" stop-color="#6E76FF"/>
<stop offset="1" stop-color="#3639C5"/>
</linearGradient>
<linearGradient id="paint3_linear" x1="65.0254" y1="40.5619" x2="68.7754" y2="40.5619" gradientUnits="userSpaceOnUse">
<stop stop-color="#EC577C"/>
<stop offset="0.176598" stop-color="#C557C5"/>
<stop offset="0.415159" stop-color="#6E76FF"/>
<stop offset="1" stop-color="#3639C5"/>
</linearGradient>
<linearGradient id="paint4_linear" x1="10.125" y1="60" x2="53.4375" y2="60" gradientUnits="userSpaceOnUse">
<stop stop-color="#EC577C"/>
<stop offset="0.176598" stop-color="#C557C5"/>
<stop offset="0.415159" stop-color="#6E76FF"/>
<stop offset="1" stop-color="#3639C5"/>
</linearGradient>
<linearGradient id="paint5_linear" x1="49.6875" y1="70.5" x2="53.4375" y2="70.5" gradientUnits="userSpaceOnUse">
<stop stop-color="#EC577C"/>
<stop offset="0.176598" stop-color="#C557C5"/>
<stop offset="0.415159" stop-color="#6E76FF"/>
<stop offset="1" stop-color="#3639C5"/>
</linearGradient>
<linearGradient id="paint6_linear" x1="10.125" y1="70.5" x2="46.0626" y2="70.5" gradientUnits="userSpaceOnUse">
<stop stop-color="#EC577C"/>
<stop offset="0.176598" stop-color="#C557C5"/>
<stop offset="0.415159" stop-color="#6E76FF"/>
<stop offset="1" stop-color="#3639C5"/>
</linearGradient>
<linearGradient id="paint7_linear" x1="10.125" y1="49.5" x2="41.25" y2="49.5" gradientUnits="userSpaceOnUse">
<stop stop-color="#EC577C"/>
<stop offset="0.176598" stop-color="#C557C5"/>
<stop offset="0.415159" stop-color="#6E76FF"/>
<stop offset="1" stop-color="#3639C5"/>
</linearGradient>
</defs>
</svg>
