<svg width="65" height="65" viewBox="0 0 65 65" fill="none" xmlns="http://www.w3.org/2000/svg">
<path d="M58.1882 15.532L59.6243 16.968L51.7969 24.7955L49.0476 22.0462L50.4837 20.6101L51.7969 21.9233L58.1882 15.532ZM63.9844 19.2969C63.9844 24.897 59.4283 29.4531 53.8281 29.4531C53.6372 29.4531 53.4503 29.4348 53.2614 29.4247L49.7656 32.9205V58.9062C49.7656 61.7063 47.4876 63.9844 44.6875 63.9844H6.09375C3.29367 63.9844 1.01562 61.7063 1.01562 58.9062V8.125C1.01562 5.32492 3.29367 3.04688 6.09375 3.04688H13.2031C13.2031 1.92664 14.1141 1.01562 15.2344 1.01562H19.2969C20.4171 1.01562 21.3281 1.92664 21.3281 3.04688H29.4531C29.4531 1.92664 30.3641 1.01562 31.4844 1.01562H35.5469C36.6671 1.01562 37.5781 1.92664 37.5781 3.04688H44.6875C47.4876 3.04688 49.7656 5.32492 49.7656 8.125V9.99477C51.0108 9.44836 52.3839 9.14062 53.8281 9.14062C59.4283 9.14062 63.9844 13.6967 63.9844 19.2969ZM37.5781 5.07812V7.10938H43.6719C44.7921 7.10938 45.7031 8.02039 45.7031 9.14062V13.2295C46.281 12.4577 46.9645 11.7721 47.7344 11.1922V8.125C47.7344 6.44516 46.3673 5.07812 44.6875 5.07812H37.5781ZM19.3334 52.8653C19.3101 52.9374 19.2969 53.0187 19.2969 53.0959C19.2959 53.5762 19.7915 53.949 20.2627 53.7895L27.5732 51.353L21.772 45.5518L19.3334 52.8653ZM25.3906 46.2983L45.9692 25.7197C45.1527 24.7223 44.5199 23.5676 44.1279 22.3082L22.7642 43.6719L25.3906 46.2983ZM31.4844 9.14062H35.5479L35.5469 3.04688H31.4844V9.14062ZM21.3281 5.07812V7.10938H29.4531V5.07812H21.3281ZM15.2344 9.14062H19.2979L19.2969 3.04688H15.2344V9.14062ZM15.2344 11.1719C14.1141 11.1719 13.2031 10.2609 13.2031 9.14062H7.10938V57.8906H35.5469V49.7656H43.6719V39.0142L30.0016 52.6845L20.9026 55.7172C20.6172 55.8116 20.3247 55.8594 20.0291 55.8594C18.5057 55.8594 17.2656 54.6193 17.2656 53.0959C17.2656 52.8003 17.3134 52.5078 17.4058 52.2255L20.4405 43.1234L43.7003 19.8636C43.6902 19.6747 43.6719 19.4878 43.6719 19.2969C43.6719 18.9698 43.6902 18.6469 43.7206 18.327H43.6719V9.14062H37.5781C37.5781 10.2609 36.6671 11.1719 35.5469 11.1719H31.4844C30.3641 11.1719 29.4531 10.2609 29.4531 9.14062H21.3281C21.3281 10.2609 20.4171 11.1719 19.2969 11.1719H15.2344ZM37.5781 51.7969V56.4545L42.2358 51.7969H37.5781ZM47.7344 34.9517L45.7031 36.983V51.2017L36.983 59.9219H7.10938C5.98914 59.9219 5.07812 59.0109 5.07812 57.8906V9.14062C5.07812 8.02039 5.98914 7.10938 7.10938 7.10938H13.2031V5.07812H6.09375C4.41391 5.07812 3.04688 6.44516 3.04688 8.125V58.9062C3.04688 60.5861 4.41391 61.9531 6.09375 61.9531H44.6875C46.3673 61.9531 47.7344 60.5861 47.7344 58.9062V34.9517ZM50.8168 28.9971C49.5574 28.6051 48.4027 27.9734 47.4053 27.1558L26.8267 47.7344L29.4531 50.3608L50.8168 28.9971ZM61.9531 19.2969C61.9531 14.817 58.308 11.1719 53.8281 11.1719C49.3482 11.1719 45.7031 14.817 45.7031 19.2969C45.7031 23.7768 49.3482 27.4219 53.8281 27.4219C58.308 27.4219 61.9531 23.7768 61.9531 19.2969ZM9.14062 13.2031H15.2344V19.2969H9.14062V13.2031ZM11.1719 17.2656H13.2031V15.2344H11.1719V17.2656ZM9.14062 21.3281H15.2344V27.4219H9.14062V21.3281ZM11.1719 25.3906H13.2031V23.3594H11.1719V25.3906ZM9.14062 29.4531H15.2344V35.5469H9.14062V29.4531ZM11.1719 33.5156H13.2031V31.4844H11.1719V33.5156ZM9.14062 37.5781H15.2344V43.6719H9.14062V37.5781ZM11.1719 41.6406H13.2031V39.6094H11.1719V41.6406ZM9.14062 45.7031H15.2344V51.7969H9.14062V45.7031ZM11.1719 49.7656H13.2031V47.7344H11.1719V49.7656ZM41.6406 13.2031H17.2656V15.2344H41.6406V13.2031ZM41.6406 17.2656H17.2656V19.2969H41.6406V17.2656ZM29.4531 21.3281H17.2656V23.3594H29.4531V21.3281ZM29.4531 25.3906H17.2656V27.4219H29.4531V25.3906ZM27.4219 29.4531H17.2656V31.4844H27.4219V29.4531ZM27.4219 33.5156H17.2656V35.5469H27.4219V33.5156Z" fill="url(#paint0_linear)"/>
<defs>
<linearGradient id="paint0_linear" x1="1.01563" y1="32.4999" x2="63.9844" y2="32.4999" gradientUnits="userSpaceOnUse">
<stop stop-color="#EC577C"/>
<stop offset="0.176598" stop-color="#C557C5"/>
<stop offset="0.415159" stop-color="#6E76FF"/>
<stop offset="1" stop-color="#3639C5"/>
</linearGradient>
</defs>
</svg>
