<svg width="65" height="65" viewBox="0 0 65 65" fill="none" xmlns="http://www.w3.org/2000/svg">
<g clip-path="url(#clip0)">
<path d="M56.1623 13.0781L56.078 12.9934C55.5821 12.4978 54.7785 12.4978 54.2825 12.9934C53.7867 13.4891 53.7867 14.293 54.2825 14.7889L54.3586 14.8651C54.6068 15.1157 54.9336 15.2411 55.2605 15.2411C55.5835 15.2411 55.9066 15.1187 56.154 14.8734C56.6522 14.38 56.6558 13.5762 56.1623 13.0781Z" fill="url(#paint0_linear)"/>
<path d="M60.114 17.975C59.7325 17.3868 58.9463 17.2191 58.3581 17.601C57.7698 17.9826 57.6025 18.7689 57.9841 19.357C65.1033 30.3298 63.5466 45.0178 54.2827 54.2817C49.0081 59.5561 41.9954 62.4609 34.5361 62.4609C27.0769 62.4609 20.0641 59.5561 14.7897 54.2816C9.51518 49.0072 6.61037 41.9944 6.61037 34.5352C6.61037 31.3239 7.15004 28.1958 8.1842 25.253L30.6432 47.7119C30.8196 47.8909 31.0466 48.0149 31.2965 48.0653L39.2674 49.6732C39.2705 49.6738 39.2735 49.6744 39.2766 49.675L50.4305 51.9249C50.5141 51.9417 50.5981 51.95 50.6816 51.95C51.0149 51.95 51.3389 51.8186 51.5793 51.5781C51.8799 51.2774 52.0102 50.8461 51.926 50.4293L49.6753 39.2718C49.6746 39.2686 49.674 39.2654 49.6734 39.2623L48.0663 31.2954C48.0159 31.0455 47.8939 30.8272 47.726 30.657C47.7213 30.6522 47.7177 30.6468 47.7128 30.6421L25.2509 8.1802C32.9365 5.46214 41.6367 6.18133 48.9827 10.6285C49.5827 10.9917 50.3631 10.7996 50.7262 10.2C51.0893 9.60017 50.8975 8.81954 50.2976 8.45645C44.5715 4.98974 37.7351 3.50274 31.0469 4.26967C28.3437 4.57956 25.7413 5.23337 23.2789 6.20837L17.4425 0.371824C17.0749 0.0042951 16.5206 -0.102092 16.0432 0.103319C12.4955 1.6293 9.30177 3.79816 6.55044 6.54949C3.79924 9.30069 1.63037 12.4945 0.104271 16.0422C-0.101012 16.5196 0.00537435 17.074 0.372777 17.4416L6.21135 23.2801C4.80776 26.8144 4.07143 30.618 4.07143 34.5353C4.07143 42.6727 7.24031 50.3231 12.9943 56.0771C18.7484 61.8311 26.3987 65 34.5361 65C42.6736 65 50.3239 61.8311 56.078 56.0771C61.0406 51.1145 64.1559 44.5424 64.8502 37.5713C65.5348 30.697 63.8528 23.7377 60.114 17.975ZM49.0592 49.0582L41.3903 47.5113C42.0982 46.2386 42.9803 45.0701 44.0257 44.0247C45.0709 42.9793 46.2395 42.0973 47.5123 41.3894L49.0592 49.0582ZM46.9891 38.7957C45.2328 39.6732 43.6352 40.8244 42.2302 42.2293C40.8254 43.6343 39.674 45.2319 38.7965 46.9881L33.3693 45.8933C34.7083 43.2075 36.4676 40.7641 38.6165 38.6153C40.7652 36.4665 43.2085 34.7071 45.8942 33.3682L46.9891 38.7957ZM44.6363 31.1564C41.7543 32.6097 39.1316 34.5094 36.8209 36.8199C34.5105 39.1305 32.6106 41.7532 31.1574 44.6354L9.2256 22.7036C10.5854 19.7996 12.4549 17.1235 14.7897 14.7887C17.1442 12.4343 19.8287 10.575 22.705 9.22515L44.6363 31.1564ZM2.78679 16.2647C4.15953 13.3247 6.02676 10.6639 8.34594 8.34474C10.6651 6.02556 13.3259 4.15833 16.2658 2.78571L20.8014 7.32137C17.9497 8.76292 15.3232 10.6645 12.9945 12.9932C10.6698 15.3179 8.76768 17.9524 7.32537 20.8032L2.78679 16.2647Z" fill="url(#paint1_linear)"/>
<path d="M24.6766 28.5808L16.7614 20.6657C16.2656 20.1699 15.4619 20.1699 14.9659 20.6657C14.4703 21.1616 14.4703 21.9654 14.9661 22.4612L22.8812 30.3763C23.1291 30.6243 23.454 30.7482 23.7789 30.7482C24.1038 30.7482 24.4286 30.6243 24.6766 30.3763C25.1723 29.8806 25.1723 29.0767 24.6766 28.5808Z" fill="url(#paint2_linear)"/>
<path d="M28.1643 32.0693L28.1538 32.0587C27.6596 31.5616 26.8557 31.5592 26.3583 32.0534C25.8612 32.5478 25.8587 33.3516 26.3531 33.8488L26.3636 33.8593C26.6117 34.1089 26.9377 34.2338 27.264 34.2338C27.5877 34.2338 27.9115 34.1108 28.1591 33.8646C28.6563 33.3703 28.6587 32.5664 28.1643 32.0693Z" fill="url(#paint3_linear)"/>
</g>
<defs>
<linearGradient id="paint0_linear" x1="53.9106" y1="13.9314" x2="56.53" y2="13.9314" gradientUnits="userSpaceOnUse">
<stop stop-color="#EC577C"/>
<stop offset="0.176598" stop-color="#C557C5"/>
<stop offset="0.415159" stop-color="#6E76FF"/>
<stop offset="1" stop-color="#3639C5"/>
</linearGradient>
<linearGradient id="paint1_linear" x1="0.000976816" y1="32.4998" x2="64.9997" y2="32.4998" gradientUnits="userSpaceOnUse">
<stop stop-color="#EC577C"/>
<stop offset="0.176598" stop-color="#C557C5"/>
<stop offset="0.415159" stop-color="#6E76FF"/>
<stop offset="1" stop-color="#3639C5"/>
</linearGradient>
<linearGradient id="paint2_linear" x1="14.5942" y1="25.521" x2="25.0484" y2="25.521" gradientUnits="userSpaceOnUse">
<stop stop-color="#EC577C"/>
<stop offset="0.176598" stop-color="#C557C5"/>
<stop offset="0.415159" stop-color="#6E76FF"/>
<stop offset="1" stop-color="#3639C5"/>
</linearGradient>
<linearGradient id="paint3_linear" x1="25.9839" y1="32.9591" x2="28.5336" y2="32.9591" gradientUnits="userSpaceOnUse">
<stop stop-color="#EC577C"/>
<stop offset="0.176598" stop-color="#C557C5"/>
<stop offset="0.415159" stop-color="#6E76FF"/>
<stop offset="1" stop-color="#3639C5"/>
</linearGradient>
<clipPath id="clip0">
<rect width="65" height="65" fill="white"/>
</clipPath>
</defs>
</svg>
