<svg width="65" height="65" viewBox="0 0 65 65" fill="none" xmlns="http://www.w3.org/2000/svg">
<g clip-path="url(#clip0)">
<path d="M12.3268 45.9397H30.7925C31.4987 45.9397 32.0715 45.3669 32.0715 44.6607C32.0715 43.9541 31.4987 43.3818 30.7925 43.3818H12.3268C11.6201 43.3818 11.0474 43.9541 11.0474 44.6607C11.0474 45.3669 11.6201 45.9397 12.3268 45.9397Z" fill="url(#paint0_linear)"/>
<path d="M10.98 34.3716H10.9547C10.2486 34.3716 9.67578 34.9444 9.67578 35.6505C9.67578 36.3572 10.2486 36.93 10.9547 36.93H10.98C11.6867 36.93 12.259 36.3572 12.259 35.6505C12.259 34.9444 11.6867 34.3716 10.98 34.3716Z" fill="url(#paint1_linear)"/>
<path d="M14.6602 34.3716H14.6349C13.9287 34.3716 13.356 34.9444 13.356 35.6505C13.356 36.3572 13.9287 36.93 14.6349 36.93H14.6602C15.3664 36.93 15.9392 36.3572 15.9392 35.6505C15.9392 34.9444 15.3664 34.3716 14.6602 34.3716Z" fill="url(#paint2_linear)"/>
<path d="M18.3149 34.3716H18.2931C17.5864 34.3716 17.0142 34.9444 17.0142 35.6505C17.0142 36.3572 17.5864 36.93 18.2931 36.93H18.3149C19.0211 36.93 19.5939 36.3572 19.5939 35.6505C19.5939 34.9444 19.0211 34.3716 18.3149 34.3716Z" fill="url(#paint3_linear)"/>
<path d="M56.9281 9.20807C51.724 4.00696 44.8045 1.14258 37.4447 1.14258C30.9607 1.14258 24.6621 3.43765 19.709 7.60578C19.1684 8.06053 19.099 8.86738 19.5538 9.40792C20.0085 9.94797 20.8154 10.0179 21.3559 9.56264C23.8404 7.47238 26.6988 5.90233 29.7522 4.91547C28.7365 6.00498 27.7893 7.31865 26.9304 8.84357C25.9044 10.666 25.036 12.7345 24.3413 14.9795C22.1771 15.6321 20.1642 16.4494 18.3512 17.4233C16.55 18.3913 15.0152 19.4744 13.767 20.6502C14.1865 19.4164 14.7038 18.2123 15.3197 17.0444C15.649 16.4196 15.4094 15.646 14.7846 15.3167C14.1597 14.9869 13.3861 15.2269 13.0568 15.8518C11.4744 18.8535 10.4771 22.0695 10.0819 25.4268H4.48006C2.00993 25.4268 0 27.4358 0 29.9049V53.1591C0 55.6308 2.00993 57.6412 4.48006 57.6412H15.5637L14.8738 61.3H10.2654C9.55868 61.3 8.9859 61.8728 8.9859 62.5795C8.9859 63.2856 9.55868 63.8584 10.2654 63.8584H32.8506C33.5568 63.8584 34.1296 63.2856 34.1296 62.5795C34.1296 61.8728 33.5568 61.3 32.8506 61.3H28.2446L27.5528 57.6412H38.6354C40.1177 57.6412 41.4333 56.9181 42.2501 55.8073C48.4594 54.7128 54.1366 51.4929 58.2898 46.6959C62.6167 41.6977 65 35.3004 65 28.683C65 21.3261 62.1336 14.4097 56.9281 9.20807ZM46.754 27.4035H42.3518C41.5553 26.2272 40.2144 25.4477 38.6924 25.4283L38.7192 18.8977C40.1916 18.4781 41.3674 17.3509 41.8549 15.9083C44.1683 16.127 46.3979 16.5173 48.4862 17.0613C49.0912 19.3142 49.5206 21.7432 49.7512 24.2723C48.3067 24.7573 47.176 25.9322 46.754 27.4035ZM43.1189 29.9619H46.754C47.176 31.4333 48.3062 32.6081 49.7512 33.0931C49.5192 35.6381 49.0877 38.0661 48.4882 40.3036C46.7991 40.7455 45.0004 41.0897 43.1189 41.3213V29.9619ZM49.1328 28.683C49.1328 27.528 50.0731 26.5882 51.2291 26.5882C52.385 26.5882 53.3253 27.528 53.3253 28.683C53.3253 29.8375 52.385 30.7772 51.2291 30.7772C50.0731 30.7772 49.1328 29.8375 49.1328 28.683ZM52.3087 33.2072C53.9417 32.8179 55.2435 31.5657 55.7032 29.9619H62.3141C61.5514 33.8206 57.3858 37.2905 51.3382 39.4318C51.7919 37.4437 52.1177 35.3555 52.3087 33.2072ZM55.7032 27.4035C55.2435 25.7998 53.9417 24.5476 52.3087 24.1578C52.1172 22.006 51.7884 19.9163 51.3347 17.9296C53.2152 18.5942 54.937 19.3956 56.446 20.3189C59.7657 22.3512 61.8034 24.8283 62.3137 27.4035H55.7032ZM61.1205 20.6626C60.1698 19.7635 59.0545 18.917 57.7815 18.1374C55.6918 16.858 53.24 15.7967 50.5472 14.9854C49.7894 12.5366 48.8269 10.3011 47.6853 8.37345C46.8983 7.04441 46.0403 5.88646 45.1269 4.90902C52.627 7.33551 58.5879 13.214 61.1205 20.6626ZM38.7237 3.83884C41.1765 4.3655 43.539 6.3913 45.4844 9.6767C46.2868 11.0325 46.9935 12.5599 47.595 14.2197C45.7909 13.8215 43.9069 13.5294 41.9729 13.3514C41.5846 11.7154 40.3314 10.4121 38.7237 9.95193V3.83884ZM39.5414 14.4241C39.5414 15.579 38.6007 16.5183 37.4447 16.5183C36.2893 16.5183 35.3485 15.579 35.3485 14.4241C35.3485 13.2691 36.2893 12.3298 37.4447 12.3298C38.6007 12.3298 39.5414 13.2691 39.5414 14.4241ZM29.1595 10.0987C31.1531 6.55792 33.6024 4.38435 36.1658 3.83835V9.95193C34.559 10.4116 33.3054 11.7149 32.9171 13.3499C30.9731 13.5275 29.0921 13.8186 27.2929 14.2138C27.831 12.73 28.4554 11.3494 29.1595 10.0987ZM26.3973 17.0673C28.495 16.5198 30.7316 16.1275 33.0351 15.9088C33.5216 17.3479 34.6934 18.4732 36.1613 18.8952L36.135 25.4268H25.046C25.2414 22.4836 25.7011 19.6604 26.3973 17.0673ZM19.5622 19.6767C20.7792 19.0226 22.1181 18.4394 23.5503 17.9351C23.0088 20.308 22.6468 22.8273 22.4821 25.4268H13.2745C14.375 23.2959 16.548 21.2964 19.5622 19.6767ZM17.4769 61.3L18.1667 57.6412H24.9493L25.6411 61.3H17.4769ZM40.561 53.1591C40.561 53.4745 40.4832 53.7711 40.3483 54.0339C40.3369 54.0548 40.325 54.0756 40.3151 54.0969C39.9853 54.6846 39.3565 55.0828 38.6354 55.0828H4.48006C3.4203 55.0828 2.55791 54.2199 2.55791 53.1591V51.3188H40.561V53.1591ZM34.8709 40.8219L34.8719 48.7609H8.24501C8.24501 48.7604 8.24501 48.7599 8.24501 48.7594L8.246 40.8219H34.8709ZM8.2465 38.2635L8.24749 32.9071L34.8705 32.9086L34.8709 38.2635H8.2465ZM40.561 48.7609H37.4284C37.4284 48.7604 37.4284 48.7599 37.4284 48.7594V32.9086C37.4284 31.4973 36.2813 30.3492 34.8719 30.3492H8.24749C6.83563 30.3492 5.6871 31.4973 5.6871 32.9086V48.7594V48.7609H2.55791V29.9049C2.55791 28.8461 3.4203 27.9847 4.48006 27.9847H11.2413H11.2428H11.2443H11.4154C11.4169 27.9847 11.4183 27.9852 11.4203 27.9852C11.4228 27.9852 11.4253 27.9847 11.4278 27.9847H38.6354C39.4219 27.9847 40.0993 28.4583 40.3979 29.1343C40.4068 29.1586 40.4162 29.1824 40.4271 29.2062C40.5124 29.4229 40.561 29.6584 40.561 29.9054V48.7609ZM43.1189 43.8985C44.6528 43.7195 46.1514 43.4676 47.5985 43.1482C46.4425 46.3498 44.9107 49.0138 43.1189 50.868V43.8985ZM45.1289 52.4589C46.6954 50.7798 48.0865 48.5809 49.231 45.9526C49.7225 44.8239 50.1609 43.6282 50.5467 42.3805C53.3927 41.5231 55.9675 40.387 58.1242 39.0158C59.2385 38.3071 60.2269 37.5449 61.0828 36.7395C58.5388 44.0874 52.63 50.0175 45.1289 52.4589Z" fill="url(#paint4_linear)"/>
<path d="M16.2608 13.3494C16.4974 13.5393 16.7805 13.6321 17.0617 13.6321C17.4356 13.6321 17.8066 13.4689 18.059 13.1545L18.0739 13.1367C18.5167 12.5862 18.4294 11.7813 17.8795 11.3385C17.329 10.8951 16.5237 10.9824 16.0808 11.5329L16.0664 11.5507C15.6236 12.1012 15.7104 12.9066 16.2608 13.3494Z" fill="url(#paint5_linear)"/>
</g>
<defs>
<linearGradient id="paint0_linear" x1="11.0474" y1="44.6607" x2="32.0715" y2="44.6607" gradientUnits="userSpaceOnUse">
<stop stop-color="#EC577C"/>
<stop offset="0.176598" stop-color="#C557C5"/>
<stop offset="0.415159" stop-color="#6E76FF"/>
<stop offset="1" stop-color="#3639C5"/>
</linearGradient>
<linearGradient id="paint1_linear" x1="9.67578" y1="35.6508" x2="12.259" y2="35.6508" gradientUnits="userSpaceOnUse">
<stop stop-color="#EC577C"/>
<stop offset="0.176598" stop-color="#C557C5"/>
<stop offset="0.415159" stop-color="#6E76FF"/>
<stop offset="1" stop-color="#3639C5"/>
</linearGradient>
<linearGradient id="paint2_linear" x1="13.356" y1="35.6508" x2="15.9392" y2="35.6508" gradientUnits="userSpaceOnUse">
<stop stop-color="#EC577C"/>
<stop offset="0.176598" stop-color="#C557C5"/>
<stop offset="0.415159" stop-color="#6E76FF"/>
<stop offset="1" stop-color="#3639C5"/>
</linearGradient>
<linearGradient id="paint3_linear" x1="17.0142" y1="35.6508" x2="19.5939" y2="35.6508" gradientUnits="userSpaceOnUse">
<stop stop-color="#EC577C"/>
<stop offset="0.176598" stop-color="#C557C5"/>
<stop offset="0.415159" stop-color="#6E76FF"/>
<stop offset="1" stop-color="#3639C5"/>
</linearGradient>
<linearGradient id="paint4_linear" x1="2.53494e-07" y1="32.5004" x2="65" y2="32.5004" gradientUnits="userSpaceOnUse">
<stop stop-color="#EC577C"/>
<stop offset="0.176598" stop-color="#C557C5"/>
<stop offset="0.415159" stop-color="#6E76FF"/>
<stop offset="1" stop-color="#3639C5"/>
</linearGradient>
<linearGradient id="paint5_linear" x1="15.7837" y1="12.3438" x2="18.3564" y2="12.3438" gradientUnits="userSpaceOnUse">
<stop stop-color="#EC577C"/>
<stop offset="0.176598" stop-color="#C557C5"/>
<stop offset="0.415159" stop-color="#6E76FF"/>
<stop offset="1" stop-color="#3639C5"/>
</linearGradient>
<clipPath id="clip0">
<rect width="65" height="65" fill="white"/>
</clipPath>
</defs>
</svg>
