<svg width="66" height="66" viewBox="0 0 66 66" fill="none" xmlns="http://www.w3.org/2000/svg">
<path d="M65.6408 14.2307C65.6349 14.1346 65.6161 14.039 65.5844 13.9482C65.5726 13.9127 65.5634 13.8789 65.5484 13.8445C65.4947 13.7248 65.42 13.6157 65.3282 13.5223L52.1282 0.322266C52.0347 0.229883 51.9251 0.155225 51.8048 0.102051C51.7721 0.0870117 51.7388 0.0778808 51.7049 0.0660645C51.6115 0.0338379 51.5148 0.014502 51.4165 0.00859375C51.3977 0.0123535 51.3778 0 51.3547 0H18.3547C15.319 0.00375977 12.8585 2.46372 12.8547 5.5V13.5958C5.29277 16.9308 0.412598 24.4159 0.412598 32.681C0.412598 40.946 5.29277 48.4312 12.8547 51.7661V60.5C12.8585 63.5363 15.319 65.9962 18.3547 66H60.1547C63.191 65.9962 65.6515 63.5363 65.6547 60.5V14.3C65.6547 14.2758 65.6429 14.2549 65.6408 14.2307ZM61.8993 13.2H53.5547C52.9473 13.2 52.4547 12.7075 52.4547 12.1V3.75547L61.8993 13.2ZM2.63569 32.681C2.62925 27.7191 4.59722 22.9593 8.10561 19.4509C11.614 15.9425 16.3744 13.9745 21.3357 13.981C21.9609 13.981 22.5812 14.0116 23.1936 14.0712C31.6992 14.9118 38.5447 21.4269 39.8047 29.8805C39.9508 30.807 40.0276 31.7432 40.0346 32.681C40.0427 36.2039 39.0469 39.6559 37.1648 42.6336C35.6722 45.013 33.6607 47.0239 31.2808 48.5155C25.5182 52.1345 18.2446 52.3376 12.2892 49.0451C6.33369 45.7531 2.63677 39.4856 2.63569 32.681ZM34.1114 49.2051C34.2618 49.0886 34.4105 48.9731 34.5577 48.8533C35.1007 48.4161 35.6207 47.9515 36.1164 47.4617C36.6062 46.9659 37.0708 46.4465 37.5081 45.9041C37.6278 45.7569 37.7433 45.607 37.8599 45.4566C37.9931 45.2826 38.1375 45.1177 38.2648 44.9405L47.6422 54.3292C48.2631 54.9441 48.6128 55.782 48.6128 56.6559C48.6128 57.5303 48.2631 58.3677 47.6422 58.9832C46.3435 60.2384 44.2837 60.2384 42.985 58.9832L33.5952 49.6101C33.7725 49.4812 33.9384 49.3383 34.1114 49.2051ZM60.1547 63.8H18.3547C16.5323 63.8 15.0547 62.3224 15.0547 60.5V52.6249C15.1229 52.6469 15.1944 52.6614 15.2637 52.6824C15.4398 52.7361 15.6182 52.7791 15.7965 52.8285C16.2079 52.9386 16.6226 53.0487 17.0415 53.1309C17.2472 53.1738 17.4529 53.2136 17.6608 53.2501C18.0797 53.3237 18.5024 53.3817 18.9268 53.4306C19.1164 53.4521 19.3033 53.4789 19.4934 53.495C20.103 53.5471 20.7164 53.581 21.3357 53.581C24.9719 53.5836 28.5448 52.6319 31.6971 50.8202L41.423 60.5365C42.7878 62.0302 44.8632 62.6543 46.8253 62.1602C48.7879 61.6666 50.3208 60.1353 50.816 58.1732C51.3118 56.2112 50.6898 54.1353 49.1966 52.7694L39.4749 43.0418C41.2866 39.8895 42.2389 36.3167 42.2357 32.681C42.2357 31.9843 42.2024 31.2931 42.1347 30.6077C41.6653 25.8017 39.5378 21.3093 36.1175 17.9013C32.2057 13.9686 26.883 11.7648 21.3357 11.781C20.7164 11.781 20.103 11.8153 19.4934 11.8669C19.3033 11.8835 19.1147 11.9099 18.9257 11.9319C18.5024 11.9792 18.0819 12.0393 17.6629 12.1124C17.454 12.1489 17.2456 12.1886 17.0383 12.2321C16.6247 12.3181 16.2144 12.419 15.8072 12.5313C15.6246 12.5807 15.442 12.6248 15.2572 12.6795C15.189 12.7005 15.1197 12.715 15.0515 12.737V5.5C15.0515 3.67759 16.5291 2.2 18.3515 2.2H50.2547V12.1C50.2547 13.9224 51.7323 15.4 53.5547 15.4H63.4547V60.5C63.4547 62.3224 61.9777 63.8 60.1547 63.8Z" fill="url(#paint0_linear)"/>
<path d="M45.8546 7.69998C45.8546 7.0925 45.3621 6.59998 44.7546 6.59998H20.5546C19.9471 6.59998 19.4546 7.0925 19.4546 7.69998C19.4546 8.30745 19.9471 8.79998 20.5546 8.79998H44.7546C45.3621 8.79998 45.8546 8.30745 45.8546 7.69998Z" fill="url(#paint1_linear)"/>
<path d="M57.9548 26.4H44.7548C44.1473 26.4 43.6548 26.8926 43.6548 27.5C43.6548 28.1075 44.1473 28.6 44.7548 28.6H57.9548C58.5623 28.6 59.0548 28.1075 59.0548 27.5C59.0548 26.8926 58.5623 26.4 57.9548 26.4Z" fill="url(#paint2_linear)"/>
<path d="M57.9548 33H44.7548C44.1473 33 43.6548 33.4925 43.6548 34.1C43.6548 34.7075 44.1473 35.2 44.7548 35.2H57.9548C58.5623 35.2 59.0548 34.7075 59.0548 34.1C59.0548 33.4925 58.5623 33 57.9548 33Z" fill="url(#paint3_linear)"/>
<path d="M59.0547 40.7C59.0547 40.0925 58.5622 39.6 57.9547 39.6H43.6547C43.0472 39.6 42.5547 40.0925 42.5547 40.7C42.5547 41.3074 43.0472 41.8 43.6547 41.8H57.9547C58.5622 41.8 59.0547 41.3074 59.0547 40.7Z" fill="url(#paint4_linear)"/>
<path d="M59.0546 47.3C59.0546 46.6925 58.5621 46.2 57.9546 46.2H48.0546C47.4471 46.2 46.9546 46.6925 46.9546 47.3C46.9546 47.9075 47.4471 48.4 48.0546 48.4H57.9546C58.5621 48.4 59.0546 47.9075 59.0546 47.3Z" fill="url(#paint5_linear)"/>
<path d="M45.8545 14.3C45.8545 13.6925 45.362 13.2 44.7545 13.2H35.9545C35.347 13.2 34.8545 13.6925 34.8545 14.3C34.8545 14.9075 35.347 15.4 35.9545 15.4H44.7545C45.362 15.4 45.8545 14.9075 45.8545 14.3Z" fill="url(#paint6_linear)"/>
<path d="M59.0545 20.9C59.0545 20.2925 58.562 19.8 57.9545 19.8H41.4545C40.847 19.8 40.3545 20.2925 40.3545 20.9C40.3545 21.5075 40.847 22 41.4545 22H57.9545C58.562 22 59.0545 21.5075 59.0545 20.9Z" fill="url(#paint7_linear)"/>
<path d="M17.2548 27.5H24.9548C25.5623 27.5 26.0548 27.0075 26.0548 26.4C26.0548 25.7925 25.5623 25.3 24.9548 25.3H17.2548C16.6473 25.3 16.1548 25.7925 16.1548 26.4C16.1548 27.0075 16.6473 27.5 17.2548 27.5Z" fill="url(#paint8_linear)"/>
<path d="M30.4549 33C30.4549 32.3926 29.9624 31.9 29.3549 31.9H12.8549C12.2474 31.9 11.7549 32.3926 11.7549 33C11.7549 33.6075 12.2474 34.1 12.8549 34.1H29.3549C29.9624 34.1 30.4549 33.6075 30.4549 33Z" fill="url(#paint9_linear)"/>
<path d="M24.9548 38.5H17.2548C16.6473 38.5 16.1548 38.9925 16.1548 39.6C16.1548 40.2075 16.6473 40.7 17.2548 40.7H24.9548C25.5623 40.7 26.0548 40.2075 26.0548 39.6C26.0548 38.9925 25.5623 38.5 24.9548 38.5Z" fill="url(#paint10_linear)"/>
<path d="M29.1657 47.1899C31.8485 45.7612 34.0733 43.6031 35.5831 40.9654C35.6701 40.8134 35.7646 40.6662 35.8463 40.512C35.8887 40.4326 35.922 40.3504 35.9628 40.2709C36.1298 39.9497 36.2926 39.6285 36.4365 39.2998C36.581 38.9711 36.6943 38.6585 36.812 38.3351C36.8458 38.2417 36.8888 38.1504 36.9221 38.0558C39.7193 29.9213 35.7984 21.0021 27.9137 17.564C20.0284 14.126 10.825 17.3229 6.76875 24.9085C5.49204 27.2981 4.8271 29.967 4.83354 32.6767C4.82334 38.4904 7.87681 43.8792 12.8692 46.858C17.8617 49.8373 24.054 49.9657 29.1657 47.1964V47.1899ZM14.4806 45.23C13.2834 44.5774 12.1866 43.7557 11.2235 42.7899C10.5554 42.1223 9.95435 41.3913 9.42851 40.6066C9.16855 40.2177 8.92954 39.8186 8.70986 39.4088C5.39912 33.1574 7.15332 25.4246 12.8376 21.2142C18.5218 17.0038 26.4302 17.5796 31.4452 22.5688C35.8865 27.0521 36.8856 33.9077 33.9089 39.4722V39.4813C32.5973 41.9354 30.5863 43.9447 28.1317 45.2553C23.8735 47.5686 18.7318 47.5605 14.4806 45.2343V45.23Z" fill="url(#paint11_linear)"/>
<path d="M60.1546 52.8C59.5471 52.8 59.0546 53.2925 59.0546 53.9V58.3C59.0546 58.9075 58.5621 59.4 57.9546 59.4H53.5546C52.9471 59.4 52.4546 59.8925 52.4546 60.5C52.4546 61.1075 52.9471 61.6 53.5546 61.6H57.9546C59.7775 61.6 61.2546 60.1224 61.2546 58.3V53.9C61.2546 53.2925 60.7621 52.8 60.1546 52.8Z" fill="url(#paint12_linear)"/>
<defs>
<linearGradient id="paint0_linear" x1="0.412598" y1="32.9999" x2="65.6547" y2="32.9999" gradientUnits="userSpaceOnUse">
<stop stop-color="#EC577C"/>
<stop offset="0.176598" stop-color="#C557C5"/>
<stop offset="0.415159" stop-color="#6E76FF"/>
<stop offset="1" stop-color="#3639C5"/>
</linearGradient>
<linearGradient id="paint1_linear" x1="19.4546" y1="7.69997" x2="45.8546" y2="7.69997" gradientUnits="userSpaceOnUse">
<stop stop-color="#EC577C"/>
<stop offset="0.176598" stop-color="#C557C5"/>
<stop offset="0.415159" stop-color="#6E76FF"/>
<stop offset="1" stop-color="#3639C5"/>
</linearGradient>
<linearGradient id="paint2_linear" x1="43.6548" y1="27.5" x2="59.0548" y2="27.5" gradientUnits="userSpaceOnUse">
<stop stop-color="#EC577C"/>
<stop offset="0.176598" stop-color="#C557C5"/>
<stop offset="0.415159" stop-color="#6E76FF"/>
<stop offset="1" stop-color="#3639C5"/>
</linearGradient>
<linearGradient id="paint3_linear" x1="43.6548" y1="34.1" x2="59.0548" y2="34.1" gradientUnits="userSpaceOnUse">
<stop stop-color="#EC577C"/>
<stop offset="0.176598" stop-color="#C557C5"/>
<stop offset="0.415159" stop-color="#6E76FF"/>
<stop offset="1" stop-color="#3639C5"/>
</linearGradient>
<linearGradient id="paint4_linear" x1="42.5547" y1="40.7" x2="59.0547" y2="40.7" gradientUnits="userSpaceOnUse">
<stop stop-color="#EC577C"/>
<stop offset="0.176598" stop-color="#C557C5"/>
<stop offset="0.415159" stop-color="#6E76FF"/>
<stop offset="1" stop-color="#3639C5"/>
</linearGradient>
<linearGradient id="paint5_linear" x1="46.9546" y1="47.3" x2="59.0546" y2="47.3" gradientUnits="userSpaceOnUse">
<stop stop-color="#EC577C"/>
<stop offset="0.176598" stop-color="#C557C5"/>
<stop offset="0.415159" stop-color="#6E76FF"/>
<stop offset="1" stop-color="#3639C5"/>
</linearGradient>
<linearGradient id="paint6_linear" x1="34.8545" y1="14.3" x2="45.8545" y2="14.3" gradientUnits="userSpaceOnUse">
<stop stop-color="#EC577C"/>
<stop offset="0.176598" stop-color="#C557C5"/>
<stop offset="0.415159" stop-color="#6E76FF"/>
<stop offset="1" stop-color="#3639C5"/>
</linearGradient>
<linearGradient id="paint7_linear" x1="40.3545" y1="20.9" x2="59.0545" y2="20.9" gradientUnits="userSpaceOnUse">
<stop stop-color="#EC577C"/>
<stop offset="0.176598" stop-color="#C557C5"/>
<stop offset="0.415159" stop-color="#6E76FF"/>
<stop offset="1" stop-color="#3639C5"/>
</linearGradient>
<linearGradient id="paint8_linear" x1="16.1548" y1="26.4" x2="26.0548" y2="26.4" gradientUnits="userSpaceOnUse">
<stop stop-color="#EC577C"/>
<stop offset="0.176598" stop-color="#C557C5"/>
<stop offset="0.415159" stop-color="#6E76FF"/>
<stop offset="1" stop-color="#3639C5"/>
</linearGradient>
<linearGradient id="paint9_linear" x1="11.7549" y1="33" x2="30.4549" y2="33" gradientUnits="userSpaceOnUse">
<stop stop-color="#EC577C"/>
<stop offset="0.176598" stop-color="#C557C5"/>
<stop offset="0.415159" stop-color="#6E76FF"/>
<stop offset="1" stop-color="#3639C5"/>
</linearGradient>
<linearGradient id="paint10_linear" x1="16.1548" y1="39.6" x2="26.0548" y2="39.6" gradientUnits="userSpaceOnUse">
<stop stop-color="#EC577C"/>
<stop offset="0.176598" stop-color="#C557C5"/>
<stop offset="0.415159" stop-color="#6E76FF"/>
<stop offset="1" stop-color="#3639C5"/>
</linearGradient>
<linearGradient id="paint11_linear" x1="4.8335" y1="32.6862" x2="37.8222" y2="32.6862" gradientUnits="userSpaceOnUse">
<stop stop-color="#EC577C"/>
<stop offset="0.176598" stop-color="#C557C5"/>
<stop offset="0.415159" stop-color="#6E76FF"/>
<stop offset="1" stop-color="#3639C5"/>
</linearGradient>
<linearGradient id="paint12_linear" x1="52.4546" y1="57.2" x2="61.2546" y2="57.2" gradientUnits="userSpaceOnUse">
<stop stop-color="#EC577C"/>
<stop offset="0.176598" stop-color="#C557C5"/>
<stop offset="0.415159" stop-color="#6E76FF"/>
<stop offset="1" stop-color="#3639C5"/>
</linearGradient>
</defs>
</svg>
