<svg width="65" height="65" viewBox="0 0 65 65" fill="none" xmlns="http://www.w3.org/2000/svg">
<g clip-path="url(#clip0)">
<path d="M27.4233 43.9258C28.1245 43.9258 28.6929 43.3574 28.6929 42.6562C28.6929 41.9551 28.1245 41.3867 27.4233 41.3867C26.7222 41.3867 26.1538 41.9551 26.1538 42.6562C26.1538 43.3574 26.7222 43.9258 27.4233 43.9258Z" fill="url(#paint0_linear)"/>
<path d="M5.07959 17.2656V22.3438C5.07959 23.0449 5.64796 23.6133 6.34912 23.6133H43.0386C43.7396 23.6133 44.3081 23.0449 44.3081 22.3438V17.2656C44.3081 16.5645 43.7396 15.9961 43.0386 15.9961H6.34912C5.64796 15.9961 5.07959 16.5645 5.07959 17.2656ZM18.5366 18.5352H41.769V21.0742H18.5366V18.5352ZM7.61865 18.5352H15.9976V21.0742H7.61865V18.5352Z" fill="url(#paint1_linear)"/>
<path d="M6.34912 28.6914H43.0386C43.7396 28.6914 44.3081 28.123 44.3081 27.4219C44.3081 26.7207 43.7396 26.1523 43.0386 26.1523H6.34912C5.64796 26.1523 5.07959 26.7207 5.07959 27.4219C5.07959 28.123 5.64796 28.6914 6.34912 28.6914Z" fill="url(#paint2_linear)"/>
<path d="M6.34912 33.7695H43.0386C43.7396 33.7695 44.3081 33.2012 44.3081 32.5C44.3081 31.7988 43.7396 31.2305 43.0386 31.2305H6.34912C5.64796 31.2305 5.07959 31.7988 5.07959 32.5C5.07959 33.2012 5.64796 33.7695 6.34912 33.7695Z" fill="url(#paint3_linear)"/>
<path d="M6.34912 38.8477H27.4233C28.1245 38.8477 28.6929 38.2793 28.6929 37.5781C28.6929 36.877 28.1245 36.3086 27.4233 36.3086H6.34912C5.64796 36.3086 5.07959 36.877 5.07959 37.5781C5.07959 38.2793 5.64796 38.8477 6.34912 38.8477Z" fill="url(#paint4_linear)"/>
<path d="M6.34912 43.9258H22.3452C23.0464 43.9258 23.6147 43.3574 23.6147 42.6562C23.6147 41.9551 23.0464 41.3867 22.3452 41.3867H6.34912C5.64796 41.3867 5.07959 41.9551 5.07959 42.6562C5.07959 43.3574 5.64796 43.9258 6.34912 43.9258Z" fill="url(#paint5_linear)"/>
<path d="M17.2671 54.082H23.7425C24.3323 56.9759 26.8969 59.1602 29.9624 59.1602C33.4625 59.1602 36.31 56.3126 36.31 52.8125C36.31 49.3124 33.4625 46.4648 29.9624 46.4648C26.897 46.4648 24.3323 48.6491 23.7425 51.543H17.2671C16.5659 51.543 15.9976 52.1113 15.9976 52.8125C15.9976 53.5137 16.5659 54.082 17.2671 54.082ZM29.9624 51.543H26.3722C26.8962 50.0654 28.3073 49.0039 29.9624 49.0039C32.0625 49.0039 33.771 50.7124 33.771 52.8125C33.771 54.9126 32.0625 56.6211 29.9624 56.6211C28.3074 56.6211 26.8962 55.5596 26.3722 54.082H29.9624C30.6634 54.082 31.2319 53.5137 31.2319 52.8125C31.2319 52.1113 30.6636 51.543 29.9624 51.543Z" fill="url(#paint6_linear)"/>
<path d="M43.0386 10.1562C43.7396 10.1562 44.3081 9.58788 44.3081 8.88672C44.3081 8.18556 43.7396 7.61719 43.0386 7.61719H40.4995C39.7985 7.61719 39.23 8.18556 39.23 8.88672C39.23 9.58788 39.7985 10.1562 40.4995 10.1562H43.0386Z" fill="url(#paint7_linear)"/>
<path d="M35.4214 10.1562C36.1224 10.1562 36.6909 9.58788 36.6909 8.88672C36.6909 8.18556 36.1224 7.61719 35.4214 7.61719H32.8823C32.1813 7.61719 31.6128 8.18556 31.6128 8.88672C31.6128 9.58788 32.1813 10.1562 32.8823 10.1562H35.4214Z" fill="url(#paint8_linear)"/>
<path d="M27.8042 10.1562C28.5054 10.1562 29.0737 9.58788 29.0737 8.88672C29.0737 8.18556 28.5054 7.61719 27.8042 7.61719H25.2651C24.564 7.61719 23.9956 8.18556 23.9956 8.88672C23.9956 9.58788 24.564 10.1562 25.2651 10.1562H27.8042Z" fill="url(#paint9_linear)"/>
<path d="M24.8843 65C25.5854 65 26.1538 64.4316 26.1538 63.7305C26.1538 63.0293 25.5854 62.4609 24.8843 62.4609C24.1831 62.4609 23.6147 63.0293 23.6147 63.7305C23.6147 64.4316 24.1831 65 24.8843 65Z" fill="url(#paint10_linear)"/>
<path d="M1.27197 65H19.1724C19.8735 65 20.4419 64.4316 20.4419 63.7305C20.4419 63.0293 19.8735 62.4609 19.1724 62.4609H2.5415V12.6953H11.4282C12.1294 12.6953 12.6978 12.1269 12.6978 11.4258V2.53906H46.8481V38.4226C46.2723 39.104 45.7345 39.7022 45.2692 40.1795L42.5778 37.4881C40.0978 35.0064 36.0812 35.0053 33.6003 37.4879L31.8052 39.283C31.3095 39.7787 31.3095 40.5826 31.8052 41.0784L46.848 56.1212V62.4609H30.598C29.8969 62.4609 29.3285 63.0293 29.3285 63.7305C29.3285 64.4316 29.8969 65 30.598 65H48.1175C48.8186 65 49.3871 64.4316 49.3871 63.7305V58.6602L49.7589 59.0321C50.2547 59.5274 51.0587 59.5278 51.5544 59.0321L53.3495 57.2369C55.8299 54.7565 55.8305 50.7406 53.3495 48.2598L50.6585 45.5687C53.0667 43.2222 58.3638 39.3246 61.147 38.1125C65.0536 36.4119 66.4633 31.1003 63.1301 27.7672C59.8221 24.4575 54.5341 25.8023 52.8017 29.7201C52.152 31.1884 50.8059 33.253 49.3872 35.1876V1.26953C49.3872 0.568369 48.8187 0 48.1177 0H11.4282C11.082 0 10.7566 0.145996 10.5305 0.371846L0.374287 10.5281C0.144629 10.7572 0.00244141 11.0812 0.00244141 11.4258V63.7305C0.00244141 64.4316 0.57081 65 1.27197 65ZM51.554 50.0552C53.0423 51.5434 53.0426 53.953 51.554 55.4416L50.6567 56.339L34.4984 40.1807L35.3961 39.283C36.8842 37.7941 39.2932 37.7933 40.7822 39.2832L51.554 50.0552ZM49.1127 39.6732C51.3128 37.0198 54.0248 33.2307 55.1237 30.7473C56.1105 28.5158 59.2466 27.4735 61.3346 29.5624C63.4235 31.6513 62.3623 34.8144 60.1334 35.7845C56.9744 37.1604 51.4762 41.2181 48.863 43.7732L47.0647 41.9749C47.6666 41.359 48.3698 40.5695 49.1127 39.6732ZM10.1587 4.33443V10.1562H4.33687L10.1587 4.33443Z" fill="url(#paint11_linear)"/>
</g>
<defs>
<linearGradient id="paint0_linear" x1="26.1538" y1="42.6562" x2="28.6929" y2="42.6562" gradientUnits="userSpaceOnUse">
<stop stop-color="#EC577C"/>
<stop offset="0.176598" stop-color="#C557C5"/>
<stop offset="0.415159" stop-color="#6E76FF"/>
<stop offset="1" stop-color="#3639C5"/>
</linearGradient>
<linearGradient id="paint1_linear" x1="5.07959" y1="19.8047" x2="44.3081" y2="19.8047" gradientUnits="userSpaceOnUse">
<stop stop-color="#EC577C"/>
<stop offset="0.176598" stop-color="#C557C5"/>
<stop offset="0.415159" stop-color="#6E76FF"/>
<stop offset="1" stop-color="#3639C5"/>
</linearGradient>
<linearGradient id="paint2_linear" x1="5.07959" y1="27.4219" x2="44.3081" y2="27.4219" gradientUnits="userSpaceOnUse">
<stop stop-color="#EC577C"/>
<stop offset="0.176598" stop-color="#C557C5"/>
<stop offset="0.415159" stop-color="#6E76FF"/>
<stop offset="1" stop-color="#3639C5"/>
</linearGradient>
<linearGradient id="paint3_linear" x1="5.07959" y1="32.5" x2="44.3081" y2="32.5" gradientUnits="userSpaceOnUse">
<stop stop-color="#EC577C"/>
<stop offset="0.176598" stop-color="#C557C5"/>
<stop offset="0.415159" stop-color="#6E76FF"/>
<stop offset="1" stop-color="#3639C5"/>
</linearGradient>
<linearGradient id="paint4_linear" x1="5.07959" y1="37.5781" x2="28.6929" y2="37.5781" gradientUnits="userSpaceOnUse">
<stop stop-color="#EC577C"/>
<stop offset="0.176598" stop-color="#C557C5"/>
<stop offset="0.415159" stop-color="#6E76FF"/>
<stop offset="1" stop-color="#3639C5"/>
</linearGradient>
<linearGradient id="paint5_linear" x1="5.07959" y1="42.6562" x2="23.6147" y2="42.6562" gradientUnits="userSpaceOnUse">
<stop stop-color="#EC577C"/>
<stop offset="0.176598" stop-color="#C557C5"/>
<stop offset="0.415159" stop-color="#6E76FF"/>
<stop offset="1" stop-color="#3639C5"/>
</linearGradient>
<linearGradient id="paint6_linear" x1="15.9976" y1="52.8125" x2="36.31" y2="52.8125" gradientUnits="userSpaceOnUse">
<stop stop-color="#EC577C"/>
<stop offset="0.176598" stop-color="#C557C5"/>
<stop offset="0.415159" stop-color="#6E76FF"/>
<stop offset="1" stop-color="#3639C5"/>
</linearGradient>
<linearGradient id="paint7_linear" x1="39.23" y1="8.88671" x2="44.3081" y2="8.88671" gradientUnits="userSpaceOnUse">
<stop stop-color="#EC577C"/>
<stop offset="0.176598" stop-color="#C557C5"/>
<stop offset="0.415159" stop-color="#6E76FF"/>
<stop offset="1" stop-color="#3639C5"/>
</linearGradient>
<linearGradient id="paint8_linear" x1="31.6128" y1="8.88671" x2="36.6909" y2="8.88671" gradientUnits="userSpaceOnUse">
<stop stop-color="#EC577C"/>
<stop offset="0.176598" stop-color="#C557C5"/>
<stop offset="0.415159" stop-color="#6E76FF"/>
<stop offset="1" stop-color="#3639C5"/>
</linearGradient>
<linearGradient id="paint9_linear" x1="23.9956" y1="8.88671" x2="29.0737" y2="8.88671" gradientUnits="userSpaceOnUse">
<stop stop-color="#EC577C"/>
<stop offset="0.176598" stop-color="#C557C5"/>
<stop offset="0.415159" stop-color="#6E76FF"/>
<stop offset="1" stop-color="#3639C5"/>
</linearGradient>
<linearGradient id="paint10_linear" x1="23.6147" y1="63.7305" x2="26.1538" y2="63.7305" gradientUnits="userSpaceOnUse">
<stop stop-color="#EC577C"/>
<stop offset="0.176598" stop-color="#C557C5"/>
<stop offset="0.415159" stop-color="#6E76FF"/>
<stop offset="1" stop-color="#3639C5"/>
</linearGradient>
<linearGradient id="paint11_linear" x1="0.00244166" y1="32.4999" x2="64.9991" y2="32.4999" gradientUnits="userSpaceOnUse">
<stop stop-color="#EC577C"/>
<stop offset="0.176598" stop-color="#C557C5"/>
<stop offset="0.415159" stop-color="#6E76FF"/>
<stop offset="1" stop-color="#3639C5"/>
</linearGradient>
<clipPath id="clip0">
<rect width="65" height="65" fill="white"/>
</clipPath>
</defs>
</svg>
