<svg width="65" height="65" viewBox="0 0 65 65" fill="none" xmlns="http://www.w3.org/2000/svg">
<g clip-path="url(#clip0)">
<path d="M32.5003 42.4064C40.9452 42.4064 47.8155 35.548 47.8155 27.1177C47.8155 18.6874 40.9452 11.8291 32.5003 11.8291C24.0554 11.8291 17.1851 18.6875 17.1851 27.1177C17.1851 35.5479 24.0554 42.4064 32.5003 42.4064ZM32.5003 14.3682C39.5452 14.3682 45.2765 20.0877 45.2765 27.1178C45.2765 34.148 39.5452 39.8673 32.5003 39.8673C25.4554 39.8673 19.7241 34.1478 19.7241 27.1177C19.7241 20.0875 25.4554 14.3682 32.5003 14.3682Z" fill="url(#paint0_linear)"/>
<path d="M29.6344 31.2096C29.1942 30.6641 28.3949 30.5787 27.8492 31.0189C27.3036 31.4593 27.2183 32.2586 27.6586 32.8041C28.5291 33.883 29.8063 34.4674 31.0559 34.7225V34.8301C31.0559 35.5311 31.6243 36.0996 32.3255 36.0996C33.0266 36.0996 33.595 35.5311 33.595 34.8301V34.8182C36.2378 34.4596 37.394 32.725 37.5905 31.175C37.867 28.9939 36.4395 26.8988 34.1189 26.0801C33.936 26.0156 33.7613 25.9534 33.5951 25.8937V22.2066C34.0013 22.3468 34.2841 22.5603 34.4278 22.7648C34.831 23.3384 35.623 23.4765 36.1965 23.0731C36.7701 22.6699 36.9081 21.8779 36.5048 21.3044C35.9391 20.4997 34.9213 19.8259 33.5951 19.5948V19.4054C33.5951 18.7044 33.0268 18.1359 32.3256 18.1359C31.6244 18.1359 31.0561 18.7044 31.0561 19.4054V19.6888C30.891 19.7267 30.7236 19.7709 30.554 19.8219C29.0229 20.2823 27.8676 21.7663 27.7444 23.4309C27.6226 25.0764 28.499 26.5055 30.0889 27.2539C30.3039 27.3551 30.6356 27.4931 31.0561 27.6573V32.1048C30.4892 31.9227 29.9743 31.6307 29.6344 31.2096ZM35.0715 30.8557C34.9837 31.5474 34.455 32.0348 33.595 32.2386V28.6056C34.7352 29.1376 35.1653 30.1162 35.0715 30.8557ZM30.2763 23.6185C30.3153 23.0915 30.6352 22.588 31.0559 22.3516V24.8993C30.4976 24.6008 30.2354 24.1703 30.2763 23.6185Z" fill="url(#paint1_linear)"/>
<path d="M63.7305 46.0867H62.1179V11.4972C62.1179 9.20861 60.256 7.34672 57.9674 7.34672H40.9826C38.3781 6.22902 35.5102 5.60962 32.5 5.60962C29.4841 5.60962 26.611 6.23131 24.0025 7.35307C23.9606 7.34888 23.9182 7.34672 23.8753 7.34672H7.0327C4.74411 7.34672 2.88222 9.20861 2.88222 11.4972V46.0867H1.26953C0.568369 46.0867 0 46.6552 0 47.3563V50.3859C0 55.3509 4.03939 59.3903 9.0044 59.3903H55.9956C60.9606 59.3903 65 55.351 65 50.3859V47.3563C65 46.6552 64.4316 46.0867 63.7305 46.0867ZM57.9673 9.88578C58.8559 9.88578 59.5787 10.6087 59.5787 11.4972V46.0867H42.6493C49.4268 42.4588 54.0465 35.3165 54.0465 27.1176C54.0465 20.0747 50.6377 13.8114 45.3804 9.88578H57.9673ZM40.3143 50.0475C40.3143 50.8313 39.6767 51.469 38.8927 51.469H25.9289C25.1451 51.469 24.5073 50.8313 24.5073 50.0475C24.5073 49.2636 25.145 48.6259 25.9289 48.6259H38.8927C39.6767 48.6258 40.3143 49.2636 40.3143 50.0475ZM51.5074 27.1176C51.5074 37.5773 42.9807 46.0867 32.5 46.0867C22.0193 46.0867 13.4926 37.5773 13.4926 27.1176C13.4926 16.658 22.0193 8.14868 32.5 8.14868C42.9807 8.14868 51.5074 16.6581 51.5074 27.1176ZM5.42115 11.4972C5.42115 10.6087 6.14402 9.88578 7.03257 9.88578H19.6196C14.3623 13.8116 10.9535 20.0747 10.9535 27.1176C10.9535 35.3165 15.5732 42.4588 22.3507 46.0867H5.42115V11.4972ZM62.4609 50.386C62.4609 53.951 59.5606 56.8513 55.9956 56.8513H9.0044C5.43943 56.8512 2.53906 53.951 2.53906 50.386V48.6259H22.2322C22.0618 49.0673 21.9683 49.5467 21.9683 50.0475C21.9683 52.2314 23.7451 54.0081 25.929 54.0081H38.8928C41.0768 54.0081 42.8535 52.2314 42.8535 50.0475C42.8535 49.5467 42.7601 49.0673 42.5897 48.6259H62.4609V50.386Z" fill="url(#paint2_linear)"/>
</g>
<defs>
<linearGradient id="paint0_linear" x1="17.1851" y1="27.1177" x2="47.8155" y2="27.1177" gradientUnits="userSpaceOnUse">
<stop stop-color="#EC577C"/>
<stop offset="0.176598" stop-color="#C557C5"/>
<stop offset="0.415159" stop-color="#6E76FF"/>
<stop offset="1" stop-color="#3639C5"/>
</linearGradient>
<linearGradient id="paint1_linear" x1="27.377" y1="27.1177" x2="37.6246" y2="27.1177" gradientUnits="userSpaceOnUse">
<stop stop-color="#EC577C"/>
<stop offset="0.176598" stop-color="#C557C5"/>
<stop offset="0.415159" stop-color="#6E76FF"/>
<stop offset="1" stop-color="#3639C5"/>
</linearGradient>
<linearGradient id="paint2_linear" x1="2.53494e-07" y1="32.4998" x2="65" y2="32.4998" gradientUnits="userSpaceOnUse">
<stop stop-color="#EC577C"/>
<stop offset="0.176598" stop-color="#C557C5"/>
<stop offset="0.415159" stop-color="#6E76FF"/>
<stop offset="1" stop-color="#3639C5"/>
</linearGradient>
<clipPath id="clip0">
<rect width="65" height="65" fill="white"/>
</clipPath>
</defs>
</svg>
