<svg width="44" height="43" viewBox="0 0 44 43" fill="none" xmlns="http://www.w3.org/2000/svg">
<g clip-path="url(#clip0)">
<path d="M3.94022 0C1.85631 0 0.160919 1.69539 0.160919 3.7793V19.1484H19.3094V0H3.94022ZM12.6746 10.834H10.9949V12.5137C10.9949 13.2094 10.4309 13.7734 9.73514 13.7734C9.03941 13.7734 8.47537 13.2094 8.47537 12.5137V10.834H6.79568C6.09996 10.834 5.53592 10.2699 5.53592 9.57422C5.53592 8.87849 6.09996 8.31445 6.79568 8.31445H8.47537V6.63477C8.47537 5.93904 9.03941 5.375 9.73514 5.375C10.4309 5.375 10.9949 5.93904 10.9949 6.63477V8.31445H12.6746C13.3703 8.31445 13.9344 8.87849 13.9344 9.57422C13.9344 10.2699 13.3703 10.834 12.6746 10.834Z" fill="white"/>
<path d="M40.2915 19.1484H40.9773V3.7793C40.9773 1.69539 39.2819 0 37.198 0H21.8289V18.6941C24.322 16.8183 27.42 15.7051 30.7732 15.7051C34.3889 15.7051 37.7076 16.9994 40.2915 19.1484ZM27.2039 9.57422C27.2039 8.87849 27.7679 8.31445 28.4637 8.31445H34.3426C35.0383 8.31445 35.6023 8.87849 35.6023 9.57422C35.6023 10.2699 35.0383 10.834 34.3426 10.834H28.4637C27.7679 10.834 27.2039 10.2699 27.2039 9.57422Z" fill="white"/>
<path d="M18.855 21.668H0.160919V37.0371C0.160919 39.121 1.85631 40.8164 3.94022 40.8164H19.3094V40.1306C17.1603 37.5467 15.866 34.2279 15.866 30.6123C15.866 27.2591 16.9792 24.1611 18.855 21.668ZM12.7255 32.4511C13.2175 32.943 13.2175 33.7406 12.7255 34.2326C12.4796 34.4786 12.1572 34.6016 11.8347 34.6016C11.5123 34.6016 11.1899 34.4786 10.944 34.2325L9.73514 33.0237L8.52627 34.2326C8.28036 34.4786 7.95794 34.6016 7.63553 34.6016C7.31311 34.6016 6.9907 34.4786 6.74479 34.2325C6.25281 33.7406 6.25281 32.943 6.74479 32.451L7.95358 31.2422L6.74471 30.0333C6.25273 29.5413 6.25273 28.7437 6.74471 28.2518C7.2366 27.7598 8.03429 27.7598 8.52627 28.2518L9.73514 29.4606L10.944 28.2518C11.4359 27.7598 12.2336 27.7598 12.7256 28.2518C13.2175 28.7437 13.2175 29.5413 12.7256 30.0333L11.5167 31.2422L12.7255 32.4511Z" fill="white"/>
<path d="M30.7732 18.2246C23.9426 18.2246 18.3855 23.7817 18.3855 30.6123C18.3855 37.4429 23.9426 43 30.7732 43C37.6038 43 43.1609 37.4429 43.1609 30.6123C43.1609 23.7817 37.6038 18.2246 30.7732 18.2246ZM33.7127 33.9717H27.8338C27.138 33.9717 26.574 33.4076 26.574 32.7119C26.574 32.0162 27.138 31.4521 27.8338 31.4521H33.7127C34.4084 31.4521 34.9724 32.0162 34.9724 32.7119C34.9724 33.4076 34.4084 33.9717 33.7127 33.9717ZM33.7127 29.7725H27.8338C27.138 29.7725 26.574 29.2084 26.574 28.5127C26.574 27.817 27.138 27.2529 27.8338 27.2529H33.7127C34.4084 27.2529 34.9724 27.817 34.9724 28.5127C34.9724 29.2084 34.4084 29.7725 33.7127 29.7725Z" fill="white"/>
</g>
<defs>
<clipPath id="clip0">
<rect width="43" height="43" fill="white" transform="translate(0.160919)"/>
</clipPath>
</defs>
</svg>
