<svg width="17" height="17" viewBox="0 0 17 17" fill="none" xmlns="http://www.w3.org/2000/svg">
<path d="M9.43893 8.50075L16.8053 1.13439C17.0646 0.875043 17.0646 0.45456 16.8053 0.195244C16.5459 -0.0640716 16.1254 -0.0641048 15.8661 0.195244L8.49975 7.5616L1.13342 0.195244C0.874067 -0.0641048 0.453584 -0.0641048 0.194268 0.195244C-0.0650482 0.454593 -0.0650814 0.875076 0.194268 1.13439L7.5606 8.50072L0.194268 15.8671C-0.0650814 16.1264 -0.0650814 16.5469 0.194268 16.8062C0.323926 16.9359 0.493892 17.0007 0.663859 17.0007C0.833825 17.0007 1.00376 16.9359 1.13345 16.8062L8.49975 9.4399L15.8661 16.8062C15.9957 16.9359 16.1657 17.0007 16.3357 17.0007C16.5056 17.0007 16.6756 16.9359 16.8053 16.8062C17.0646 16.5469 17.0646 16.1264 16.8053 15.8671L9.43893 8.50075Z" fill="white"/>
</svg>
