<svg width="68" height="68" viewBox="0 0 68 68" fill="none" xmlns="http://www.w3.org/2000/svg">
<g clip-path="url(#clip0)">
<path d="M30.877 51.8399C30.3587 52.3577 30.3587 53.1987 30.877 53.7175C31.3963 54.2357 32.2368 54.2357 32.7545 53.7175C33.2738 53.1987 33.2738 52.3577 32.7545 51.8399C32.2368 51.3206 31.3963 51.3206 30.877 51.8399Z" fill="url(#paint0_linear)"/>
<path d="M64.9353 49.5332L54.8519 40.959C54.8052 40.9196 54.7559 40.8833 54.7046 40.8506C52.0592 39.1666 48.6626 39.5396 46.4448 41.757L40.947 47.2541C40.5662 47.6355 39.9982 47.748 39.5001 47.5426C33.2922 44.9745 28.1924 41.1085 24.3424 36.0528C21.4065 32.1976 20.3481 29.1341 20.2086 28.7024C20.192 28.6101 20.1655 28.5183 20.1282 28.4285C19.9222 27.9305 20.0348 27.3634 20.4166 26.9826L25.9138 21.4839C28.1317 19.266 28.5042 15.8694 26.8202 13.2241C26.8067 13.2028 26.7927 13.182 26.7781 13.1613L19.4963 3.04212C17.2053 -0.512167 12.2149 -1.04912 9.21991 1.94538L8.11902 3.04627C8.1185 3.04731 8.11746 3.04835 8.11642 3.04887L4.186 6.97929C-0.500827 11.6666 -1.26761 18.7098 1.96917 27.3489C4.74163 34.749 10.2917 42.848 17.597 50.1532C25.0749 57.6312 33.3928 63.284 41.0181 66.0704C48.5656 68.8279 56.594 69.1677 62.2764 63.4848L65.9832 59.7785C68.9648 56.7964 68.4444 51.8388 64.9353 49.5332ZM53.2063 43.0456L63.2808 51.6126C63.327 51.652 63.3763 51.6883 63.4276 51.721C65.5796 53.0911 65.9054 56.1002 64.1047 57.9004L63.8297 58.1759L46.6466 45.3107L48.3228 43.635C49.6328 42.3245 51.6291 42.0874 53.2063 43.0456ZM17.2774 4.5015C17.2909 4.52277 17.3049 4.54404 17.3194 4.56428L24.5981 14.6798C25.587 16.2627 25.3582 18.2834 24.0358 19.6058L22.4114 21.2307L10.7862 4.13523L11.098 3.82343C12.906 2.01542 15.9124 2.35731 17.2774 4.5015ZM41.9291 63.5756C34.6597 60.9193 26.6853 55.4854 19.475 48.2751C12.4318 41.2324 7.09802 33.4697 4.45578 26.4171C2.47241 21.1233 1.14169 13.7797 6.06405 8.85786L8.87439 6.047L20.4996 23.1425L18.5391 25.104C17.4237 26.2174 17.073 27.8651 17.6296 29.3322C18.0488 31.0526 19.9777 34.6235 21.9237 37.2548C24.7875 41.1271 29.9853 46.4806 38.4848 49.997C39.9785 50.6149 41.6817 50.2756 42.8251 49.1327L44.7493 47.208L61.9325 60.0731L60.3984 61.6067C55.1217 66.8839 47.4424 65.59 41.9291 63.5756Z" fill="url(#paint1_linear)"/>
<path d="M28.3851 48.669C26.9823 47.4389 24.5559 45.3233 23.2781 44.0086C20.1445 40.7885 16.8569 36.885 14.9021 34.0648C14.4844 33.462 13.6569 33.3115 13.0541 33.7297C12.4513 34.1473 12.3013 34.9748 12.719 35.5777C15.1843 39.1345 18.8065 43.2216 21.3741 45.8602C22.7229 47.2485 25.1701 49.3829 26.6337 50.6659C27.1841 51.1484 28.023 51.0954 28.5081 50.5429C28.9916 49.9919 28.9366 49.1525 28.3851 48.669Z" fill="url(#paint2_linear)"/>
</g>
<defs>
<linearGradient id="paint0_linear" x1="30.4883" y1="52.7783" x2="33.144" y2="52.7783" gradientUnits="userSpaceOnUse">
<stop stop-color="#EC577C"/>
<stop offset="0.176598" stop-color="#C557C5"/>
<stop offset="0.415159" stop-color="#6E76FF"/>
<stop offset="1" stop-color="#3639C5"/>
</linearGradient>
<linearGradient id="paint1_linear" x1="0.000976827" y1="33.9997" x2="67.9287" y2="33.9997" gradientUnits="userSpaceOnUse">
<stop stop-color="#EC577C"/>
<stop offset="0.176598" stop-color="#C557C5"/>
<stop offset="0.415159" stop-color="#6E76FF"/>
<stop offset="1" stop-color="#3639C5"/>
</linearGradient>
<linearGradient id="paint2_linear" x1="12.4824" y1="42.2441" x2="28.8376" y2="42.2441" gradientUnits="userSpaceOnUse">
<stop stop-color="#EC577C"/>
<stop offset="0.176598" stop-color="#C557C5"/>
<stop offset="0.415159" stop-color="#6E76FF"/>
<stop offset="1" stop-color="#3639C5"/>
</linearGradient>
<clipPath id="clip0">
<rect width="68" height="68" fill="white"/>
</clipPath>
</defs>
</svg>
