<svg width="68" height="68" viewBox="0 0 68 68" fill="none" xmlns="http://www.w3.org/2000/svg">
<path d="M33.9838 0C23.2107 0 14.4463 8.76456 14.4463 19.5375C14.4463 24.0157 15.9961 28.3816 18.8136 31.85C18.8345 31.8826 18.8571 31.9143 18.8813 31.9451L32.9368 49.9524C33.1885 50.2748 33.5747 50.4633 33.9838 50.4633C34.3929 50.4633 34.779 50.2747 35.0306 49.9521L49.1536 31.8502C49.1586 31.8438 49.1633 31.8375 49.1681 31.8312C51.9754 28.3672 53.521 24.0033 53.521 19.5375C53.5213 8.76456 44.7569 0 33.9838 0ZM47.0762 30.1941C47.0593 30.2148 47.0434 30.2357 47.028 30.2571L33.9835 46.9767L21.0707 30.4336C21.0386 30.3811 21.0024 30.3305 20.9626 30.2822C18.4732 27.2691 17.1023 23.4532 17.1023 19.5375C17.1023 10.2291 24.6754 2.65598 33.9838 2.65598C43.2922 2.65598 50.8653 10.2291 50.8655 19.5375C50.8655 23.4114 49.5197 27.196 47.0762 30.1941Z" fill="url(#paint0_linear)"/>
<path d="M45.4454 16.4367C45.2378 15.7332 44.4993 15.3313 43.7959 15.5388C43.0924 15.7464 42.6904 16.4848 42.8979 17.1883C43.8634 20.461 42.966 23.9913 40.5558 26.4014C38.8002 28.1572 36.4657 29.1241 33.9828 29.1241C31.4998 29.1241 29.1654 28.1572 27.4096 26.4013C25.6538 24.6455 24.687 22.3112 24.687 19.8281C24.687 17.345 25.6538 15.0106 27.4098 13.255C29.8223 10.8423 33.3555 9.94567 36.6307 10.9152C37.3342 11.1236 38.0729 10.7221 38.281 10.0188C38.4892 9.3156 38.0877 8.57663 37.3846 8.36852C33.175 7.12247 28.6334 8.27528 25.5318 11.3769C23.2745 13.6343 22.0312 16.6357 22.0312 19.8281C22.0312 23.0205 23.2744 26.0218 25.5318 28.2792C27.7892 30.5366 30.7906 31.7799 33.983 31.7799C37.1755 31.7799 40.1768 30.5366 42.4342 28.2795C45.5326 25.1811 46.6864 20.6432 45.4454 16.4367Z" fill="url(#paint1_linear)"/>
<path d="M42.4576 11.4002L42.4341 11.3766C41.9153 10.858 41.0745 10.858 40.556 11.3766C40.0373 11.8953 40.0373 12.7362 40.556 13.2547L40.5795 13.2783C40.8387 13.5377 41.1786 13.6673 41.5185 13.6673C41.8583 13.6673 42.1982 13.5377 42.4576 13.2783C42.9761 12.7597 42.9761 11.9189 42.4576 11.4002Z" fill="url(#paint2_linear)"/>
<path d="M54.4004 40.5483C53.7038 40.3195 52.953 40.6979 52.7238 41.3946C52.4945 42.0912 52.8735 42.8419 53.5701 43.0712C60.9398 45.4964 65.3395 49.13 65.3395 52.791C65.3395 55.8866 62.1468 59.0188 56.5799 61.3842C50.5701 63.9378 42.5509 65.3441 33.9992 65.3441C25.4475 65.3441 17.4283 63.9378 11.4186 61.3842C5.85173 59.0188 2.65891 55.8867 2.65891 52.791C2.65891 50.1985 4.89495 47.5651 8.95529 45.3755C13.2453 43.0621 19.3208 41.3866 26.0625 40.6579C26.7916 40.579 27.3189 39.9241 27.24 39.1948C27.1611 38.4657 26.5059 37.9379 25.7769 38.0173C18.7016 38.7822 12.2799 40.5652 7.6945 43.0379C2.66263 45.7514 0.00292969 49.1239 0.00292969 52.791C0.00292969 57.0653 3.68821 60.9852 10.3798 63.8286C16.7109 66.5185 25.0989 68 33.9993 68C42.8998 68 51.2878 66.5185 57.6186 63.8286C64.3102 60.9852 67.9955 57.0654 67.9955 52.791C67.9955 47.8538 63.0404 43.3916 54.4004 40.5483Z" fill="url(#paint3_linear)"/>
<path d="M48.3246 38.9562L48.2783 38.9469C47.5594 38.802 46.859 39.2672 46.7139 39.9861C46.569 40.705 47.0343 41.4055 47.7532 41.5505L47.7994 41.5598C47.8881 41.5776 47.9763 41.5862 48.0634 41.5862C48.6825 41.5862 49.2366 41.1508 49.3638 40.5206C49.5087 39.8016 49.0435 39.1012 48.3246 38.9562Z" fill="url(#paint4_linear)"/>
<path d="M23.9597 44.7606C23.8159 44.0416 23.1164 43.5752 22.3971 43.7188C22.3672 43.7248 22.3354 43.7322 22.306 43.7403C21.5985 43.9333 21.1813 44.6632 21.3743 45.3709C21.5354 45.9616 22.0706 46.3498 22.6547 46.3498C22.7592 46.3498 22.8651 46.3375 22.9708 46.3116C23.66 46.1449 24.1001 45.4621 23.9597 44.7606Z" fill="url(#paint5_linear)"/>
<path d="M38.4316 42.5991C37.6996 42.5426 37.0612 43.0882 37.004 43.8194C36.9467 44.5505 37.4931 45.1897 38.2242 45.247C46.8949 45.9256 51.5129 48.4617 51.5129 50.0314C51.5129 50.7887 50.3057 52.0751 46.9031 53.2083C43.4763 54.3495 38.8941 54.9781 34.0005 54.9781C29.1069 54.9781 24.5246 54.3497 21.0979 53.2083C17.6954 52.0751 16.4881 50.7887 16.4881 50.0314C16.4881 49.3393 17.4267 48.4667 18.9988 47.6976C19.6576 47.3753 19.9303 46.58 19.6079 45.9213C19.2856 45.2625 18.4903 44.9897 17.8314 45.3122C14.526 46.9296 13.832 48.7713 13.832 50.0317C13.832 55.0229 23.978 57.6344 34.0004 57.6344C44.0228 57.6344 54.1688 55.0229 54.1689 50.0315C54.169 45.4548 45.6914 43.1674 38.4316 42.5991Z" fill="url(#paint6_linear)"/>
<defs>
<linearGradient id="paint0_linear" x1="14.4463" y1="25.2316" x2="53.521" y2="25.2316" gradientUnits="userSpaceOnUse">
<stop stop-color="#EC577C"/>
<stop offset="0.176598" stop-color="#C557C5"/>
<stop offset="0.415159" stop-color="#6E76FF"/>
<stop offset="1" stop-color="#3639C5"/>
</linearGradient>
<linearGradient id="paint1_linear" x1="22.0313" y1="19.8274" x2="45.9359" y2="19.8274" gradientUnits="userSpaceOnUse">
<stop stop-color="#EC577C"/>
<stop offset="0.176598" stop-color="#C557C5"/>
<stop offset="0.415159" stop-color="#6E76FF"/>
<stop offset="1" stop-color="#3639C5"/>
</linearGradient>
<linearGradient id="paint2_linear" x1="40.167" y1="12.3275" x2="42.8465" y2="12.3275" gradientUnits="userSpaceOnUse">
<stop stop-color="#EC577C"/>
<stop offset="0.176598" stop-color="#C557C5"/>
<stop offset="0.415159" stop-color="#6E76FF"/>
<stop offset="1" stop-color="#3639C5"/>
</linearGradient>
<linearGradient id="paint3_linear" x1="0.00292995" y1="53.0046" x2="67.9955" y2="53.0046" gradientUnits="userSpaceOnUse">
<stop stop-color="#EC577C"/>
<stop offset="0.176598" stop-color="#C557C5"/>
<stop offset="0.415159" stop-color="#6E76FF"/>
<stop offset="1" stop-color="#3639C5"/>
</linearGradient>
<linearGradient id="paint4_linear" x1="46.6875" y1="40.2533" x2="49.3903" y2="40.2533" gradientUnits="userSpaceOnUse">
<stop stop-color="#EC577C"/>
<stop offset="0.176598" stop-color="#C557C5"/>
<stop offset="0.415159" stop-color="#6E76FF"/>
<stop offset="1" stop-color="#3639C5"/>
</linearGradient>
<linearGradient id="paint5_linear" x1="21.3271" y1="45.0213" x2="23.9858" y2="45.0213" gradientUnits="userSpaceOnUse">
<stop stop-color="#EC577C"/>
<stop offset="0.176598" stop-color="#C557C5"/>
<stop offset="0.415159" stop-color="#6E76FF"/>
<stop offset="1" stop-color="#3639C5"/>
</linearGradient>
<linearGradient id="paint6_linear" x1="13.832" y1="50.1147" x2="54.1689" y2="50.1147" gradientUnits="userSpaceOnUse">
<stop stop-color="#EC577C"/>
<stop offset="0.176598" stop-color="#C557C5"/>
<stop offset="0.415159" stop-color="#6E76FF"/>
<stop offset="1" stop-color="#3639C5"/>
</linearGradient>
</defs>
</svg>
