<svg width="64" height="64" viewBox="0 0 64 64" fill="none" xmlns="http://www.w3.org/2000/svg">
<path d="M54 50H58C59.0605 49.9988 60.0772 49.577 60.8271 48.8271C61.577 48.0772 61.9988 47.0605 62 46V29C61.9988 27.9395 61.577 26.9228 60.8271 26.1729C60.0772 25.423 59.0605 25.0012 58 25H53C52.7348 25 52.4804 25.1054 52.2929 25.2929C52.1054 25.4804 52 25.7348 52 26V41.5463L44.6242 48H31.236L35.9473 45.6444L35.9523 45.6416L43.5471 41.7416C44.2213 41.393 44.7389 40.8026 44.9962 40.0885C45.2535 39.3744 45.2315 38.5895 44.9346 37.891L43.5165 34.5823C43.354 34.2034 43.1152 33.862 42.815 33.5795C42.5147 33.297 42.1595 33.0794 41.7714 32.9404C41.3833 32.8013 40.9707 32.7437 40.5594 32.7711C40.148 32.7986 39.7468 32.9106 39.3806 33.1L37.867 33.8829C37.6879 33.3319 37.3378 32.8523 36.8676 32.5139C36.3974 32.1754 35.8315 31.9957 35.2522 32.0007C34.6729 32.0058 34.1102 32.1954 33.646 32.5421C33.1818 32.8887 32.8402 33.3743 32.6707 33.9284L31.7875 36.8185L24 40.4831V29C23.9954 28.3805 23.8012 27.7773 23.4437 27.2714C23.0862 26.7655 22.5824 26.3812 22 26.17V20H25C25.181 20 25.3586 19.9509 25.5139 19.8579C25.6692 19.7648 25.7963 19.6314 25.8817 19.4718C25.9671 19.3122 26.0076 19.1325 25.9988 18.9517C25.9901 18.7709 25.9324 18.5959 25.832 18.4453L22.8685 14H27C27.7956 14 28.5587 13.6839 29.1213 13.1213C29.6839 12.5587 30 11.7957 30 11C30 10.2044 29.6839 9.44129 29.1213 8.87868C28.5587 8.31607 27.7956 8 27 8H21.9287C21.7572 6.80119 21.2718 5.66903 20.5217 4.71826C19.7717 3.76748 18.7836 3.03188 17.6576 2.586L17.4277 2.49413C16.6121 2.16704 15.7413 1.99931 14.8625 2H11.1375C10.2585 1.99928 9.3875 2.16702 8.57162 2.49413L8.34212 2.586C7.05768 3.09501 5.95639 3.97922 5.18185 5.12333C4.40731 6.26744 3.99546 7.61838 4 9V26.172C3.41555 26.3794 2.90958 26.7625 2.5515 27.2688C2.19342 27.7751 2.00078 28.3799 2 29V61C2 61.2652 2.10536 61.5196 2.29289 61.7071C2.48043 61.8947 2.73478 62 3 62H23C23.2652 62 23.5196 61.8947 23.7071 61.7071C23.8946 61.5196 24 61.2652 24 61V51.5113C24.4228 51.3704 29 49.118 29 49.118V54C28.9995 54.7025 29.1851 55.3926 29.5381 56H27C26.7348 56 26.4804 56.1054 26.2929 56.2929C26.1054 56.4804 26 56.7348 26 57V61C26 61.2652 26.1054 61.5196 26.2929 61.7071C26.4804 61.8947 26.7348 62 27 62H61C61.2652 62 61.5196 61.8947 61.7071 61.7071C61.8946 61.5196 62 61.2652 62 61V57C62 56.7348 61.8946 56.4804 61.7071 56.2929C61.5196 56.1054 61.2652 56 61 56H53.4625C53.8153 55.3926 54.0007 54.7025 54 54V50ZM34.5834 34.5125C34.6341 34.3466 34.7427 34.2044 34.8894 34.1118C35.0362 34.0192 35.2113 33.9824 35.3829 34.008C35.5545 34.0336 35.7112 34.12 35.8244 34.2515C35.9377 34.3829 36 34.5506 36 34.7241V35.4565C36 35.6281 36.0442 35.7968 36.1282 35.9464C36.2123 36.0961 36.3335 36.2215 36.4801 36.3107C36.6267 36.4 36.7938 36.45 36.9653 36.4559C37.1368 36.4619 37.3069 36.4236 37.4594 36.3448L40.2994 34.876C40.4214 34.8129 40.5552 34.7756 40.6923 34.7665C40.8294 34.7574 40.9669 34.7766 41.0963 34.823C41.2256 34.8694 41.344 34.9419 41.4441 35.0361C41.5442 35.1303 41.6237 35.2441 41.6779 35.3704L43.096 38.6791C43.1949 38.912 43.2023 39.1736 43.1165 39.4116C43.0307 39.6496 42.8582 39.8464 42.6335 39.9626L36.0204 43.3586L34.7518 40.1875L33.6731 37.4909L34.5834 34.5125ZM17.9 36.8608L16.2062 37.5193L15.8062 36.4499C15.7622 36.3352 15.7416 36.2128 15.7454 36.09C15.7493 35.9672 15.7776 35.8464 15.8287 35.7346C15.8798 35.6229 15.9527 35.5224 16.0431 35.4392C16.1335 35.356 16.2396 35.2916 16.3551 35.2499C16.4694 35.2086 16.5907 35.1903 16.712 35.196C16.8334 35.2017 16.9524 35.2312 17.0623 35.2829C17.1723 35.3347 17.2709 35.4075 17.3526 35.4974C17.4344 35.5873 17.4976 35.6924 17.5386 35.8068L17.9 36.8608ZM22 39.6826L21.2856 40.6951L20.0981 37.1326L19.5645 35.5316L22 32.1205V39.6826ZM23.1315 18H21C20.7348 18 20.4804 18.1054 20.2929 18.2929C20.1054 18.4804 20 18.7348 20 19V26H6V19.3625L10.4684 14H20.4649L23.1315 18ZM6 14H7.86487L6 16.2375V14ZM19.898 8H16V5H17.9386C18.9493 5.71466 19.6499 6.78734 19.898 8ZM6 9C5.99681 8.01831 6.28949 7.05844 6.83987 6.24554C7.39026 5.43265 8.17282 4.80445 9.0855 4.44288L9.315 4.351C9.8945 4.11867 10.5132 3.99952 11.1375 4H14V9C14 9.26522 14.1054 9.51957 14.2929 9.70711C14.4804 9.89465 14.7348 10 15 10H27C27.2652 10 27.5196 10.1054 27.7071 10.2929C27.8946 10.4804 28 10.7348 28 11C28 11.2652 27.8946 11.5196 27.7071 11.7071C27.5196 11.8946 27.2652 12 27 12H6V9ZM5 28H21C21.1289 27.9987 21.2568 28.0236 21.3759 28.073C21.495 28.1224 21.6029 28.1953 21.6931 28.2875L21.7127 28.3071C21.8324 28.424 21.9187 28.5707 21.9627 28.7321L18.7711 33.2C18.3733 32.2512 17.7038 31.4411 16.8469 30.8718C15.9899 30.3024 14.9837 29.9991 13.9549 30C13.1204 30 12.2981 30.1999 11.5567 30.583C10.8154 30.966 10.1765 31.521 9.69368 32.2016C9.21083 32.8822 8.898 33.6685 8.78138 34.4948C8.66476 35.3211 8.74774 36.1633 9.02337 36.9509L11.35 43.5976L4 53.881V29C4.0003 28.7349 4.10575 28.4807 4.29322 28.2932C4.48069 28.1058 4.73487 28.0003 5 28ZM12.1614 45.9015C12.7301 47.3975 13.6698 48.7243 14.8921 49.7574L10.482 56H4.9445L12.1614 45.9015ZM22 60H4V58H22V60ZM22 56H12.9307L16.547 50.8811C18.2156 51.778 20.1166 52.1491 22 51.9458V56ZM24.3393 49.2125C23.3916 49.6863 22.3539 49.9529 21.2952 49.9944C20.2364 50.0359 19.181 49.8515 18.1992 49.4533C17.2173 49.0552 16.3315 48.4525 15.6007 47.6853C14.8699 46.9182 14.3109 46.0042 13.9609 45.0041L10.9109 36.2903C10.7407 35.8041 10.6895 35.2843 10.7615 34.7743C10.8335 34.2643 11.0266 33.7789 11.3247 33.3588C11.6227 32.9388 12.017 32.5962 12.4746 32.3598C12.9322 32.1234 13.4398 32 13.9549 32C14.4484 31.9998 14.9353 32.113 15.3781 32.3309C15.8208 32.5489 16.2075 32.8657 16.5084 33.2569C16.0478 33.2866 15.6007 33.4243 15.2032 33.6589C14.8057 33.8935 14.4691 34.2184 14.2205 34.6072C13.9719 34.9961 13.8184 35.4381 13.7724 35.8973C13.7263 36.3565 13.7891 36.8201 13.9555 37.2506L14.7041 39.1756C14.8002 39.4228 14.9906 39.6217 15.2333 39.7285C15.4761 39.8353 15.7513 39.8414 15.9985 39.7453L18.5327 38.76L20.0514 43.3159C20.096 43.45 20.1686 43.5731 20.2643 43.6771C20.36 43.7811 20.4767 43.8636 20.6066 43.9192C20.7365 43.9748 20.8768 44.0023 21.0181 43.9997C21.1594 43.9972 21.2985 43.9647 21.4264 43.9045L32.0801 38.891L34.2301 44.2668L24.3393 49.2125ZM54 27H58C58.5302 27.0006 59.0386 27.2115 59.4135 27.5865C59.7885 27.9614 59.9994 28.4698 60 29H57V31H60V34H57V36H60V39H57V41H60V44H57V46H60C59.9994 46.5303 59.7885 47.0386 59.4135 47.4135C59.0386 47.7885 58.5302 47.9994 58 48H54V27ZM52 44.2038V48H47.6615L52 44.2038ZM60 60H28V58H60V60ZM48 53V56H45V53H43V56H40V53H38V56H35V53H33V56C32.4698 55.9994 31.9614 55.7885 31.5865 55.4135C31.2115 55.0386 31.0006 54.5303 31 54V50H52V54C51.9994 54.5303 51.7885 55.0386 51.4135 55.4135C51.0386 55.7885 50.5302 55.9994 50 56V53H48Z" fill="url(#paint0_linear)"/>
<path d="M31.2528 42.0225L29.4146 42.8103L30.1646 44.5604L32.0029 43.7725L31.2528 42.0225Z" fill="url(#paint1_linear)"/>
<defs>
<linearGradient id="paint0_linear" x1="2" y1="31.9999" x2="62" y2="31.9999" gradientUnits="userSpaceOnUse">
<stop stop-color="#EC577C"/>
<stop offset="0.176598" stop-color="#C557C5"/>
<stop offset="0.415159" stop-color="#6E76FF"/>
<stop offset="1" stop-color="#3639C5"/>
</linearGradient>
<linearGradient id="paint1_linear" x1="29.7896" y1="43.6853" x2="31.6279" y2="42.8975" gradientUnits="userSpaceOnUse">
<stop stop-color="#EC577C"/>
<stop offset="0.176598" stop-color="#C557C5"/>
<stop offset="0.415159" stop-color="#6E76FF"/>
<stop offset="1" stop-color="#3639C5"/>
</linearGradient>
</defs>
</svg>
