<svg width="65" height="65" viewBox="0 0 65 65" fill="none" xmlns="http://www.w3.org/2000/svg">
<g clip-path="url(#clip0)">
<path d="M61.9531 44.8357H51.0352V37.3377L62.8454 25.5275C63.0834 25.2894 63.2172 24.9665 63.2172 24.6298C63.2172 24.2931 63.0834 23.9701 62.8454 23.7321L57.4591 18.346C56.9634 17.8502 56.1595 17.8504 55.6637 18.346L51.0352 22.9743V1.26953C51.0352 0.568369 50.4668 0 49.7656 0H3.04688C2.34571 0 1.77734 0.568369 1.77734 1.26953V24.1424C1.77734 24.8436 2.34571 25.412 3.04688 25.412C3.74804 25.412 4.31641 24.8436 4.31641 24.1424V2.53906H48.4961V25.5134L37.2984 36.711H20.189C19.4878 36.711 18.9194 37.2794 18.9194 37.9806C18.9194 38.6817 19.4878 39.2501 20.189 39.2501H34.7594L30.2896 43.7199C30.1773 43.8323 30.0885 43.9639 30.0257 44.1067L26.1314 52.9615H11.7933C11.0921 52.9615 10.5238 53.5299 10.5238 54.2311C10.5238 54.9322 11.0921 55.5006 11.7933 55.5006H40.1995C40.9006 55.5006 41.469 54.9322 41.469 54.2311C41.469 53.5299 40.9006 52.9615 40.1995 52.9615H33.0008L37.084 51.1655C37.2246 51.1038 37.3561 51.0164 37.4711 50.9015L48.4961 39.8766V57.6367C48.4961 59.481 49.1792 61.1677 50.3037 62.4609H9.14062C6.48058 62.4609 4.31641 60.2968 4.31641 57.6367V35.5682C4.31641 34.867 3.74804 34.2987 3.04688 34.2987C2.34571 34.2987 1.77734 34.867 1.77734 35.5682V57.6367C1.77734 61.6968 5.08054 65 9.14062 65H55.8594C59.9195 65 63.2227 61.6968 63.2227 57.6367V46.1052C63.2227 45.404 62.6543 44.8357 61.9531 44.8357ZM29.4352 51.7559L31.6022 46.8279L34.3632 49.5889L29.4352 51.7559ZM36.5735 48.2084L34.7782 46.413L32.9827 44.6175L56.5614 21.0389L60.1523 24.6297L36.5735 48.2084ZM60.6836 57.6367C60.6836 60.2968 58.5194 62.4609 55.8594 62.4609C53.1993 62.4609 51.0352 60.2968 51.0352 57.6367V47.3747H60.6836V57.6367Z" fill="url(#paint0_linear)"/>
<path d="M24.6288 25.5389C25.9194 25.5389 27.0786 25.114 27.9816 24.3099C28.1585 24.1524 28.3264 23.9792 28.4808 23.7951C28.9313 23.258 28.8611 22.4572 28.324 22.0066C27.7867 21.5559 26.9859 21.6262 26.5355 22.1634C26.4598 22.2536 26.3781 22.3379 26.2929 22.4139C25.8563 22.8027 25.2963 22.9999 24.6289 22.9999C22.8089 22.9999 21.3281 21.5191 21.3281 19.6991C21.3281 17.8791 22.8089 16.3983 24.6289 16.3983C25.2905 16.3983 25.9284 16.5929 26.4735 16.9613C27.0546 17.3539 27.8437 17.201 28.2362 16.6201C28.6287 16.0392 28.4758 15.25 27.8949 14.8575C26.9284 14.2044 25.799 13.8594 24.6289 13.8594C21.4089 13.8594 18.7891 16.4792 18.7891 19.6992C18.7891 22.9193 21.4087 25.5389 24.6288 25.5389Z" fill="url(#paint1_linear)"/>
<path d="M24.6289 31.1249C30.9291 31.1249 36.0547 25.9993 36.0547 19.6991C36.0547 13.3989 30.9291 8.27332 24.6289 8.27332C18.3287 8.27332 13.2031 13.3989 13.2031 19.6991C13.2031 25.9993 18.3287 31.1249 24.6289 31.1249ZM24.6289 10.8124C29.529 10.8124 33.5156 14.799 33.5156 19.6991C33.5156 24.5992 29.529 28.5858 24.6289 28.5858C19.7288 28.5858 15.7422 24.5992 15.7422 19.6991C15.7422 14.799 19.7288 10.8124 24.6289 10.8124Z" fill="url(#paint2_linear)"/>
<path d="M11.7935 47.3748H20.6533C21.3544 47.3748 21.9228 46.8064 21.9228 46.1052C21.9228 45.4041 21.3544 44.8357 20.6533 44.8357H11.7935C11.0923 44.8357 10.5239 45.4041 10.5239 46.1052C10.5239 46.8064 11.0923 47.3748 11.7935 47.3748Z" fill="url(#paint3_linear)"/>
<path d="M11.7935 36.7111C11.0923 36.7111 10.5239 37.2794 10.5239 37.9806C10.5239 38.6818 11.0923 39.2501 11.7935 39.2501H13.0797C13.7809 39.2501 14.3493 38.6818 14.3493 37.9806C14.3493 37.2794 13.7809 36.7111 13.0797 36.7111H11.7935Z" fill="url(#paint4_linear)"/>
<path d="M3.04688 31.125C3.38076 31.125 3.7083 30.9892 3.94443 30.753C4.18057 30.5169 4.31641 30.1894 4.31641 29.8555C4.31641 29.5216 4.18057 29.194 3.94443 28.9579C3.7083 28.7218 3.38076 28.5859 3.04688 28.5859C2.71299 28.5859 2.38545 28.7218 2.14932 28.9579C1.91318 29.194 1.77734 29.5216 1.77734 29.8555C1.77734 30.1894 1.91318 30.5169 2.14932 30.753C2.38545 30.9892 2.71299 31.125 3.04688 31.125Z" fill="url(#paint5_linear)"/>
</g>
<defs>
<linearGradient id="paint0_linear" x1="1.77734" y1="32.4999" x2="63.2227" y2="32.4999" gradientUnits="userSpaceOnUse">
<stop stop-color="#EC577C"/>
<stop offset="0.176598" stop-color="#C557C5"/>
<stop offset="0.415159" stop-color="#6E76FF"/>
<stop offset="1" stop-color="#3639C5"/>
</linearGradient>
<linearGradient id="paint1_linear" x1="18.7891" y1="19.6991" x2="28.7777" y2="19.6991" gradientUnits="userSpaceOnUse">
<stop stop-color="#EC577C"/>
<stop offset="0.176598" stop-color="#C557C5"/>
<stop offset="0.415159" stop-color="#6E76FF"/>
<stop offset="1" stop-color="#3639C5"/>
</linearGradient>
<linearGradient id="paint2_linear" x1="13.2031" y1="19.6991" x2="36.0547" y2="19.6991" gradientUnits="userSpaceOnUse">
<stop stop-color="#EC577C"/>
<stop offset="0.176598" stop-color="#C557C5"/>
<stop offset="0.415159" stop-color="#6E76FF"/>
<stop offset="1" stop-color="#3639C5"/>
</linearGradient>
<linearGradient id="paint3_linear" x1="10.5239" y1="46.1052" x2="21.9228" y2="46.1052" gradientUnits="userSpaceOnUse">
<stop stop-color="#EC577C"/>
<stop offset="0.176598" stop-color="#C557C5"/>
<stop offset="0.415159" stop-color="#6E76FF"/>
<stop offset="1" stop-color="#3639C5"/>
</linearGradient>
<linearGradient id="paint4_linear" x1="10.5239" y1="37.9806" x2="14.3493" y2="37.9806" gradientUnits="userSpaceOnUse">
<stop stop-color="#EC577C"/>
<stop offset="0.176598" stop-color="#C557C5"/>
<stop offset="0.415159" stop-color="#6E76FF"/>
<stop offset="1" stop-color="#3639C5"/>
</linearGradient>
<linearGradient id="paint5_linear" x1="1.77734" y1="29.8555" x2="4.31641" y2="29.8555" gradientUnits="userSpaceOnUse">
<stop stop-color="#EC577C"/>
<stop offset="0.176598" stop-color="#C557C5"/>
<stop offset="0.415159" stop-color="#6E76FF"/>
<stop offset="1" stop-color="#3639C5"/>
</linearGradient>
<clipPath id="clip0">
<rect width="65" height="65" fill="white"/>
</clipPath>
</defs>
</svg>
