<svg width="65" height="65" viewBox="0 0 65 65" fill="none" xmlns="http://www.w3.org/2000/svg">
<g clip-path="url(#clip0)">
<path d="M62.8126 56.1375H60.8937V54.2796C60.8937 51.855 58.918 49.8826 56.4898 49.8826H39.7381C37.3097 49.8826 35.3342 51.855 35.3342 54.2796V56.1375H33.4116C32.2076 56.1375 31.228 57.1162 31.228 58.3191V62.7464C31.228 63.9511 32.2076 64.9315 33.4116 64.9315H42.4118C43.113 64.9315 43.6814 64.363 43.6814 63.6619C43.6814 62.9609 43.113 62.3924 42.4118 62.3924H33.7671V58.6766H62.4608V62.3924H53.816C53.1149 62.3924 52.5465 62.9609 52.5465 63.6619C52.5465 64.363 53.1149 64.9315 53.816 64.9315H62.8127C64.0188 64.9315 65 63.9511 65 62.7464V58.3191C64.9999 57.1162 64.0186 56.1375 62.8126 56.1375ZM37.8733 54.2796C37.8733 53.2552 38.7099 52.4216 39.7381 52.4216H56.4898C57.5181 52.4216 58.3546 53.2551 58.3546 54.2796V56.1375H37.8733V54.2796Z" fill="url(#paint0_linear)"/>
<path d="M57.2275 44.0623C56.5264 44.0623 55.958 44.6308 55.958 45.3318C55.958 46.0328 56.5264 46.6013 57.2275 46.6013H63.1976C63.8988 46.6013 64.4672 46.0328 64.4672 45.3318C64.4672 44.6308 63.8988 44.0623 63.1976 44.0623H57.2275Z" fill="url(#paint1_linear)"/>
<path d="M56.0869 41.0911C56.3069 41.5422 56.7587 41.8044 57.2288 41.8044C57.4156 41.8044 57.6053 41.763 57.7845 41.6755L62.9593 39.1512C63.5895 38.8438 63.8512 38.0838 63.5438 37.4537C63.2365 36.8235 62.4764 36.562 61.8462 36.8692L56.6714 39.3935C56.041 39.701 55.7794 40.4612 56.0869 41.0911Z" fill="url(#paint2_linear)"/>
<path d="M29.3544 38.0331C30.0602 38.033 30.7663 37.765 31.3036 37.2287L33.6426 34.895C33.9301 34.989 34.2291 35.0388 34.5287 35.0388C35.0586 35.0388 35.5876 34.8901 36.0491 34.5961C37.9547 35.325 39.245 36.6164 39.9695 38.5207C39.5771 39.1394 39.3656 39.8667 39.365 40.6354C39.3641 41.7817 39.8422 42.9166 40.6768 43.7493C41.5487 44.6193 42.6819 45.0584 43.7901 45.0584C44.8131 45.0584 45.8147 44.6841 46.5691 43.9289L57.5975 32.925C58.3275 32.1991 58.7299 31.2138 58.7309 30.1505C58.7318 29.0042 58.2537 27.8692 57.4191 27.0366C55.9581 25.5789 53.7627 25.3309 52.1823 26.3324C50.2733 25.6097 48.9784 24.3234 48.2476 22.4238C48.944 21.3338 48.8186 19.8647 47.8674 18.91C47.8665 18.9092 47.8656 18.9081 47.8648 18.9074L39.8479 10.9084C38.8945 9.96276 37.4244 9.83746 36.3304 10.5309C34.4251 9.80204 33.1349 8.51055 32.4104 6.6065C32.8362 5.93581 33.0462 5.14184 33.0095 4.30243C32.9617 3.20936 32.4978 2.17076 31.7031 1.37781C30.0264 -0.295432 27.3825 -0.375285 25.811 1.19779L14.7773 12.2034C14.0495 12.9298 13.6486 13.9151 13.6486 14.978C13.6486 16.1238 14.1268 17.2583 14.9608 18.0906C15.8302 18.958 16.9622 19.3963 18.0706 19.3963C18.8189 19.3963 19.556 19.1956 20.1944 18.7934C22.1047 19.5156 23.4004 20.802 24.1318 22.702C23.6729 23.4234 23.5739 24.3086 23.8333 25.1028L21.496 27.4349C20.9753 27.9546 20.6887 28.6466 20.6887 29.3841C20.6887 29.7223 20.7518 30.0499 20.8673 30.3568L10.0467 41.1531C10.0336 41.1652 10.0198 41.1762 10.0071 41.189C9.9954 41.2007 9.98537 41.2134 9.97433 41.2254L5.51129 45.6784C5.49847 45.6903 5.48501 45.7011 5.47244 45.7135C5.46127 45.7248 5.45162 45.737 5.44083 45.7486L1.55213 49.6286C0.55123 50.6276 0 51.9594 0 53.3786C0 54.7978 0.551357 56.1294 1.55124 57.1271C2.58553 58.1614 3.94481 58.6786 5.30486 58.6786C6.66428 58.6785 8.02433 58.1618 9.06026 57.1281L17.4832 48.7238C17.4963 48.7118 17.51 48.7007 17.5227 48.688C17.5344 48.6764 17.5444 48.6637 17.5555 48.6517L28.3778 37.8534C28.6919 37.9717 29.0228 38.0331 29.3544 38.0331ZM16.6224 45.9961L12.7051 42.0875L22.49 32.3244L26.4073 36.233L16.6224 45.9961ZM12.0895 50.5188L8.17096 46.6115L10.9076 43.881L14.8248 47.7896L12.0895 50.5188ZM54.3038 28.2699C54.7638 28.2699 55.2529 28.4617 55.6258 28.8337C55.9859 29.1931 56.1922 29.6721 56.1919 30.1482C56.1916 30.5315 56.0549 30.8782 55.8057 31.126L44.7742 42.1328C44.2 42.7077 43.1449 42.625 42.4703 41.9518C42.1101 41.5925 41.9038 41.1134 41.9042 40.6373C41.9044 40.2542 42.041 39.9075 42.29 39.6596C42.2923 39.6574 42.2946 39.6551 42.2968 39.6527L53.3165 28.6576C53.3185 28.6556 53.3206 28.6537 53.3226 28.6517C53.5794 28.3953 53.932 28.2699 54.3038 28.2699ZM50.1678 28.2128L41.8509 36.5112C40.9836 34.8449 39.7099 33.5714 38.0399 32.7049L43.8455 26.9121L46.3554 24.408C47.223 26.0753 48.4986 27.347 50.1678 28.2128ZM37.8517 12.6262C37.9271 12.6262 38.002 12.6537 38.057 12.7083L46.0691 20.7025C46.1783 20.8128 46.1795 20.9968 46.0713 21.1047L34.732 32.4189C34.6213 32.5291 34.4327 32.5279 34.3228 32.4189L26.3113 24.425C26.2008 24.3142 26.201 24.1269 26.3088 24.0188L37.642 12.7109C37.6989 12.6542 37.7755 12.6262 37.8517 12.6262ZM16.7543 16.293C16.3941 15.9338 16.1877 15.4545 16.1877 14.978C16.1877 14.5944 16.3238 14.2472 16.5707 14.0009L27.6057 2.99392C28.1802 2.41908 29.2351 2.50211 29.9096 3.17496C30.2529 3.51735 30.4529 3.95699 30.4728 4.41301C30.491 4.82713 30.3545 5.20202 30.09 5.46684C30.0876 5.46926 30.0851 5.4718 30.0827 5.47421L19.0651 16.4673C19.0629 16.4695 19.0605 16.4715 19.0583 16.4737C18.4797 17.0452 17.4257 16.9632 16.7543 16.293ZM22.2122 16.914L30.5292 8.61554C31.396 10.2812 32.6691 11.5542 34.3379 12.4207L26.0235 20.7166C25.1556 19.0503 23.8805 17.7794 22.2122 16.914ZM23.2894 29.2322L25.4121 27.1144L31.6288 33.3174L29.5104 35.4312C29.426 35.5155 29.2831 35.5156 29.1985 35.4312L23.2896 29.5354C23.2385 29.4846 23.2279 29.4249 23.2279 29.3839C23.2277 29.3427 23.2384 29.2831 23.2894 29.2322ZM7.26705 55.3306C6.18465 56.4105 4.42597 56.411 3.34572 55.3306C2.8256 54.8118 2.53906 54.1185 2.53906 53.3786C2.53906 52.6386 2.82547 51.9451 3.34572 51.4262L6.37368 48.4049L10.2922 52.3123L7.26705 55.3306Z" fill="url(#paint3_linear)"/>
<path d="M48.1123 62.3925C47.4111 62.3925 46.8428 62.961 46.8428 63.662C46.8428 64.363 47.4111 64.9315 48.1123 64.9315H48.1195C48.8207 64.9315 49.3855 64.363 49.3855 63.662C49.3855 62.961 48.8135 62.3925 48.1123 62.3925Z" fill="url(#paint4_linear)"/>
</g>
<defs>
<linearGradient id="paint0_linear" x1="31.228" y1="57.407" x2="65" y2="57.407" gradientUnits="userSpaceOnUse">
<stop stop-color="#EC577C"/>
<stop offset="0.176598" stop-color="#C557C5"/>
<stop offset="0.415159" stop-color="#6E76FF"/>
<stop offset="1" stop-color="#3639C5"/>
</linearGradient>
<linearGradient id="paint1_linear" x1="55.958" y1="45.3318" x2="64.4672" y2="45.3318" gradientUnits="userSpaceOnUse">
<stop stop-color="#EC577C"/>
<stop offset="0.176598" stop-color="#C557C5"/>
<stop offset="0.415159" stop-color="#6E76FF"/>
<stop offset="1" stop-color="#3639C5"/>
</linearGradient>
<linearGradient id="paint2_linear" x1="55.958" y1="39.2724" x2="63.6726" y2="39.2724" gradientUnits="userSpaceOnUse">
<stop stop-color="#EC577C"/>
<stop offset="0.176598" stop-color="#C557C5"/>
<stop offset="0.415159" stop-color="#6E76FF"/>
<stop offset="1" stop-color="#3639C5"/>
</linearGradient>
<linearGradient id="paint3_linear" x1="2.29045e-07" y1="29.3734" x2="58.7309" y2="29.3734" gradientUnits="userSpaceOnUse">
<stop stop-color="#EC577C"/>
<stop offset="0.176598" stop-color="#C557C5"/>
<stop offset="0.415159" stop-color="#6E76FF"/>
<stop offset="1" stop-color="#3639C5"/>
</linearGradient>
<linearGradient id="paint4_linear" x1="46.8428" y1="63.662" x2="49.3855" y2="63.662" gradientUnits="userSpaceOnUse">
<stop stop-color="#EC577C"/>
<stop offset="0.176598" stop-color="#C557C5"/>
<stop offset="0.415159" stop-color="#6E76FF"/>
<stop offset="1" stop-color="#3639C5"/>
</linearGradient>
<clipPath id="clip0">
<rect width="65" height="65" fill="white"/>
</clipPath>
</defs>
</svg>
