<svg width="65" height="65" viewBox="0 0 65 65" fill="none" xmlns="http://www.w3.org/2000/svg">
<path d="M32.5 0C14.5784 0 0 14.5798 0 32.5C0 50.4202 14.5784 65 32.5 65C50.4216 65 65 50.4202 65 32.5C65 14.5798 50.4216 0 32.5 0ZM36.4937 60.7431C35.5865 61.7852 34.2799 62.2917 32.5 62.2917C20.946 62.2917 10.93 55.6668 5.99054 46.0285L17.6041 34.415L26.1258 42.9367C26.6548 43.4657 27.5118 43.4657 28.0406 42.9367C28.5697 42.4077 28.5697 41.5507 28.0406 41.0219L25.6128 38.5938L39.2708 24.9358L50.6259 36.2908C43.239 38.8884 37.9195 45.9447 37.9299 54.3559C37.9352 54.3968 38.4721 58.4725 36.4937 60.7431ZM43.2094 60.2681L60.497 42.5849C57.5666 50.692 51.2318 57.1627 43.2094 60.2681ZM40.1376 59.5359C40.9829 56.8471 40.6383 54.1838 40.625 54.1667C40.625 45.206 47.9143 37.9167 56.875 37.9167C58.2003 37.9167 59.4902 38.1321 60.7576 38.4442L40.1376 59.5359ZM56.875 35.2083C55.7794 35.2083 54.7118 35.322 53.6665 35.5016L40.2283 22.0634C39.6993 21.5344 38.8423 21.5344 38.3134 22.0634L23.698 36.6789L18.5617 31.5426C18.0327 31.0136 17.1757 31.0136 16.6469 31.5426L4.7987 43.3908C3.46569 40.0127 2.70842 36.3464 2.70842 32.5001C2.70829 16.0728 16.0728 2.70829 32.5 2.70829C48.9272 2.70829 62.2917 16.0728 62.2917 32.5C62.2917 33.6635 62.2078 34.8065 62.0773 35.9355C60.3921 35.4548 58.6494 35.2083 56.875 35.2083Z" fill="url(#paint0_linear)"/>
<path d="M23.0208 13.5417C19.2863 13.5417 16.25 16.5794 16.25 20.3125C16.25 24.0457 19.2863 27.0833 23.0208 27.0833C26.7554 27.0833 29.7916 24.0457 29.7916 20.3125C29.7916 16.5794 26.7554 13.5417 23.0208 13.5417ZM23.0208 24.375C20.7806 24.375 18.9583 22.5528 18.9583 20.3125C18.9583 18.0723 20.7806 16.25 23.0208 16.25C25.261 16.25 27.0833 18.0723 27.0833 20.3125C27.0833 22.5528 25.261 24.375 23.0208 24.375Z" fill="url(#paint1_linear)"/>
<defs>
<linearGradient id="paint0_linear" x1="2.53494e-07" y1="32.4999" x2="65" y2="32.4999" gradientUnits="userSpaceOnUse">
<stop stop-color="#EC577C"/>
<stop offset="0.176598" stop-color="#C557C5"/>
<stop offset="0.415159" stop-color="#6E76FF"/>
<stop offset="1" stop-color="#3639C5"/>
</linearGradient>
<linearGradient id="paint1_linear" x1="16.25" y1="20.3125" x2="29.7916" y2="20.3125" gradientUnits="userSpaceOnUse">
<stop stop-color="#EC577C"/>
<stop offset="0.176598" stop-color="#C557C5"/>
<stop offset="0.415159" stop-color="#6E76FF"/>
<stop offset="1" stop-color="#3639C5"/>
</linearGradient>
</defs>
</svg>
