<svg width="19" height="20" viewBox="0 0 19 20" fill="none" xmlns="http://www.w3.org/2000/svg">
<path d="M5.49817 0.842926H2.96182C0.986523 0.842926 -0.429796 2.7128 0.202452 4.58662C1.46615 8.33172 3.1655 11.6495 5.37967 13.8637C7.59384 16.0779 10.9117 17.7773 14.6568 19.0409C16.5306 19.6732 18.4005 18.2569 18.4005 16.2816V13.7448C18.4005 13.0187 18.007 12.3497 17.3723 11.9968L15.1626 10.7683L15.0024 10.6884C14.4593 10.4472 13.8333 10.459 13.2963 10.7275L11.275 11.737L11.2271 11.722C11.1472 11.696 11.0575 11.6647 10.9593 11.6276C10.4568 11.4378 9.95336 11.1727 9.48716 10.8232C9.28489 10.6716 9.0937 10.5067 8.91517 10.3282C8.73443 10.1475 8.56757 9.9536 8.41411 9.74828C8.06579 9.28223 7.8009 8.77886 7.61055 8.27634L7.51575 8.00845L7.50002 7.95901L8.51021 5.94077C8.80537 5.35054 8.79031 4.65264 8.47 4.07561L7.24679 1.87219C6.89408 1.23694 6.2247 0.842926 5.49817 0.842926ZM2.96182 2.84293H5.49819L6.72138 5.04629L5.54294 7.40321C5.44431 7.60048 5.41366 7.82484 5.45577 8.04134C5.60346 8.80063 6.00887 9.87087 6.81211 10.9456C7.02177 11.2261 7.25108 11.4925 7.50097 11.7424C7.74789 11.9893 8.01081 12.216 8.28746 12.4234C9.36449 13.2309 10.4373 13.6362 11.1988 13.7822C11.4145 13.8236 11.6379 13.7928 11.8343 13.6945L14.1908 12.5163L16.4005 13.7448V16.2816C16.4005 16.9141 15.8484 17.3322 15.2963 17.1459C11.8184 15.9724 8.74014 14.3958 6.79389 12.4495C4.84763 10.5033 3.27098 7.42499 2.09748 3.9472C1.91116 3.39499 2.32932 2.84293 2.96182 2.84293Z" fill="white"/>
</svg>
