<svg width="90" height="90" viewBox="0 0 90 90" fill="none" xmlns="http://www.w3.org/2000/svg">
<path d="M57.6533 8.93921H30.2676C29.5394 8.93921 28.9493 9.52931 28.9493 10.2576C28.9493 10.9858 29.5394 11.5759 30.2676 11.5759H57.6533C58.3816 11.5759 58.9717 10.9858 58.9717 10.2576C58.9717 9.52931 58.3816 8.93921 57.6533 8.93921Z" fill="url(#paint0_linear)"/>
<path d="M57.6533 16.6564H30.2676C29.5394 16.6564 28.9493 17.2465 28.9493 17.9747C28.9493 18.703 29.5394 19.2931 30.2676 19.2931H57.6533C58.3816 19.2931 58.9717 18.703 58.9717 17.9747C58.9717 17.2465 58.3816 16.6564 57.6533 16.6564Z" fill="url(#paint1_linear)"/>
<path d="M82.8853 45.5944H75.0586V41.9138C75.0586 37.063 71.1122 33.1167 66.2613 33.1167H51.4394C46.5886 33.1167 42.6421 37.063 42.6421 41.9138V45.5944H34.8154C30.879 45.5944 27.7007 48.786 27.7007 52.7091V82.8596C27.7007 86.7825 30.8923 89.9744 34.8154 89.9744H82.8855C86.8084 89.9744 90.0002 86.7827 90.0002 82.8596V77.1467C90.0002 76.4185 89.4101 75.8284 88.6818 75.8284C87.9536 75.8284 87.3635 76.4185 87.3635 77.1467V82.8596C87.3635 85.3288 85.3547 87.3376 82.8855 87.3376H34.8154C32.3462 87.3376 30.3374 85.3288 30.3374 82.8596V64.1744C32.415 66.7361 35.5404 68.4151 39.0549 68.5524V70.5653C39.0549 73.2219 41.2163 75.3833 43.8729 75.3833C46.5295 75.3833 48.6909 73.2219 48.6909 70.5653V68.5616H69.0098V70.5653C69.0098 73.2219 71.1712 75.3833 73.8278 75.3833C76.4844 75.3833 78.6458 73.2219 78.6458 70.5653V68.5524C82.1604 68.4151 85.2857 66.7361 87.3633 64.1744V70.9833C87.3633 71.7116 87.9534 72.3017 88.6817 72.3017C89.4099 72.3017 90 71.7116 90 70.9833V52.7087C90 48.7871 86.8231 45.5944 82.8853 45.5944ZM45.2788 41.9138C45.2788 38.517 48.0424 35.7534 51.4394 35.7534H66.2613C69.6583 35.7534 72.4219 38.517 72.4219 41.9138V45.5944H69.6764V41.9138C69.6764 40.0311 68.1444 38.4991 66.2613 38.4991H51.4394C49.5564 38.4991 48.0245 40.0311 48.0245 41.9138V45.5944H45.2788V41.9138ZM50.6612 45.5944V41.9138C50.6612 41.4849 51.0102 41.1358 51.4394 41.1358H66.2613C66.6904 41.1358 67.0397 41.4848 67.0397 41.9138V45.5944H50.6612ZM46.0542 70.5653C46.0542 71.7682 45.0758 72.7466 43.8729 72.7466C42.67 72.7466 41.6916 71.7682 41.6916 70.5653V65.8524C41.6916 64.6496 42.67 63.6712 43.8729 63.6712C45.0758 63.6712 46.0542 64.6496 46.0542 65.8524V70.5653ZM76.0091 70.5653C76.0091 71.7682 75.0307 72.7466 73.8278 72.7466C72.6249 72.7466 71.6465 71.7682 71.6465 70.5653V67.2567C71.6465 67.2522 71.6467 67.2476 71.6467 67.2432C71.6467 67.2388 71.6465 67.2341 71.6465 67.2297V65.8526C71.6465 64.6497 72.6249 63.6713 73.8278 63.6713C75.0307 63.6713 76.0091 64.6497 76.0091 65.8526V70.5653ZM78.6458 65.9131V65.8526C78.6458 63.196 76.4844 61.0346 73.8278 61.0346C71.1712 61.0346 69.0098 63.196 69.0098 65.8526V65.9249H48.6909V65.8526C48.6909 63.196 46.5295 61.0346 43.8729 61.0346C41.2163 61.0346 39.0549 63.196 39.0549 65.8526V65.9131C34.2067 65.6689 30.3374 61.6479 30.3374 56.7401V52.7087C30.3374 50.236 32.3415 48.2309 34.8154 48.2309H82.8855C85.3531 48.2309 87.3635 50.2297 87.3635 52.7089V56.7401C87.3633 61.6479 83.494 65.6689 78.6458 65.9131Z" fill="url(#paint2_linear)"/>
<path d="M26.001 87.3373H6.51955C4.37853 87.3373 2.63672 85.5955 2.63672 83.4545V20.1288C2.63672 19.8442 2.66713 19.5644 2.72654 19.2928H14.7245C17.2295 19.2928 19.2676 17.2548 19.2676 14.7499V2.75193C19.5391 2.69269 19.819 2.66211 20.1036 2.66211H64.8026C66.9436 2.66211 68.6855 4.40392 68.6855 6.54494V29.1648C68.6855 29.8931 69.2756 30.4832 70.0038 30.4832C70.7321 30.4832 71.3222 29.8931 71.3222 29.1648V6.54494C71.3222 2.95004 68.3975 0.0253906 64.8026 0.0253906H20.1034C18.3619 0.0253906 16.7245 0.703379 15.4932 1.93473L1.90934 15.5187C0.677988 16.7501 0 18.3873 0 20.1288V83.4545C0 87.0494 2.92465 89.9741 6.51955 89.9741H26.001C26.7293 89.9741 27.3194 89.3839 27.3194 88.6557C27.3194 87.9274 26.7293 87.3373 26.001 87.3373ZM16.6307 4.52662V14.7499C16.6307 15.8009 15.7755 16.656 14.7243 16.656H4.50123L16.6307 4.52662Z" fill="url(#paint3_linear)"/>
<defs>
<linearGradient id="paint0_linear" x1="28.9493" y1="10.2576" x2="58.9717" y2="10.2576" gradientUnits="userSpaceOnUse">
<stop stop-color="#EC577C"/>
<stop offset="0.176598" stop-color="#C557C5"/>
<stop offset="0.415159" stop-color="#6E76FF"/>
<stop offset="1" stop-color="#3639C5"/>
</linearGradient>
<linearGradient id="paint1_linear" x1="28.9493" y1="17.9747" x2="58.9717" y2="17.9747" gradientUnits="userSpaceOnUse">
<stop stop-color="#EC577C"/>
<stop offset="0.176598" stop-color="#C557C5"/>
<stop offset="0.415159" stop-color="#6E76FF"/>
<stop offset="1" stop-color="#3639C5"/>
</linearGradient>
<linearGradient id="paint2_linear" x1="27.7007" y1="61.5454" x2="90.0002" y2="61.5454" gradientUnits="userSpaceOnUse">
<stop stop-color="#EC577C"/>
<stop offset="0.176598" stop-color="#C557C5"/>
<stop offset="0.415159" stop-color="#6E76FF"/>
<stop offset="1" stop-color="#3639C5"/>
</linearGradient>
<linearGradient id="paint3_linear" x1="2.7815e-07" y1="44.9995" x2="71.3222" y2="44.9995" gradientUnits="userSpaceOnUse">
<stop stop-color="#EC577C"/>
<stop offset="0.176598" stop-color="#C557C5"/>
<stop offset="0.415159" stop-color="#6E76FF"/>
<stop offset="1" stop-color="#3639C5"/>
</linearGradient>
</defs>
</svg>
