<svg width="86" height="86" viewBox="0 0 86 86" fill="none" xmlns="http://www.w3.org/2000/svg">
<path d="M80.9688 21.9062H79.5625V19.0938H76.75V21.9062H72.8125C69.4375 17.125 64.9375 13.3281 59.875 10.5156V5.03125C59.875 2.64062 58.0469 0.8125 55.6563 0.8125H30.3438C27.9531 0.8125 26.125 2.64062 26.125 5.03125V10.5156C19.9375 13.75 14.875 18.6719 11.3594 24.7188C5.17188 25.1406 0.531253 30.4844 0.812503 36.6719C1.09375 40.4688 3.20313 43.8438 6.57813 45.8125C6.85938 49.1875 7.5625 52.5625 8.6875 55.6562C4.89063 58.1875 3.76563 63.3906 6.4375 67.3281C6.71875 67.75 7.14063 68.1719 7.42188 68.5938L13.4688 74.6406L18.1094 70C20.5 72.25 23.1719 74.0781 26.125 75.625V80.9688C26.125 83.3594 27.9531 85.1875 30.3438 85.1875H55.6563C58.0469 85.1875 59.875 83.3594 59.875 80.9688V75.4844C61.9844 74.3594 63.8125 73.2344 65.6406 71.6875C69.8594 76.3281 76.8906 76.6094 81.5313 72.3906C86.1719 68.1719 86.4531 61.1406 82.2344 56.5C81.1094 55.2344 79.5625 54.25 78.0156 53.5469C78.8594 50.5938 79.4219 47.5 79.5625 44.4062H80.9688C83.3594 44.4062 85.1875 42.5781 85.1875 40.1875V26.125C85.1875 23.7344 83.3594 21.9062 80.9688 21.9062ZM82.375 26.125V27.5312H65.5V26.125C65.5 25.2812 66.0625 24.7188 66.9063 24.7188H80.9688C81.8125 24.7188 82.375 25.2812 82.375 26.125ZM28.9375 5.03125C28.9375 4.1875 29.5 3.625 30.3438 3.625H55.6563C56.5 3.625 57.0625 4.1875 57.0625 5.03125V19.0938C57.0625 19.9375 56.5 20.5 55.6563 20.5H46.6563L43 24.1562L39.3438 20.5H30.3438C29.5 20.5 28.9375 19.9375 28.9375 19.0938V5.03125ZM3.625 35.9688C3.625 31.3281 7.42188 27.5312 12.0625 27.5312C16.7031 27.5312 20.5 31.3281 20.5 35.9688C20.5 40.6094 16.7031 44.4062 12.0625 44.4062C7.42188 44.4062 3.625 40.6094 3.625 35.9688ZM13.4688 70.5625L9.53125 66.625C7.42188 64.5156 7.42188 61 9.53125 58.75C10.5156 57.7656 11.9219 57.0625 13.4688 57.0625H13.6094C16.7031 57.0625 19.0938 59.5938 19.0938 62.5469C19.0938 63.9531 18.5313 65.5 17.4063 66.4844L13.4688 70.5625ZM57.0625 71.125H28.9375V34.5625C28.9375 33.7188 29.5 33.1562 30.3438 33.1562H55.6563C56.5 33.1562 57.0625 33.7188 57.0625 34.5625V71.125ZM55.6563 82.375H30.3438C29.5 82.375 28.9375 81.8125 28.9375 80.9688V73.9375H57.0625V80.9688C57.0625 81.8125 56.5 82.375 55.6563 82.375ZM82.375 64.0938C82.375 68.7344 78.5781 72.5312 73.9375 72.5312C69.2969 72.5312 65.5 68.7344 65.5 64.0938C65.5 59.4531 69.2969 55.6562 73.9375 55.6562C78.5781 55.6562 82.375 59.4531 82.375 64.0938ZM75.2031 52.9844C69.0156 52.2812 63.3906 56.6406 62.6875 62.8281C62.4063 65.0781 62.8281 67.4688 63.9531 69.4375C62.6875 70.4219 61.2813 71.4062 59.875 72.25V34.5625C59.875 32.1719 58.0469 30.3438 55.6563 30.3438H30.3438C27.9531 30.3438 26.125 32.1719 26.125 34.5625V72.25C24.0156 70.9844 21.9063 69.4375 20.0781 67.75C22.8906 64.0937 22.3281 58.8906 18.6719 56.0781C17.2656 54.9531 15.4375 54.25 13.4688 54.25H13.3281C12.625 54.25 11.9219 54.3906 11.2188 54.5312C10.375 52.1406 9.67188 49.4688 9.39063 46.9375C15.4375 48.3438 21.4844 44.5469 22.8906 38.5C24.2969 32.4531 20.5 26.4063 14.4531 25H14.3125C17.2656 20.3594 21.2031 16.5625 25.9844 13.75V19.0938C25.9844 21.4844 27.8125 23.3125 30.2031 23.3125H38.0781L42.8594 28.0938L47.6406 23.3125H55.6563C58.0469 23.3125 59.875 21.4844 59.875 19.0938V13.75C63.5313 15.8594 66.7656 18.6719 69.2969 21.9062H66.9063C64.5156 21.9062 62.6875 23.7344 62.6875 26.125V40.1875C62.6875 42.5781 64.5156 44.4062 66.9063 44.4062H76.75C76.6094 47.3594 76.0469 50.1719 75.2031 52.9844ZM80.9688 41.5938H66.9063C66.0625 41.5938 65.5 41.0312 65.5 40.1875V30.3438H82.375V40.1875C82.375 41.0312 81.8125 41.5938 80.9688 41.5938Z" fill="url(#paint0_linear)"/>
<defs>
<linearGradient id="paint0_linear" x1="0.80037" y1="42.9998" x2="85.2153" y2="42.9998" gradientUnits="userSpaceOnUse">
<stop stop-color="#EC577C"/>
<stop offset="0.176598" stop-color="#C557C5"/>
<stop offset="0.415159" stop-color="#6E76FF"/>
<stop offset="1" stop-color="#3639C5"/>
</linearGradient>
</defs>
</svg>
