<svg width="80" height="86" viewBox="0 0 80 86" fill="none" xmlns="http://www.w3.org/2000/svg">
<path d="M70.0094 20.3594C71.3222 18.2799 72.1223 15.9181 72.3438 13.4688C72.3432 10.6569 71.4063 7.92526 69.6809 5.70497C67.9555 3.48469 65.5398 1.90224 62.8151 1.20736C60.0904 0.512486 57.2119 0.744767 54.6339 1.86754C52.0559 2.99032 49.9252 4.93965 48.5781 7.40787C39.4521 5.36447 29.8969 6.63321 21.6203 10.9873C13.3438 15.3414 6.88547 22.4971 3.39981 31.1752C-0.0858409 39.8533 -0.37163 49.4882 2.59353 58.3576C5.55869 67.2271 11.5815 74.7529 19.5854 79.5899C27.5893 84.4269 37.0526 86.2598 46.2837 84.7609C55.5148 83.262 63.9119 78.5291 69.9741 71.4081C76.0364 64.2871 79.3685 55.2422 79.375 45.8902C79.3814 36.5383 76.0618 27.4888 70.0094 20.3594ZM59.6875 3.62506C62.2973 3.62804 64.7994 4.6661 66.6448 6.51152C68.4902 8.35693 69.5283 10.859 69.5312 13.4688C69.5312 17.6454 63.1609 25.7172 59.6875 29.6547C56.2141 25.7172 49.8438 17.6454 49.8438 13.4688C49.8467 10.859 50.8848 8.35693 52.7302 6.51152C54.5756 4.6661 57.0777 3.62804 59.6875 3.62506ZM62.5281 30.6813C64.3422 31.1454 65.3125 31.961 65.3125 32.4532C65.3125 33.1985 63.175 34.5626 59.6875 34.5626C56.2 34.5626 54.0625 33.1985 54.0625 32.4532C54.0625 31.961 55.0328 31.1454 56.8469 30.6813C57.7328 31.7079 58.4078 32.4391 58.6609 32.7063C58.7917 32.8481 58.9504 32.9613 59.1271 33.0387C59.3038 33.1161 59.4946 33.1561 59.6875 33.1561C59.8804 33.1561 60.0712 33.1161 60.2479 33.0387C60.4246 32.9613 60.5833 32.8481 60.7141 32.7063C60.9672 32.4391 61.6422 31.7079 62.5281 30.6813ZM3.4375 45.8126C3.42715 37.4664 6.29263 29.3716 11.5516 22.8907L13.4219 25.3797L16.1641 33.6063C16.2784 33.9222 16.4965 34.1899 16.7828 34.3657L23.0266 38.1063L21.775 48.0344L13.6891 57.4704L7.88125 63.2782C4.95954 57.9208 3.43146 51.9149 3.4375 45.8126ZM40 82.3751C30.4418 82.3799 21.2647 78.6273 14.4484 71.9266L17.8375 71.0829C18.0858 71.0213 18.3126 70.8932 18.4935 70.7123C18.6744 70.5314 18.8025 70.3046 18.8641 70.0563L20.2141 64.6422L24.0672 58.2298L31.2812 55.8251L37.3703 60.6907L39.9016 69.5782L37.3422 74.711C37.2532 74.8862 37.2022 75.0782 37.1925 75.2745C37.1828 75.4708 37.2146 75.6669 37.2859 75.8501C37.3559 76.0301 37.4618 76.1941 37.5972 76.3319C37.7326 76.4697 37.8946 76.5785 38.0734 76.6516L44.8375 79.3516L47.1437 81.6719C44.7917 82.1424 42.3987 82.3779 40 82.3751ZM61.8109 75.1329C58.3539 77.7099 54.4694 79.6569 50.3359 80.8844L46.6234 77.1579C46.4845 77.0262 46.3224 76.9213 46.1453 76.8485L40.5344 74.6126L42.6578 70.3516C42.8224 70.0402 42.8578 69.6764 42.7562 69.3391L39.9437 59.4954C39.8647 59.2115 39.6972 58.9603 39.4656 58.7782L32.4344 53.1532C32.2501 53.0088 32.0334 52.9116 31.8031 52.8699C31.5727 52.8282 31.3357 52.8434 31.1125 52.9141L22.675 55.7266C22.3591 55.841 22.0914 56.0591 21.9156 56.3454L17.6969 63.3766C17.6227 63.4928 17.5703 63.6214 17.5422 63.7563L16.3469 68.5516L12.2547 69.5782C11.2152 68.3727 10.2569 67.0996 9.38593 65.7673L15.7562 59.3829L24.1937 49.5391C24.3768 49.3306 24.4899 49.0699 24.5172 48.7938L25.9234 37.5438C25.9565 37.2734 25.9103 36.9992 25.7905 36.7546C25.6707 36.5099 25.4823 36.3053 25.2484 36.1657L18.6672 32.2141L16.0234 24.2688C15.9702 24.1291 15.8993 23.9968 15.8125 23.8751L13.4359 20.7251C16.8471 17.1018 20.9634 14.2147 25.5317 12.2414C30.1 10.268 35.0237 9.25 40 9.25006C40.6609 9.25006 41.3219 9.27818 41.9969 9.30631L40.1687 14.1719L34.9094 20.7391L28.2297 23.411C27.968 23.5152 27.7437 23.6956 27.5857 23.9288C27.4278 24.1619 27.3435 24.4372 27.3437 24.7188V30.3438C27.3431 30.6199 27.4265 30.8897 27.5828 31.1172L30.3953 35.336C30.4665 35.4659 30.5678 35.5768 30.6906 35.6594L37.7219 41.2844C37.8703 41.4042 38.0417 41.4923 38.2256 41.5431C38.4094 41.5939 38.6018 41.6064 38.7906 41.5797L47.6359 40.3141L49.8438 44.7438V55.6563C49.8443 55.8448 49.8826 56.0313 49.9562 56.2047L54.175 66.0485C54.3008 66.3565 54.5363 66.607 54.8359 66.7516L62.3875 70.5344L61.8109 75.1329ZM64.975 72.4751L65.2984 69.8876C65.3351 69.6013 65.2816 69.3107 65.1455 69.0562C65.0095 68.8016 64.7975 68.5958 64.5391 68.4672L56.5516 64.4735L52.6562 55.361V44.4063C52.6549 44.1862 52.6019 43.9694 52.5016 43.7735L49.6891 38.1485C49.5579 37.8859 49.3475 37.6712 49.0875 37.5349C48.8275 37.3986 48.5312 37.3476 48.2406 37.3891L39.0016 38.711L32.6172 33.6063L30.1562 29.9219V25.6751L36.3016 23.2141C36.5272 23.1193 36.7254 22.9694 36.8781 22.7782L42.5031 15.7469C42.5993 15.6342 42.6754 15.5058 42.7281 15.3672L44.8937 9.58756C45.7656 9.70006 46.6516 9.86881 47.5094 10.0516C47.1991 11.1644 47.0383 12.3136 47.0312 13.4688C47.0312 17.7719 51.4891 24.1141 54.9203 28.361C52.6422 29.2469 51.25 30.7235 51.25 32.4532C51.25 35.2657 54.8781 37.3751 59.6875 37.3751C64.4969 37.3751 68.125 35.2657 68.125 32.4532C68.125 30.7235 66.7328 29.2469 64.4547 28.361C65.7484 26.7719 67.1547 24.8876 68.4484 22.9188C74.2491 30.0848 77.1163 39.1841 76.4717 48.381C75.8271 57.578 71.7186 66.1883 64.975 72.4751Z" fill="url(#paint0_linear)"/>
<defs>
<linearGradient id="paint0_linear" x1="0.560288" y1="43.0425" x2="79.375" y2="43.0425" gradientUnits="userSpaceOnUse">
<stop stop-color="#EC577C"/>
<stop offset="0.176598" stop-color="#C557C5"/>
<stop offset="0.415159" stop-color="#6E76FF"/>
<stop offset="1" stop-color="#3639C5"/>
</linearGradient>
</defs>
</svg>
