<svg width="97" height="76" viewBox="0 0 97 76" fill="none" xmlns="http://www.w3.org/2000/svg">
<path d="M89.5217 58.2921L84.626 56.328V55.0776C85.5871 54.5435 86.45 53.8485 87.1761 53.0281C90.2728 53.3937 93.2358 52.1575 95.1539 49.6706C97.1374 47.0989 97.5501 43.7846 96.258 40.8049L94.0596 35.7359C93.8943 35.355 93.7807 34.9532 93.7214 34.5422C93.2477 31.2496 91.6022 28.2365 89.0879 26.0582C86.5737 23.8797 83.3571 22.6802 80.0306 22.6802C76.704 22.6802 73.4874 23.8797 70.9732 26.0582C68.4592 28.2365 66.8135 31.2494 66.3398 34.5422C66.2805 34.9534 66.1668 35.3552 66.0015 35.7359L63.8033 40.8049C62.5112 43.7844 62.9239 47.0987 64.9075 49.6706C66.6043 51.8706 69.1183 53.0966 71.8193 53.0964C72.1677 53.0964 72.5195 53.0757 72.8732 53.0342C73.5321 53.7814 74.3048 54.4249 75.1655 54.9372V56.3278L70.2701 58.2921C69.9509 58.4201 69.6394 58.565 69.3357 58.7252C68.3884 56.983 67.0361 55.4595 65.3533 54.3021L58.9769 49.9168C59.0137 49.1115 58.6917 48.3003 58.0357 47.7438L55.4446 45.5452C55.199 45.3366 54.923 45.1791 54.6313 45.072V42.112C57.3701 40.1255 59.3122 37.1073 59.8814 33.6315H60.0374C62.8251 33.6315 65.0931 31.3635 65.0931 28.5759C65.0931 27.3858 64.6786 26.291 63.9879 25.4264L65.033 17.9968C65.7863 12.6409 62.0471 7.63646 56.6972 6.84069L56.4892 6.80989C54.7785 4.01788 52.129 2.00351 48.95 1.10208L48.5674 0.993495C44.3526 -0.201521 39.8443 0.511785 36.1985 2.95094C35.5273 3.3999 35.3471 4.30796 35.7961 4.97896C36.2451 5.64996 37.1529 5.83029 37.8243 5.38113C40.7565 3.41959 44.3813 2.84587 47.7696 3.80675L48.1523 3.91534C50.8124 4.66958 52.9959 6.4274 54.3009 8.865C55.1986 10.5421 55.595 12.3865 55.4805 14.2315L54.4894 13.3796C53.5835 12.6009 52.2514 12.5803 51.3223 13.3308L50.0222 14.381H42.6009C37.7851 14.381 33.8671 18.299 33.8671 23.1147V23.5208C33.4794 23.5222 33.1023 23.5686 32.7397 23.653C31.0868 18.9996 31.5529 13.7568 34.0373 9.46816C34.442 8.76929 34.2038 7.87488 33.5051 7.46997C32.8064 7.06546 31.912 7.30349 31.5071 8.00217C28.5026 13.1889 28.0154 19.5658 30.1754 25.1467C29.3413 26.0485 28.8303 27.2534 28.8303 28.5759C28.8303 31.3635 31.0983 33.6315 33.886 33.6315H34.042C34.6112 37.1073 36.5533 40.1255 39.2921 42.112V45.072C39.0004 45.1789 38.7244 45.3366 38.4789 45.545L35.8877 47.7438C35.2317 48.3003 34.9097 49.1117 34.9465 49.9168L28.5701 54.3021C27.2743 55.1932 26.174 56.3013 25.3037 57.5593C24.7398 57.2477 24.152 56.9814 23.5434 56.7658L19.214 55.2324V54.0801C21.4193 52.7176 23.0046 50.4465 23.4461 47.7929H24.1004C26.6656 47.7929 28.7525 45.706 28.7525 43.1409C28.7525 41.9892 28.3311 40.9349 27.6353 40.1216L27.8963 37.0315C28.2591 32.5817 26.3175 28.3607 22.7022 25.7412C19.0869 23.1214 14.4712 22.5905 10.3555 24.3209L7.44129 25.5461C2.92889 26.5423 -0.087114 30.8662 0.557181 35.4591L1.20908 40.1066C0.505715 40.9218 0.0789795 41.9821 0.0789795 43.1409C0.0789795 45.706 2.16587 47.7929 4.73116 47.7929H5.38539C5.79829 50.2743 7.21184 52.4205 9.19677 53.8029V55.2324L4.86742 56.7656C4.26114 56.9805 3.66383 57.2495 3.09225 57.5657C2.38557 57.9564 2.12942 58.8459 2.52009 59.5526C2.78677 60.0351 3.28603 60.3074 3.80088 60.3074C4.04008 60.3074 4.28278 60.2485 4.50697 60.1245C4.93838 59.8859 5.38812 59.6832 5.84332 59.522L9.58432 58.1969C10.3419 60.0025 12.1276 61.2739 14.2051 61.2739C16.2826 61.2739 18.0683 60.0025 18.8259 58.1969L22.5669 59.5222C23.0375 59.6887 23.4917 59.8959 23.927 60.1392C23.3463 61.6114 23.035 63.1979 23.035 64.8259V73.4998C23.035 74.3074 23.6896 74.9619 24.4971 74.9619C25.3045 74.9619 25.9592 74.3074 25.9592 73.4998V64.8259C25.9592 61.5827 27.5546 58.5494 30.2267 56.7116L36.316 52.5238L38.8119 55.8609C39.3484 56.5783 40.1896 56.9824 41.0573 56.9824C41.3275 56.9824 41.6004 56.9432 41.8673 56.8619L45.4993 55.7566V74.1119C45.4993 74.9195 46.1539 75.574 46.9614 75.574C47.7689 75.574 48.4235 74.9195 48.4235 74.1119V55.7566L52.0559 56.8621C52.3228 56.9432 52.5953 56.9824 52.8655 56.9824C53.733 56.9824 54.5744 56.5781 55.1109 55.8609L57.6066 52.5238L63.6959 56.7116C66.3682 58.5494 67.9635 61.5827 67.9635 64.8259V73.4998C67.9635 74.3074 68.6181 74.9619 69.4256 74.9619C70.233 74.9619 70.8876 74.3074 70.8876 73.4998V64.8259C70.8876 63.6743 70.7315 62.5434 70.4352 61.4588C70.7315 61.2858 71.0397 61.1342 71.3584 61.0063L75.6038 59.3029C76.3559 60.9217 77.9963 62.0475 79.8957 62.0475C81.795 62.0475 83.4355 60.9219 84.1876 59.3031L88.4331 61.0063C91.1177 62.0832 92.8521 64.6481 92.8521 67.5405V70.0153C92.8521 70.823 93.5068 71.4774 94.3142 71.4774C95.1217 71.4774 95.7763 70.823 95.7763 70.0153V67.5405C95.7761 63.4466 93.321 59.8165 89.5217 58.2921ZM31.7539 28.5757C31.7539 27.4069 32.7 26.4555 33.8665 26.4452V30.7059C32.7002 30.6958 31.7539 29.7446 31.7539 28.5757ZM24.1 44.8685H23.572V41.4125H24.1C25.0529 41.4125 25.828 42.1878 25.828 43.1405C25.828 44.0932 25.0529 44.8685 24.1 44.8685ZM3.00277 43.1407C3.00277 42.1878 3.77787 41.4127 4.73077 41.4127H5.25868V44.8687H4.73077C3.77807 44.8685 3.00277 44.0934 3.00277 43.1407ZM7.03444 33.9816C6.06458 35.3209 5.47819 36.8631 5.31034 38.4883H4.73077C4.46252 38.4883 4.20013 38.5125 3.94416 38.5562L3.45271 35.0524C3.01564 31.9372 5.0883 29.0064 8.17117 28.38C8.26552 28.3609 8.35792 28.3325 8.44682 28.295L11.4887 27.016C14.6551 25.6847 18.2054 26.0935 20.9863 28.1085C23.7672 30.1238 25.2609 33.3704 24.9821 36.789L24.8335 38.5464C24.5945 38.5084 24.3497 38.4881 24.1 38.4881H23.5592C23.4332 37.2485 22.3835 36.2776 21.1111 36.2776H17.5007C14.9276 36.2776 12.3814 35.4213 10.3314 33.8666L9.91768 33.5529C9.48334 33.2234 8.92463 33.0803 8.38599 33.1607C7.84678 33.241 7.35415 33.5402 7.03444 33.9816ZM9.40283 35.6967C9.40244 35.6973 9.40225 35.6977 9.40205 35.6981C9.40225 35.6977 9.40264 35.6973 9.40283 35.6967ZM8.18306 39.4615C8.18306 38.4041 8.43785 37.3822 8.9258 36.4621C11.4158 38.232 14.4431 39.2022 17.5009 39.2022H20.6479V46.2854C20.6479 49.7221 17.852 52.518 14.4155 52.518C10.979 52.518 8.18306 49.7221 8.18306 46.2854V39.4615ZM14.2049 58.3498C13.0555 58.3498 12.1206 57.4146 12.1206 56.2654V55.1507C12.8541 55.3408 13.6232 55.4422 14.4155 55.4422C15.0576 55.4422 15.6842 55.3751 16.2895 55.2486V56.2654C16.2895 57.4146 15.3543 58.3498 14.2049 58.3498ZM60.0557 30.7059V26.4452C61.2223 26.4553 62.1683 27.4069 62.1683 28.5757C62.1683 29.7446 61.2223 30.6958 60.0557 30.7059ZM62.1367 17.589L61.2805 23.6752C60.8883 23.5756 60.4779 23.522 60.0555 23.5204V23.4021C60.0555 21.0448 59.3264 18.7774 58.006 16.8827C58.5817 14.6654 58.5614 12.3826 57.9655 10.2129C60.7897 11.4182 62.5832 14.4159 62.1367 17.589ZM36.7909 31.5083V23.1143C36.7909 19.9108 39.3971 17.3048 42.6005 17.3048H50.5387C50.873 17.3048 51.1972 17.1901 51.4572 16.9802L52.8673 15.8411L54.1771 16.9669C56.0546 18.5807 57.1313 20.9265 57.1313 23.4021V31.5081C57.1313 37.1161 52.569 41.6784 46.961 41.6784C41.353 41.6784 36.7909 37.1161 36.7909 31.5083ZM46.9612 44.6028C48.6348 44.6028 50.2342 44.2839 51.7068 43.7092V45.5826L46.9612 47.9095L42.2157 45.5826V43.7092C43.6881 44.2837 45.2876 44.6028 46.9612 44.6028ZM41.1004 54.0383L37.9508 49.8273L40.2506 47.8757L45.4989 50.449V52.6997L41.1004 54.0383ZM52.8219 54.0383L48.4233 52.6999V50.4492L53.6716 47.8759L55.9714 49.8275L52.8219 54.0383ZM67.2227 47.8847C65.899 46.1684 65.6235 43.9569 66.486 41.9685L68.6842 36.8995C68.9528 36.2804 69.1378 35.6275 69.2339 34.9588C70.0014 29.6261 74.6429 25.6046 80.0306 25.6046C85.4183 25.6046 90.0598 29.6261 90.8271 34.9588C90.9232 35.6273 91.1082 36.2802 91.3768 36.8995L93.575 41.9685C94.4372 43.9567 94.162 46.1684 92.8383 47.8847C91.8581 49.1554 90.4691 49.9377 88.9447 50.1254C89.2595 49.3074 89.4648 48.4354 89.5402 47.5266C89.6069 46.7219 89.0084 46.0154 88.2039 45.9487C87.3999 45.8834 86.6928 46.4805 86.626 47.285C86.3443 50.6863 83.4472 53.3506 80.0306 53.3506C76.3798 53.3506 73.41 50.3808 73.41 46.73V39.7161C73.41 38.1608 73.8678 36.6313 74.7109 35.3329C76.6029 36.7771 78.935 37.6031 81.3172 37.666L86.6511 37.8068V41.1747C86.6511 41.9823 87.3058 42.6368 88.1132 42.6368C88.9207 42.6368 89.5753 41.9823 89.5753 41.1747V37.4109C89.5753 36.0357 88.4984 34.9302 87.1239 34.8941L81.3942 34.7432C79.5389 34.6941 77.7246 34.0221 76.2853 32.8515L75.9075 32.5441C75.4618 32.1817 74.9022 32.0156 74.3308 32.077C73.7598 32.138 73.2477 32.4187 72.8892 32.8669C71.3391 34.8035 70.4853 37.236 70.4853 39.7167V46.7306C70.4853 47.9251 70.7077 49.068 71.1103 50.1227C69.5885 49.9336 68.2015 49.1538 67.2227 47.8847ZM79.8955 59.1231C78.8995 59.1231 78.0891 58.3129 78.0891 57.3167V56.0759C78.7163 56.2059 79.3654 56.275 80.0304 56.275C80.5992 56.275 81.1574 56.2215 81.7017 56.1233V57.3169C81.7019 58.3129 80.8915 59.1231 79.8955 59.1231Z" fill="url(#paint0_linear)"/>
<defs>
<linearGradient id="paint0_linear" x1="0.0789799" y1="38.0001" x2="97" y2="38.0001" gradientUnits="userSpaceOnUse">
<stop stop-color="#EC577C"/>
<stop offset="0.176598" stop-color="#C557C5"/>
<stop offset="0.415159" stop-color="#6E76FF"/>
<stop offset="1" stop-color="#3639C5"/>
</linearGradient>
</defs>
</svg>
