<svg width="18" height="18" viewBox="0 0 18 18" fill="none" xmlns="http://www.w3.org/2000/svg">
<g clip-path="url(#clip0)">
<path d="M11.9347 9.58695H0.586957C0.262955 9.58695 0 9.324 0 9C0 8.67601 0.262955 8.41306 0.586957 8.41306H11.9347C12.2587 8.41306 12.5217 8.67601 12.5217 9C12.5217 9.324 12.2587 9.58695 11.9347 9.58695Z" fill="#3A3DC9"/>
<path d="M8.80459 12.7174C8.65426 12.7174 8.50409 12.6603 8.38973 12.5452C8.16045 12.316 8.16045 11.9442 8.38973 11.7148L11.1054 8.99928L8.38973 6.2836C8.16045 6.05432 8.16045 5.68246 8.38973 5.45318C8.61916 5.2239 8.99088 5.2239 9.22016 5.45318L12.3505 8.58371C12.5798 8.81299 12.5798 9.18472 12.3505 9.414L9.22016 12.5444C9.10509 12.6603 8.95491 12.7174 8.80459 12.7174Z" fill="#3A3DC9"/>
<path d="M9.39124 17.6087C5.82952 17.6087 2.68509 15.466 1.37891 12.1492C1.25997 11.8487 1.40857 11.5075 1.70993 11.3885C2.01043 11.2712 2.35249 11.4175 2.47143 11.7204C3.5992 14.584 6.31559 16.4348 9.39124 16.4348C13.4905 16.4348 16.8261 13.0992 16.8261 8.99999C16.8261 4.90076 13.4905 1.56516 9.39124 1.56516C6.31559 1.56516 3.5992 3.41603 2.47143 6.27959C2.35163 6.58252 2.01043 6.72883 1.70993 6.61147C1.40857 6.49253 1.25997 6.15133 1.37891 5.85083C2.68509 2.53401 5.82952 0.391251 9.39124 0.391251C14.1378 0.391251 18 4.25347 18 8.99999C18 13.7465 14.1378 17.6087 9.39124 17.6087Z" fill="#3A3DC9"/>
</g>
<defs>
<clipPath id="clip0">
<rect width="18" height="18" fill="white"/>
</clipPath>
</defs>
</svg>
