<svg width="65" height="65" viewBox="0 0 65 65" fill="none" xmlns="http://www.w3.org/2000/svg">
<path d="M56.875 40.7319V12.1875C56.875 9.38758 54.5968 7.10938 51.7969 7.10938H49.7656V5.07812C49.7656 3.39798 48.3989 2.03125 46.7188 2.03125C45.0386 2.03125 43.6719 3.39798 43.6719 5.07812V7.10938H38.5938V5.07812C38.5938 3.39798 37.227 2.03125 35.5469 2.03125C33.8667 2.03125 32.5 3.39798 32.5 5.07812V7.10938H26.4062V5.07812C26.4062 3.39798 25.0395 2.03125 23.3594 2.03125C21.6792 2.03125 20.3125 3.39798 20.3125 5.07812V7.10938H15.2344V5.07812C15.2344 3.39798 13.8676 2.03125 12.1875 2.03125C10.5074 2.03125 9.14062 3.39798 9.14062 5.07812V7.10938H7.10938C4.30946 7.10938 2.03125 9.38758 2.03125 12.1875V52.8125C2.03125 55.6124 4.30946 57.8906 7.10938 57.8906H41.2582C43.3694 61.5274 47.2973 63.9844 51.7969 63.9844C58.5175 63.9844 63.9844 58.5175 63.9844 51.7969C63.9844 46.89 61.0638 42.6623 56.875 40.7319ZM45.7031 5.07812C45.7031 4.51774 46.1584 4.0625 46.7188 4.0625C47.2791 4.0625 47.7344 4.51774 47.7344 5.07812V11.1719C47.7344 11.7323 47.2791 12.1875 46.7188 12.1875C46.1584 12.1875 45.7031 11.7323 45.7031 11.1719V5.07812ZM34.5312 5.07812C34.5312 4.51774 34.9865 4.0625 35.5469 4.0625C36.1073 4.0625 36.5625 4.51774 36.5625 5.07812V11.1719C36.5625 11.7323 36.1073 12.1875 35.5469 12.1875C34.9865 12.1875 34.5312 11.7323 34.5312 11.1719V5.07812ZM22.3438 5.07812C22.3438 4.51774 22.799 4.0625 23.3594 4.0625C23.9198 4.0625 24.375 4.51774 24.375 5.07812V11.1719C24.375 11.7323 23.9198 12.1875 23.3594 12.1875C22.799 12.1875 22.3438 11.7323 22.3438 11.1719V5.07812ZM11.1719 5.07812C11.1719 4.51774 11.6271 4.0625 12.1875 4.0625C12.7479 4.0625 13.2031 4.51774 13.2031 5.07812V11.1719C13.2031 11.7323 12.7479 12.1875 12.1875 12.1875C11.6271 12.1875 11.1719 11.7323 11.1719 11.1719V5.07812ZM7.10938 9.14062H9.14062V11.1719C9.14062 12.852 10.5074 14.2188 12.1875 14.2188C13.8676 14.2188 15.2344 12.852 15.2344 11.1719V9.14062H20.3125V11.1719C20.3125 12.852 21.6792 14.2188 23.3594 14.2188C25.0395 14.2188 26.4062 12.852 26.4062 11.1719V9.14062H32.5V11.1719C32.5 12.852 33.8667 14.2188 35.5469 14.2188C37.227 14.2188 38.5938 12.852 38.5938 11.1719V9.14062H43.6719V11.1719C43.6719 12.852 45.0386 14.2188 46.7188 14.2188C48.3989 14.2188 49.7656 12.852 49.7656 11.1719V9.14062H51.7969C53.477 9.14062 54.8438 10.5074 54.8438 12.1875V17.2656H4.0625V12.1875C4.0625 10.5074 5.42923 9.14062 7.10938 9.14062ZM7.10938 55.8594C5.42923 55.8594 4.0625 54.4926 4.0625 52.8125V19.2969H54.8438V40.0104C53.8679 39.7578 52.8506 39.6094 51.7969 39.6094C51.1034 39.6094 50.4277 39.681 49.7656 39.7928V34.5312C49.7656 33.9699 49.3114 33.5156 48.75 33.5156H42.6562C42.0949 33.5156 41.6406 33.9699 41.6406 34.5312V40.625C41.6406 41.1864 42.0949 41.6406 42.6562 41.6406H45.0743C41.7846 43.8253 39.6094 47.5601 39.6094 51.7969C39.6094 53.2229 39.8683 54.5864 40.3203 55.8594H7.10938ZM47.7344 39.6094H43.6719V35.5469H47.7344V39.6094ZM51.7969 61.9531C46.1971 61.9531 41.6406 57.3967 41.6406 51.7969C41.6406 46.1971 46.1971 41.6406 51.7969 41.6406C57.3967 41.6406 61.9531 46.1971 61.9531 51.7969C61.9531 57.3967 57.3967 61.9531 51.7969 61.9531Z" fill="url(#paint0_linear)"/>
<path d="M52.8125 50.0474V43.6719H50.7812V50.0474C50.1767 50.3992 49.7656 51.0469 49.7656 51.7969C49.7656 51.8997 49.7811 51.9983 49.7959 52.097L46.084 55.0659L47.3535 56.6528L51.0622 53.6859C51.2906 53.7748 51.537 53.8281 51.7969 53.8281C52.9187 53.8281 53.8281 52.9187 53.8281 51.7969C53.8281 51.0469 53.4171 50.3992 52.8125 50.0474Z" fill="url(#paint1_linear)"/>
<path d="M15.2344 22.3438H9.14062C8.57926 22.3438 8.125 22.798 8.125 23.3594V29.4531C8.125 30.0145 8.57926 30.4688 9.14062 30.4688H15.2344C15.7957 30.4688 16.25 30.0145 16.25 29.4531V23.3594C16.25 22.798 15.7957 22.3438 15.2344 22.3438ZM14.2188 28.4375H10.1562V24.375H14.2188V28.4375Z" fill="url(#paint2_linear)"/>
<path d="M26.4062 22.3438H20.3125C19.7511 22.3438 19.2969 22.798 19.2969 23.3594V29.4531C19.2969 30.0145 19.7511 30.4688 20.3125 30.4688H26.4062C26.9676 30.4688 27.4219 30.0145 27.4219 29.4531V23.3594C27.4219 22.798 26.9676 22.3438 26.4062 22.3438ZM25.3906 28.4375H21.3281V24.375H25.3906V28.4375Z" fill="url(#paint3_linear)"/>
<path d="M37.5781 22.3438H31.4844C30.923 22.3438 30.4688 22.798 30.4688 23.3594V29.4531C30.4688 30.0145 30.923 30.4688 31.4844 30.4688H37.5781C38.1395 30.4688 38.5938 30.0145 38.5938 29.4531V23.3594C38.5938 22.798 38.1395 22.3438 37.5781 22.3438ZM36.5625 28.4375H32.5V24.375H36.5625V28.4375Z" fill="url(#paint4_linear)"/>
<path d="M42.6562 30.4688H48.75C49.3114 30.4688 49.7656 30.0145 49.7656 29.4531V23.3594C49.7656 22.798 49.3114 22.3438 48.75 22.3438H42.6562C42.0949 22.3438 41.6406 22.798 41.6406 23.3594V29.4531C41.6406 30.0145 42.0949 30.4688 42.6562 30.4688ZM43.6719 24.375H47.7344V28.4375H43.6719V24.375Z" fill="url(#paint5_linear)"/>
<path d="M15.2344 33.5156H9.14062C8.57926 33.5156 8.125 33.9699 8.125 34.5312V40.625C8.125 41.1864 8.57926 41.6406 9.14062 41.6406H15.2344C15.7957 41.6406 16.25 41.1864 16.25 40.625V34.5312C16.25 33.9699 15.7957 33.5156 15.2344 33.5156ZM14.2188 39.6094H10.1562V35.5469H14.2188V39.6094Z" fill="url(#paint6_linear)"/>
<path d="M26.4062 33.5156H20.3125C19.7511 33.5156 19.2969 33.9699 19.2969 34.5312V40.625C19.2969 41.1864 19.7511 41.6406 20.3125 41.6406H26.4062C26.9676 41.6406 27.4219 41.1864 27.4219 40.625V34.5312C27.4219 33.9699 26.9676 33.5156 26.4062 33.5156ZM25.3906 39.6094H21.3281V35.5469H25.3906V39.6094Z" fill="url(#paint7_linear)"/>
<path d="M37.5781 33.5156H31.4844C30.923 33.5156 30.4688 33.9699 30.4688 34.5312V40.625C30.4688 41.1864 30.923 41.6406 31.4844 41.6406H37.5781C38.1395 41.6406 38.5938 41.1864 38.5938 40.625V34.5312C38.5938 33.9699 38.1395 33.5156 37.5781 33.5156ZM36.5625 39.6094H32.5V35.5469H36.5625V39.6094Z" fill="url(#paint8_linear)"/>
<path d="M15.2344 44.6875H9.14062C8.57926 44.6875 8.125 45.1418 8.125 45.7031V51.7969C8.125 52.3582 8.57926 52.8125 9.14062 52.8125H15.2344C15.7957 52.8125 16.25 52.3582 16.25 51.7969V45.7031C16.25 45.1418 15.7957 44.6875 15.2344 44.6875ZM14.2188 50.7812H10.1562V46.7188H14.2188V50.7812Z" fill="url(#paint9_linear)"/>
<path d="M26.4062 44.6875H20.3125C19.7511 44.6875 19.2969 45.1418 19.2969 45.7031V51.7969C19.2969 52.3582 19.7511 52.8125 20.3125 52.8125H26.4062C26.9676 52.8125 27.4219 52.3582 27.4219 51.7969V45.7031C27.4219 45.1418 26.9676 44.6875 26.4062 44.6875ZM25.3906 50.7812H21.3281V46.7188H25.3906V50.7812Z" fill="url(#paint10_linear)"/>
<path d="M37.5781 44.6875H31.4844C30.923 44.6875 30.4688 45.1418 30.4688 45.7031V51.7969C30.4688 52.3582 30.923 52.8125 31.4844 52.8125H37.5781C38.1395 52.8125 38.5938 52.3582 38.5938 51.7969V45.7031C38.5938 45.1418 38.1395 44.6875 37.5781 44.6875ZM36.5625 50.7812H32.5V46.7188H36.5625V50.7812Z" fill="url(#paint11_linear)"/>
<defs>
<linearGradient id="paint0_linear" x1="2.03125" y1="33.0077" x2="63.9844" y2="33.0077" gradientUnits="userSpaceOnUse">
<stop stop-color="#EC577C"/>
<stop offset="0.176598" stop-color="#C557C5"/>
<stop offset="0.415159" stop-color="#6E76FF"/>
<stop offset="1" stop-color="#3639C5"/>
</linearGradient>
<linearGradient id="paint1_linear" x1="46.084" y1="50.1623" x2="53.8281" y2="50.1623" gradientUnits="userSpaceOnUse">
<stop stop-color="#EC577C"/>
<stop offset="0.176598" stop-color="#C557C5"/>
<stop offset="0.415159" stop-color="#6E76FF"/>
<stop offset="1" stop-color="#3639C5"/>
</linearGradient>
<linearGradient id="paint2_linear" x1="8.125" y1="26.4062" x2="16.25" y2="26.4062" gradientUnits="userSpaceOnUse">
<stop stop-color="#EC577C"/>
<stop offset="0.176598" stop-color="#C557C5"/>
<stop offset="0.415159" stop-color="#6E76FF"/>
<stop offset="1" stop-color="#3639C5"/>
</linearGradient>
<linearGradient id="paint3_linear" x1="19.2969" y1="26.4062" x2="27.4219" y2="26.4062" gradientUnits="userSpaceOnUse">
<stop stop-color="#EC577C"/>
<stop offset="0.176598" stop-color="#C557C5"/>
<stop offset="0.415159" stop-color="#6E76FF"/>
<stop offset="1" stop-color="#3639C5"/>
</linearGradient>
<linearGradient id="paint4_linear" x1="30.4688" y1="26.4062" x2="38.5938" y2="26.4062" gradientUnits="userSpaceOnUse">
<stop stop-color="#EC577C"/>
<stop offset="0.176598" stop-color="#C557C5"/>
<stop offset="0.415159" stop-color="#6E76FF"/>
<stop offset="1" stop-color="#3639C5"/>
</linearGradient>
<linearGradient id="paint5_linear" x1="41.6406" y1="26.4062" x2="49.7656" y2="26.4062" gradientUnits="userSpaceOnUse">
<stop stop-color="#EC577C"/>
<stop offset="0.176598" stop-color="#C557C5"/>
<stop offset="0.415159" stop-color="#6E76FF"/>
<stop offset="1" stop-color="#3639C5"/>
</linearGradient>
<linearGradient id="paint6_linear" x1="8.125" y1="37.5781" x2="16.25" y2="37.5781" gradientUnits="userSpaceOnUse">
<stop stop-color="#EC577C"/>
<stop offset="0.176598" stop-color="#C557C5"/>
<stop offset="0.415159" stop-color="#6E76FF"/>
<stop offset="1" stop-color="#3639C5"/>
</linearGradient>
<linearGradient id="paint7_linear" x1="19.2969" y1="37.5781" x2="27.4219" y2="37.5781" gradientUnits="userSpaceOnUse">
<stop stop-color="#EC577C"/>
<stop offset="0.176598" stop-color="#C557C5"/>
<stop offset="0.415159" stop-color="#6E76FF"/>
<stop offset="1" stop-color="#3639C5"/>
</linearGradient>
<linearGradient id="paint8_linear" x1="30.4688" y1="37.5781" x2="38.5938" y2="37.5781" gradientUnits="userSpaceOnUse">
<stop stop-color="#EC577C"/>
<stop offset="0.176598" stop-color="#C557C5"/>
<stop offset="0.415159" stop-color="#6E76FF"/>
<stop offset="1" stop-color="#3639C5"/>
</linearGradient>
<linearGradient id="paint9_linear" x1="8.125" y1="48.75" x2="16.25" y2="48.75" gradientUnits="userSpaceOnUse">
<stop stop-color="#EC577C"/>
<stop offset="0.176598" stop-color="#C557C5"/>
<stop offset="0.415159" stop-color="#6E76FF"/>
<stop offset="1" stop-color="#3639C5"/>
</linearGradient>
<linearGradient id="paint10_linear" x1="19.2969" y1="48.75" x2="27.4219" y2="48.75" gradientUnits="userSpaceOnUse">
<stop stop-color="#EC577C"/>
<stop offset="0.176598" stop-color="#C557C5"/>
<stop offset="0.415159" stop-color="#6E76FF"/>
<stop offset="1" stop-color="#3639C5"/>
</linearGradient>
<linearGradient id="paint11_linear" x1="30.4688" y1="48.75" x2="38.5938" y2="48.75" gradientUnits="userSpaceOnUse">
<stop stop-color="#EC577C"/>
<stop offset="0.176598" stop-color="#C557C5"/>
<stop offset="0.415159" stop-color="#6E76FF"/>
<stop offset="1" stop-color="#3639C5"/>
</linearGradient>
</defs>
</svg>
