<svg width="65" height="65" viewBox="0 0 65 65" fill="none" xmlns="http://www.w3.org/2000/svg">
<g clip-path="url(#clip0)">
<path d="M61.901 38.0725H60.9283V29.3108C60.9283 27.9237 60.2379 26.6956 59.1836 25.9493V24.7564C59.1836 23.0259 57.7758 21.6181 56.0453 21.6181H55.319L58.0979 17.5404C59.0294 16.1736 58.6752 14.3037 57.3084 13.3721L38.4519 0.521903C37.7898 0.0705841 36.9918 -0.0959784 36.2042 0.0534455C35.417 0.202615 34.7348 0.649364 34.2837 1.31155L18.0081 25.1944H13.4791L14.5718 14.1329C14.5841 14.0083 14.6651 13.9002 14.7781 13.8577C16.1858 13.3269 17.4059 12.3357 18.2133 11.0666C18.2769 10.9667 18.3969 10.9096 18.521 10.9222L25.6247 11.624C26.134 11.6733 26.5871 11.3024 26.6374 10.7933C26.6877 10.2842 26.3158 9.83087 25.8067 9.7806L18.7031 9.0788C17.8785 8.99806 17.0922 9.37803 16.6504 10.0722C16.0567 11.0053 15.1597 11.734 14.1246 12.1243C13.3455 12.418 12.8105 13.1178 12.7283 13.9508L11.6177 25.1942H10.4367L12.1647 7.69958C12.2269 7.06989 12.789 6.60727 13.4194 6.67037L27.7745 8.08844C28.2836 8.13757 28.7369 7.76686 28.7872 7.25778C28.8375 6.7487 28.4656 6.29535 27.9566 6.24508L13.6015 4.82701C11.9556 4.66464 10.4839 5.87133 10.3212 7.5174L8.92832 21.6181H6.5562C4.82583 21.6181 3.41792 23.0259 3.41792 24.7564V25.5701C2.00227 26.2219 1.0166 27.6529 1.0166 29.3108V60.8834C1.0166 63.1533 2.86326 65 5.13331 65H56.8117C59.0817 65 60.9283 63.1533 60.9283 60.8834V52.1219H61.901C63.0492 52.1219 63.9832 51.1879 63.9832 50.0398V40.1546C63.9833 39.0065 63.0492 38.0725 61.901 38.0725ZM56.0453 23.4706C56.7545 23.4705 57.3312 24.0473 57.3312 24.7565V25.2284C57.1609 25.2068 56.9878 25.1945 56.8117 25.1945H52.8819L54.0566 23.4706H56.0453ZM35.8143 2.3546C35.987 2.10133 36.2479 1.93045 36.549 1.87332C36.621 1.85973 36.6932 1.85288 36.765 1.85288C36.9931 1.85288 37.216 1.92118 37.4087 2.05245L56.2652 14.9026C56.788 15.259 56.9236 15.9743 56.5674 16.497L50.6404 25.1941H49.218L52.1239 20.9301C52.5951 20.2386 52.634 19.3586 52.2249 18.6333C51.6813 17.6697 51.4609 16.5351 51.6044 15.4384C51.711 14.6225 51.352 13.826 50.6675 13.3595L40.8923 6.69805C40.2077 6.23149 39.335 6.18871 38.6147 6.58645C37.6466 7.12093 36.51 7.33078 35.4144 7.17742C34.6019 7.06342 33.7779 7.43031 33.3136 8.11141L21.6721 25.1942H20.2497L35.8143 2.3546ZM36.2222 18.0829C32.1888 18.0829 28.8779 21.228 28.6081 25.1942H23.9135L34.844 9.15459C34.8442 9.15459 34.8442 9.15459 34.8442 9.15459C34.9062 9.06331 35.0092 9.00897 35.1149 9.00897C35.129 9.00897 35.1431 9.00999 35.1572 9.01189C36.6474 9.22035 38.193 8.93521 39.5098 8.20815C39.6134 8.15077 39.7464 8.15902 39.849 8.22885L49.6243 14.8905C49.7266 14.9603 49.7829 15.0811 49.7676 15.1984C49.5725 16.69 49.8724 18.233 50.6116 19.5434C50.6709 19.6487 50.6637 19.7835 50.5933 19.887L46.9767 25.1941H43.8368C43.5667 21.228 40.2559 18.0829 36.2222 18.0829ZM41.9793 25.1944H30.4653C30.7306 22.2504 33.2105 19.9354 36.2222 19.9354C39.2341 19.9353 41.7141 22.2504 41.9793 25.1944ZM5.27029 24.7564C5.27029 24.0472 5.84704 23.4703 6.5562 23.4703H8.74538L8.57514 25.1942H5.27029V24.7564ZM2.86897 29.3108C2.86897 28.0624 3.88473 27.0466 5.13331 27.0466H56.8117C58.0603 27.0466 59.0759 28.0624 59.0759 29.3108V31.8809H2.86897V29.3108ZM59.0759 60.8834C59.0759 62.1319 58.0603 63.1476 56.8117 63.1476H5.13331C3.88473 63.1476 2.86897 62.1319 2.86897 60.8834V58.3134H7.86356C8.37519 58.3134 8.78969 57.8988 8.78969 57.3873C8.78969 56.8758 8.37506 56.4611 7.86356 56.4611H2.86897V33.7332H59.0759V38.0725H50.2697H50.2696C47.4949 38.0725 45.0914 39.6899 43.9508 42.031C43.9469 42.0389 43.9426 42.0465 43.9387 42.0544C43.929 42.0743 43.9207 42.095 43.9113 42.1151C43.7754 42.4036 43.6574 42.7023 43.5613 43.0106C43.561 43.0115 43.5607 43.0122 43.5605 43.0131C43.3555 43.6719 43.2449 44.3718 43.2449 45.0972C43.2449 48.9706 46.3961 52.1219 50.2695 52.1219H50.2696H59.0758V56.4611H13.7941C13.2824 56.4611 12.8679 56.8758 12.8679 57.3873C12.8679 57.8988 13.2826 58.3134 13.7941 58.3134H59.0759V60.8834ZM62.1309 50.0397C62.1309 50.1664 62.0279 50.2695 61.901 50.2695H50.2698C48.3091 50.2695 46.5995 49.1728 45.7226 47.5606C45.6828 47.4873 45.6447 47.4129 45.6082 47.3377C45.5355 47.187 45.4699 47.0322 45.4119 46.8738C45.2085 46.3195 45.0975 45.721 45.0975 45.0972C45.0975 44.4733 45.2086 43.8749 45.4119 43.3206C45.47 43.1623 45.5356 43.0075 45.6082 42.8567C45.6447 42.7814 45.6828 42.707 45.7226 42.6338C46.5995 41.0216 48.3091 39.9249 50.2698 39.9249H61.901C62.0277 39.9249 62.1309 40.0279 62.1309 40.1546V50.0397Z" fill="url(#paint0_linear)"/>
<path d="M50.4863 41.3394C48.4142 41.3394 46.7285 43.0252 46.7285 45.0972C46.7285 47.1692 48.4142 48.8549 50.4863 48.8549C52.5585 48.8549 54.2441 47.1692 54.2441 45.0972C54.2441 43.0252 52.5585 41.3394 50.4863 41.3394ZM50.4863 47.0025C49.4357 47.0025 48.5809 46.1477 48.5809 45.0972C48.5809 44.0466 49.4357 43.1917 50.4863 43.1917C51.537 43.1917 52.3918 44.0465 52.3918 45.0972C52.3918 46.1478 51.537 47.0025 50.4863 47.0025Z" fill="url(#paint1_linear)"/>
</g>
<defs>
<linearGradient id="paint0_linear" x1="1.0166" y1="32.4999" x2="63.9832" y2="32.4999" gradientUnits="userSpaceOnUse">
<stop stop-color="#EC577C"/>
<stop offset="0.176598" stop-color="#C557C5"/>
<stop offset="0.415159" stop-color="#6E76FF"/>
<stop offset="1" stop-color="#3639C5"/>
</linearGradient>
<linearGradient id="paint1_linear" x1="46.7285" y1="45.0971" x2="54.2441" y2="45.0971" gradientUnits="userSpaceOnUse">
<stop stop-color="#EC577C"/>
<stop offset="0.176598" stop-color="#C557C5"/>
<stop offset="0.415159" stop-color="#6E76FF"/>
<stop offset="1" stop-color="#3639C5"/>
</linearGradient>
<clipPath id="clip0">
<rect width="65" height="65" fill="white"/>
</clipPath>
</defs>
</svg>
