<svg width="68" height="68" viewBox="0 0 68 68" fill="none" xmlns="http://www.w3.org/2000/svg">
<path d="M39.3125 44.625H28.6875C28.4057 44.625 28.1355 44.7369 27.9362 44.9362C27.7369 45.1355 27.625 45.4057 27.625 45.6875C27.625 45.9693 27.7369 46.2395 27.9362 46.4388C28.1355 46.6381 28.4057 46.75 28.6875 46.75H39.3125C39.5943 46.75 39.8645 46.6381 40.0638 46.4388C40.2631 46.2395 40.375 45.9693 40.375 45.6875C40.375 45.4057 40.2631 45.1355 40.0638 44.9362C39.8645 44.7369 39.5943 44.625 39.3125 44.625Z" fill="url(#paint0_linear)"/>
<path d="M47.8125 46.75C48.0943 46.75 48.3645 46.6381 48.5638 46.4388C48.7631 46.2395 48.875 45.9693 48.875 45.6875C48.875 45.4057 48.7631 45.1355 48.5638 44.9362C48.3645 44.7369 48.0943 44.625 47.8125 44.625H44.625C44.3432 44.625 44.073 44.7369 43.8737 44.9362C43.6744 45.1355 43.5625 45.4057 43.5625 45.6875C43.5625 45.9693 43.6744 46.2395 43.8737 46.4388C44.073 46.6381 44.3432 46.75 44.625 46.75H47.8125Z" fill="url(#paint1_linear)"/>
<path d="M23.375 46.75C23.9618 46.75 24.4375 46.2743 24.4375 45.6875C24.4375 45.1007 23.9618 44.625 23.375 44.625C22.7882 44.625 22.3125 45.1007 22.3125 45.6875C22.3125 46.2743 22.7882 46.75 23.375 46.75Z" fill="url(#paint2_linear)"/>
<path d="M19.125 46.75C19.7118 46.75 20.1875 46.2743 20.1875 45.6875C20.1875 45.1007 19.7118 44.625 19.125 44.625C18.5382 44.625 18.0625 45.1007 18.0625 45.6875C18.0625 46.2743 18.5382 46.75 19.125 46.75Z" fill="url(#paint3_linear)"/>
<path d="M62.9531 51L65.6625 47.3875C65.7809 47.2296 65.853 47.0419 65.8707 46.8454C65.8884 46.6489 65.8511 46.4513 65.7628 46.2748C65.6746 46.0983 65.5389 45.9499 65.3711 45.8462C65.2032 45.7424 65.0098 45.6875 64.8125 45.6875H58.4375V41.4375C58.4375 41.1557 58.3256 40.8855 58.1263 40.6862C57.9271 40.4869 57.6568 40.375 57.375 40.375H10.625C10.3432 40.375 10.073 40.4869 9.8737 40.6862C9.67444 40.8855 9.5625 41.1557 9.5625 41.4375V45.6875H3.1875C2.90571 45.6875 2.63546 45.7994 2.4362 45.9987C2.23694 46.198 2.125 46.4682 2.125 46.75C2.125 47.0318 2.23694 47.302 2.4362 47.5013C2.63546 47.7006 2.90571 47.8125 3.1875 47.8125H9.5625V49.9375C9.56616 50.1052 9.60946 50.2696 9.68887 50.4174C9.76828 50.5651 9.88154 50.6919 10.0194 50.7875L14.7475 54.1875H5.3125L7.225 51.6375C7.30872 51.5259 7.36963 51.3989 7.40426 51.2637C7.43889 51.1285 7.44656 50.9879 7.42682 50.8497C7.40709 50.7116 7.36034 50.5787 7.28926 50.4587C7.21817 50.3386 7.12412 50.2337 7.0125 50.15C6.90088 50.0663 6.77386 50.0054 6.63869 49.9707C6.50353 49.9361 6.36287 49.9284 6.22474 49.9482C6.08661 49.9679 5.95373 50.0147 5.83366 50.0857C5.7136 50.1568 5.60872 50.2509 5.525 50.3625L2.3375 54.6125C2.21911 54.7704 2.14701 54.9581 2.12929 55.1546C2.11157 55.3511 2.14893 55.5487 2.23717 55.7252C2.32542 55.9017 2.46106 56.0501 2.62891 56.1538C2.79676 56.2576 2.99018 56.3125 3.1875 56.3125H18.0625C18.3443 56.3125 18.6145 56.2006 18.8138 56.0013C19.0131 55.802 19.125 55.5318 19.125 55.25V51H38.25C38.5318 51 38.802 50.8881 39.0013 50.6888C39.2006 50.4895 39.3125 50.2193 39.3125 49.9375C39.3125 49.6557 39.2006 49.3855 39.0013 49.1862C38.802 48.9869 38.5318 48.875 38.25 48.875H11.6875V42.5H56.3125V48.875H42.5C42.2182 48.875 41.948 48.9869 41.7487 49.1862C41.5494 49.3855 41.4375 49.6557 41.4375 49.9375C41.4375 50.2193 41.5494 50.4895 41.7487 50.6888C41.948 50.8881 42.2182 51 42.5 51H48.875V55.25C48.875 55.5318 48.9869 55.802 49.1862 56.0013C49.3855 56.2006 49.6557 56.3125 49.9375 56.3125H64.8125C65.0098 56.3125 65.2032 56.2576 65.3711 56.1538C65.5389 56.0501 65.6746 55.9017 65.7628 55.7252C65.8511 55.5487 65.8884 55.3511 65.8707 55.1546C65.853 54.9581 65.7809 54.7704 65.6625 54.6125L62.9531 51ZM17 53.1888L13.94 51H17V53.1888ZM54.06 51L51 53.1888V51H54.06ZM60.775 51.6375L62.6875 54.1875H53.2525L57.9913 50.7981C58.1286 50.7004 58.2407 50.5713 58.3183 50.4217C58.3959 50.272 58.4367 50.1061 58.4375 49.9375V47.8125H62.6875L60.775 50.3625C60.6371 50.5464 60.5625 50.7701 60.5625 51C60.5625 51.2299 60.6371 51.4536 60.775 51.6375Z" fill="url(#paint4_linear)"/>
<path d="M38.4413 38.165C38.5764 38.2196 38.7205 38.2484 38.8663 38.25C39.0718 38.2487 39.2726 38.1877 39.4442 38.0746C39.6158 37.9614 39.7509 37.8009 39.8331 37.6125C40.1911 36.8101 40.3757 35.9411 40.375 35.0625C40.375 33.3717 39.7034 31.7502 38.5078 30.5547C37.3123 29.3591 35.6908 28.6875 34 28.6875C32.3092 28.6875 30.6877 29.3591 29.4922 30.5547C28.2967 31.7502 27.625 33.3717 27.625 35.0625C27.6243 35.9411 27.8089 36.8101 28.1669 37.6125C28.2789 37.8697 28.4882 38.0721 28.7489 38.1756C29.0097 38.2791 29.3008 38.2753 29.5588 38.165C29.6874 38.1095 29.8038 38.0292 29.9013 37.9286C29.9988 37.828 30.0754 37.709 30.1268 37.5787C30.1781 37.4483 30.2032 37.3091 30.2005 37.169C30.1979 37.029 30.1675 36.8908 30.1113 36.7625C29.8711 36.228 29.7479 35.6484 29.75 35.0625C29.75 33.9353 30.1978 32.8543 30.9948 32.0573C31.7918 31.2603 32.8728 30.8125 34 30.8125C35.1272 30.8125 36.2082 31.2603 37.0052 32.0573C37.8022 32.8543 38.25 33.9353 38.25 35.0625C38.2521 35.6484 38.1289 36.228 37.8888 36.7625C37.8325 36.8908 37.8021 37.029 37.7995 37.169C37.7968 37.3091 37.8219 37.4483 37.8732 37.5787C37.9246 37.709 38.0012 37.828 38.0987 37.9286C38.1962 38.0292 38.3126 38.1095 38.4413 38.165Z" fill="url(#paint5_linear)"/>
<path d="M13.1431 38.25C13.4148 38.1777 13.6467 38.0006 13.7881 37.7577C13.9295 37.5147 13.9688 37.2256 13.8975 36.9537C13.1364 34.0578 12.7507 31.0761 12.75 28.0819V19.1887C16.67 19.3334 20.5703 18.5695 24.1461 16.9567C27.7219 15.3439 30.8762 12.926 33.3625 9.89187L34 9.11625L34.6375 9.89187C37.1238 12.926 40.2781 15.3439 43.8539 16.9567C47.4297 18.5695 51.33 19.3334 55.25 19.1887V28.0819C55.2465 31.0654 54.8609 34.0363 54.1025 36.9219C54.0624 37.0586 54.0501 37.202 54.0666 37.3436C54.083 37.4851 54.1277 37.6219 54.1981 37.7459C54.2685 37.8698 54.3631 37.9783 54.4763 38.0649C54.5894 38.1515 54.7189 38.2144 54.8569 38.25C54.9487 38.2604 55.0413 38.2604 55.1331 38.25C55.3744 38.2576 55.6111 38.1829 55.8042 38.038C55.9973 37.8932 56.1354 37.6869 56.1956 37.4531C56.9866 34.3924 57.3829 31.2431 57.375 28.0819V18.0625C57.376 17.915 57.3463 17.769 57.2877 17.6336C57.2292 17.4982 57.1431 17.3765 57.035 17.2762C56.8119 17.0828 56.5223 16.9837 56.2275 17C52.4673 17.3172 48.6864 16.7139 45.2116 15.2421C41.7369 13.7704 38.6729 11.4746 36.2844 8.55312L34.8181 6.76812C34.7184 6.64781 34.5934 6.55096 34.452 6.48448C34.3106 6.41801 34.1563 6.38354 34 6.38354C33.8437 6.38354 33.6894 6.41801 33.548 6.48448C33.4066 6.55096 33.2816 6.64781 33.1819 6.76812L31.7156 8.55312C29.3291 11.48 26.267 13.783 22.7928 15.2637C19.3187 16.7445 15.5367 17.3586 11.7725 17.0531C11.4777 17.0368 11.1881 17.1359 10.965 17.3294C10.7595 17.5194 10.6373 17.7829 10.625 18.0625V28.0819C10.6309 31.2449 11.0416 34.3943 11.8469 37.4531C11.878 37.5915 11.9366 37.7222 12.019 37.8375C12.1015 37.9529 12.2062 38.0506 12.327 38.1249C12.4478 38.1991 12.5822 38.2485 12.7224 38.2699C12.8626 38.2914 13.0056 38.2847 13.1431 38.25Z" fill="url(#paint6_linear)"/>
<path d="M44.3697 53.4756L33.9997 63.3462L23.6509 53.4862L23.5766 53.4119C23.3689 53.23 23.0987 53.1361 22.8231 53.15C22.5474 53.1638 22.288 53.2844 22.0997 53.4862C22.0025 53.5894 21.927 53.7109 21.8775 53.8437C21.828 53.9764 21.8055 54.1178 21.8115 54.2593C21.8174 54.4009 21.8516 54.5399 21.9121 54.668C21.9725 54.7962 22.058 54.911 22.1634 55.0056L33.2666 65.5775C33.4642 65.7659 33.7267 65.8709 33.9997 65.8709C34.2727 65.8709 34.5352 65.7659 34.7328 65.5775L45.8784 54.9525L45.1559 54.1875L44.3697 53.4756Z" fill="url(#paint7_linear)"/>
<path d="M48.875 38.25C49.1568 38.25 49.427 38.138 49.6263 37.9388C49.8256 37.7395 49.9375 37.4693 49.9375 37.1875V31.875C49.9375 31.5932 49.8256 31.3229 49.6263 31.1237C49.427 30.9244 49.1568 30.8125 48.875 30.8125H46.0169C45.8681 30.3875 45.6875 29.9731 45.5069 29.5694L47.5256 27.5506C47.6252 27.4518 47.7043 27.3343 47.7582 27.2048C47.8121 27.0754 47.8399 26.9365 47.8399 26.7962C47.8399 26.656 47.8121 26.5171 47.7582 26.3876C47.7043 26.2581 47.6252 26.1406 47.5256 26.0419L43.0206 21.5369C42.9219 21.4373 42.8043 21.3582 42.6749 21.3043C42.5454 21.2503 42.4065 21.2226 42.2663 21.2226C42.126 21.2226 41.9871 21.2503 41.8576 21.3043C41.7282 21.3582 41.6107 21.4373 41.5119 21.5369L39.4931 23.5556C39.0894 23.375 38.675 23.1944 38.25 23.0456V20.8462C38.25 20.5644 38.1381 20.2942 37.9388 20.0949C37.7395 19.8957 37.4693 19.7837 37.1875 19.7837H30.8125C30.5307 19.7837 30.2605 19.8957 30.0612 20.0949C29.8619 20.2942 29.75 20.5644 29.75 20.8462V23.0456C29.325 23.1944 28.9106 23.375 28.5069 23.5556L26.4881 21.5369C26.3894 21.4373 26.2718 21.3582 26.1424 21.3043C26.0129 21.2503 25.874 21.2226 25.7338 21.2226C25.5935 21.2226 25.4546 21.2503 25.3251 21.3043C25.1957 21.3582 25.0781 21.4373 24.9794 21.5369L20.4744 26.0419C20.3748 26.1406 20.2957 26.2581 20.2418 26.3876C20.1879 26.5171 20.1601 26.656 20.1601 26.7962C20.1601 26.9365 20.1879 27.0754 20.2418 27.2048C20.2957 27.3343 20.3748 27.4518 20.4744 27.5506L22.4931 29.5694C22.3125 29.9731 22.1319 30.3875 21.9831 30.8125H19.125C18.8432 30.8125 18.573 30.9244 18.3737 31.1237C18.1744 31.3229 18.0625 31.5932 18.0625 31.875V37.1875C18.0625 37.4693 18.1744 37.7395 18.3737 37.9388C18.573 38.138 18.8432 38.25 19.125 38.25C19.4068 38.25 19.677 38.138 19.8763 37.9388C20.0756 37.7395 20.1875 37.4693 20.1875 37.1875V32.9375H22.7588C22.9972 32.9463 23.2317 32.8746 23.4245 32.7339C23.6172 32.5932 23.757 32.3917 23.8213 32.1619C24.0404 31.3691 24.3543 30.6057 24.7562 29.8881C24.8712 29.6862 24.9168 29.4522 24.8861 29.222C24.8554 28.9917 24.7501 28.7778 24.5863 28.6131L22.7588 26.7962L25.7656 23.7894L27.5825 25.6169C27.7472 25.7807 27.9611 25.886 28.1914 25.9167C28.4216 25.9474 28.6556 25.9018 28.8575 25.7869C29.5751 25.3849 30.3385 25.071 31.1313 24.8519C31.3611 24.7876 31.5626 24.6478 31.7033 24.4551C31.844 24.2623 31.9157 24.0278 31.9069 23.7894V21.8769H36.1569V23.7894C36.1481 24.0278 36.2198 24.2623 36.3605 24.4551C36.5012 24.6478 36.7027 24.7876 36.9325 24.8519C37.7252 25.071 38.4887 25.3849 39.2063 25.7869C39.4081 25.9018 39.6421 25.9474 39.8724 25.9167C40.1027 25.886 40.3165 25.7807 40.4813 25.6169L42.2981 23.7894L45.305 26.7962L43.4775 28.6131C43.3137 28.7778 43.2083 28.9917 43.1776 29.222C43.1469 29.4522 43.1926 29.6862 43.3075 29.8881C43.7094 30.6057 44.0234 31.3691 44.2425 32.1619C44.3068 32.3917 44.4465 32.5932 44.6393 32.7339C44.832 32.8746 45.0665 32.9463 45.305 32.9375H47.8125V37.1875C47.8125 37.4693 47.9244 37.7395 48.1237 37.9388C48.323 38.138 48.5932 38.25 48.875 38.25Z" fill="url(#paint8_linear)"/>
<defs>
<linearGradient id="paint0_linear" x1="27.625" y1="45.6875" x2="40.375" y2="45.6875" gradientUnits="userSpaceOnUse">
<stop stop-color="#EC577C"/>
<stop offset="0.176598" stop-color="#C557C5"/>
<stop offset="0.415159" stop-color="#6E76FF"/>
<stop offset="1" stop-color="#3639C5"/>
</linearGradient>
<linearGradient id="paint1_linear" x1="43.5625" y1="45.6875" x2="48.875" y2="45.6875" gradientUnits="userSpaceOnUse">
<stop stop-color="#EC577C"/>
<stop offset="0.176598" stop-color="#C557C5"/>
<stop offset="0.415159" stop-color="#6E76FF"/>
<stop offset="1" stop-color="#3639C5"/>
</linearGradient>
<linearGradient id="paint2_linear" x1="22.3125" y1="45.6875" x2="24.4375" y2="45.6875" gradientUnits="userSpaceOnUse">
<stop stop-color="#EC577C"/>
<stop offset="0.176598" stop-color="#C557C5"/>
<stop offset="0.415159" stop-color="#6E76FF"/>
<stop offset="1" stop-color="#3639C5"/>
</linearGradient>
<linearGradient id="paint3_linear" x1="18.0625" y1="45.6875" x2="20.1875" y2="45.6875" gradientUnits="userSpaceOnUse">
<stop stop-color="#EC577C"/>
<stop offset="0.176598" stop-color="#C557C5"/>
<stop offset="0.415159" stop-color="#6E76FF"/>
<stop offset="1" stop-color="#3639C5"/>
</linearGradient>
<linearGradient id="paint4_linear" x1="2.125" y1="48.3437" x2="65.875" y2="48.3437" gradientUnits="userSpaceOnUse">
<stop stop-color="#EC577C"/>
<stop offset="0.176598" stop-color="#C557C5"/>
<stop offset="0.415159" stop-color="#6E76FF"/>
<stop offset="1" stop-color="#3639C5"/>
</linearGradient>
<linearGradient id="paint5_linear" x1="27.625" y1="33.469" x2="40.375" y2="33.469" gradientUnits="userSpaceOnUse">
<stop stop-color="#EC577C"/>
<stop offset="0.176598" stop-color="#C557C5"/>
<stop offset="0.415159" stop-color="#6E76FF"/>
<stop offset="1" stop-color="#3639C5"/>
</linearGradient>
<linearGradient id="paint6_linear" x1="10.625" y1="22.3328" x2="57.3751" y2="22.3328" gradientUnits="userSpaceOnUse">
<stop stop-color="#EC577C"/>
<stop offset="0.176598" stop-color="#C557C5"/>
<stop offset="0.415159" stop-color="#6E76FF"/>
<stop offset="1" stop-color="#3639C5"/>
</linearGradient>
<linearGradient id="paint7_linear" x1="21.8105" y1="59.5098" x2="45.8784" y2="59.5098" gradientUnits="userSpaceOnUse">
<stop stop-color="#EC577C"/>
<stop offset="0.176598" stop-color="#C557C5"/>
<stop offset="0.415159" stop-color="#6E76FF"/>
<stop offset="1" stop-color="#3639C5"/>
</linearGradient>
<linearGradient id="paint8_linear" x1="18.0625" y1="29.0168" x2="49.9375" y2="29.0168" gradientUnits="userSpaceOnUse">
<stop stop-color="#EC577C"/>
<stop offset="0.176598" stop-color="#C557C5"/>
<stop offset="0.415159" stop-color="#6E76FF"/>
<stop offset="1" stop-color="#3639C5"/>
</linearGradient>
</defs>
</svg>
