<svg width="65" height="65" viewBox="0 0 65 65" fill="none" xmlns="http://www.w3.org/2000/svg">
<path d="M14.4385 15.8793H44.6366C44.7533 15.8794 44.8689 15.8564 44.9767 15.8118C45.0846 15.7671 45.1826 15.7017 45.2651 15.6192C45.3476 15.5366 45.4131 15.4386 45.4577 15.3308C45.5024 15.2229 45.5253 15.1073 45.5252 14.9906V5.3107C45.5253 5.19398 45.5024 5.07839 45.4577 4.97054C45.4131 4.86269 45.3476 4.7647 45.2651 4.68216C45.1826 4.59963 45.0846 4.53417 44.9767 4.48954C44.8689 4.4449 44.7533 4.42196 44.6366 4.42203H14.4385C14.3218 4.42196 14.2062 4.4449 14.0983 4.48954C13.9905 4.53417 13.8925 4.59963 13.8099 4.68216C13.7274 4.7647 13.662 4.86269 13.6173 4.97054C13.5727 5.07839 13.5497 5.19398 13.5498 5.3107V14.9906C13.5497 15.1073 13.5727 15.2229 13.6173 15.3308C13.662 15.4386 13.7274 15.5366 13.8099 15.6192C13.8925 15.7017 13.9905 15.7671 14.0983 15.8118C14.2062 15.8564 14.3218 15.8794 14.4385 15.8793ZM15.3271 6.19937H43.7474V14.1019H15.3271V6.19937Z" fill="url(#paint0_linear)"/>
<path d="M14.4385 20.9726H44.6366C44.8723 20.9726 45.0983 20.879 45.2649 20.7124C45.4316 20.5457 45.5252 20.3197 45.5252 20.084C45.5252 19.8483 45.4316 19.6222 45.2649 19.4556C45.0983 19.2889 44.8723 19.1953 44.6366 19.1953H14.4385C14.2028 19.1953 13.9767 19.2889 13.8101 19.4556C13.6434 19.6222 13.5498 19.8483 13.5498 20.084C13.5498 20.3197 13.6434 20.5457 13.8101 20.7124C13.9767 20.879 14.2028 20.9726 14.4385 20.9726Z" fill="url(#paint1_linear)"/>
<path d="M14.4385 25.5938H44.6366C44.8723 25.5938 45.0983 25.5001 45.2649 25.3335C45.4316 25.1668 45.5252 24.9408 45.5252 24.7051C45.5252 24.4694 45.4316 24.2433 45.2649 24.0767C45.0983 23.91 44.8723 23.8164 44.6366 23.8164H14.4385C14.2028 23.8164 13.9767 23.91 13.8101 24.0767C13.6434 24.2433 13.5498 24.4694 13.5498 24.7051C13.5498 24.9408 13.6434 25.1668 13.8101 25.3335C13.9767 25.5001 14.2028 25.5938 14.4385 25.5938Z" fill="url(#paint2_linear)"/>
<path d="M55.7546 38.7872C55.7546 36.8599 55.3043 34.9592 54.4398 33.2367C53.5753 31.5142 52.3203 30.0174 50.775 28.8656C50.4704 28.6381 50.1552 28.4246 49.8295 28.2252V0.888672C49.8295 0.652981 49.7359 0.426944 49.5692 0.260286C49.4025 0.0936277 49.1765 0 48.9408 0H10.1338C9.8981 0 9.67206 0.0936277 9.5054 0.260286C9.33875 0.426944 9.24512 0.652981 9.24512 0.888672V53.692C9.24505 53.8088 9.26799 53.9243 9.31263 54.0322C9.35726 54.14 9.42272 54.238 9.50525 54.3206C9.58779 54.4031 9.68578 54.4686 9.79363 54.5132C9.90148 54.5578 10.0171 54.5808 10.1338 54.5807H33.1275V57.1238C33.1371 57.8014 33.4007 58.4507 33.8662 58.9431C34.3318 59.4355 34.9652 59.7352 35.6412 59.7827V61.1538C35.6423 62.1736 36.0479 63.1512 36.7689 63.8723C37.49 64.5934 38.4676 64.9989 39.4874 65H47.2508C48.2706 64.9989 49.2482 64.5934 49.9693 63.8723C50.6904 63.1512 51.0959 62.1736 51.097 61.1538V59.7827C51.773 59.7352 52.4064 59.4355 52.872 58.9431C53.3375 58.4507 53.6011 57.8014 53.6107 57.1238V53.1263C53.6012 52.4487 53.3377 51.7994 52.8721 51.3069C52.4065 50.8145 51.773 50.5148 51.097 50.4674V48.4656C52.5467 47.3026 53.7176 45.8297 54.5235 44.155C55.3295 42.4803 55.7502 40.6463 55.7546 38.7877V38.7872ZM11.0225 1.77734H48.0521V27.3203C46.5645 26.7164 44.9746 26.4043 43.3691 26.4012C40.9509 26.3991 38.5857 27.1091 36.5685 28.4426C36.5573 28.4426 36.5471 28.4395 36.536 28.4395H14.4385C14.2028 28.4395 13.9768 28.5332 13.8101 28.6998C13.6435 28.8665 13.5498 29.0925 13.5498 29.3282C13.5498 29.5639 13.6435 29.7899 13.8101 29.9566C13.9768 30.1232 14.2028 30.2169 14.4385 30.2169H34.4397C33.6264 31.0636 32.9368 32.021 32.3912 33.0606H14.4385C14.2028 33.0606 13.9768 33.1543 13.8101 33.3209C13.6435 33.4876 13.5498 33.7136 13.5498 33.9493C13.5498 34.185 13.6435 34.411 13.8101 34.5777C13.9768 34.7443 14.2028 34.838 14.4385 34.838H31.632C31.3214 35.759 31.121 36.7136 31.0348 37.6817H14.4385C14.2028 37.6817 13.9768 37.7753 13.8101 37.942C13.6435 38.1087 13.5498 38.3347 13.5498 38.5704C13.5498 38.8061 13.6435 39.0321 13.8101 39.1988C13.9768 39.3654 14.2028 39.4591 14.4385 39.4591H31.0029C31.0571 40.4232 31.2243 41.3776 31.501 42.3028H14.4385C14.2028 42.3028 13.9768 42.3964 13.8101 42.5631C13.6435 42.7298 13.5498 42.9558 13.5498 43.1915C13.5498 43.4272 13.6435 43.6532 13.8101 43.8199C13.9768 43.9865 14.2028 44.0802 14.4385 44.0802H32.183C32.6684 45.11 33.295 46.0671 34.0446 46.9239H19.3216C19.086 46.9239 18.8599 47.0175 18.6933 47.1842C18.5266 47.3509 18.433 47.5769 18.433 47.8126C18.433 48.0483 18.5266 48.2743 18.6933 48.441C18.8599 48.6076 19.086 48.7012 19.3216 48.7012H35.6412V50.4623C35.0202 50.5054 34.433 50.7613 33.9787 51.1868C33.5243 51.6123 33.2305 52.1814 33.1468 52.7983H11.0225V1.77734ZM44.2578 43.6764C44.4809 43.6025 44.6966 43.5075 44.9017 43.3926V50.4629H44.2578V43.6764ZM44.6691 41.2679C44.5323 41.4936 44.3391 41.6798 44.1086 41.8084C43.8782 41.937 43.6182 42.0035 43.3543 42.0014C43.0904 41.9993 42.8315 41.9287 42.6031 41.7965C42.3747 41.6642 42.1846 41.4749 42.0513 41.2471L43.3671 39.6363L44.6874 41.2466L44.6691 41.2679ZM41.8365 43.3926C42.0416 43.5075 42.2572 43.6026 42.4804 43.6764V50.4629H41.8365V43.3926ZM50.9477 52.2402C51.1826 52.2405 51.4078 52.3339 51.5738 52.5001C51.7398 52.6662 51.8332 52.8914 51.8333 53.1263V54.2344H34.9049V53.1243C34.905 52.8894 34.9984 52.6642 35.1644 52.498C35.3304 52.3319 35.5556 52.2384 35.7905 52.2382L50.9477 52.2402ZM50.9477 58.0095H35.7905C35.5557 58.0092 35.3306 57.9158 35.1646 57.7498C34.9985 57.5837 34.9052 57.3586 34.9049 57.1238V56.0117H51.8333V57.1218C51.8335 57.2382 51.8106 57.3536 51.7662 57.4612C51.7218 57.5688 51.6566 57.6666 51.5743 57.749C51.4921 57.8315 51.3944 57.8969 51.2869 57.9416C51.1794 57.9863 51.0641 58.0093 50.9477 58.0095ZM49.3196 61.1523C49.319 61.7008 49.1008 62.2266 48.713 62.6144C48.3251 63.0023 47.7993 63.2205 47.2508 63.2211H39.4874C38.9389 63.2205 38.4131 63.0023 38.0252 62.6144C37.6374 62.2266 37.4192 61.7008 37.4186 61.1523V59.7868H49.3196V61.1523ZM49.6792 47.3149C49.5676 47.3976 49.477 47.5052 49.4145 47.6292C49.3521 47.7532 49.3196 47.8901 49.3196 48.0289V50.4629H46.679V41.1927C46.6681 40.9897 46.5984 40.7942 46.4784 40.6301L44.0567 37.6705C43.9705 37.5732 43.8646 37.4952 43.746 37.4418C43.6274 37.3884 43.4989 37.3608 43.3688 37.3608C43.2388 37.3608 43.1102 37.3884 42.9917 37.4418C42.8731 37.4952 42.7672 37.5732 42.681 37.6705L40.2598 40.6301C40.1391 40.7941 40.0685 40.9895 40.0566 41.1927V50.4629H37.416V48.0289C37.416 47.8901 37.3834 47.7532 37.321 47.6292C37.2586 47.5053 37.168 47.3976 37.0565 47.3149C36.3844 46.8177 35.7722 46.2441 35.2324 45.6056C33.6245 43.6988 32.7475 41.282 32.7584 38.7877C32.7584 35.9743 33.876 33.276 35.8654 31.2866C37.8549 29.2972 40.5531 28.1795 43.3666 28.1795C46.18 28.1795 48.8783 29.2972 50.8677 31.2866C52.8571 33.276 53.9748 35.9743 53.9748 38.7877C53.9856 41.282 53.1086 43.6988 51.5007 45.6056C50.9616 46.2438 50.3503 46.8174 49.6792 47.3149Z" fill="url(#paint3_linear)"/>
<path d="M43.3672 31.0969C43.2505 31.0969 43.1349 31.1198 43.027 31.1644C42.9192 31.2091 42.8212 31.2745 42.7387 31.3571C42.6561 31.4396 42.5907 31.5376 42.546 31.6454C42.5014 31.7533 42.4784 31.8689 42.4785 31.9856V34.6354C42.4785 34.8711 42.5721 35.0971 42.7388 35.2637C42.9055 35.4304 43.1315 35.524 43.3672 35.524C43.6029 35.524 43.8289 35.4304 43.9956 35.2637C44.1622 35.0971 44.2559 34.8711 44.2559 34.6354V31.9856C44.2559 31.7499 44.1622 31.5239 43.9956 31.3572C43.8289 31.1906 43.6029 31.0969 43.3672 31.0969Z" fill="url(#paint4_linear)"/>
<path d="M48.4144 34.4439C48.4969 34.3614 48.5624 34.2634 48.607 34.1556C48.6517 34.0478 48.6747 33.9322 48.6747 33.8155C48.6747 33.6988 48.6517 33.5832 48.607 33.4754C48.5624 33.3676 48.4969 33.2696 48.4144 33.1871C48.3319 33.1045 48.2339 33.0391 48.1261 32.9944C48.0183 32.9497 47.9027 32.9268 47.786 32.9268C47.6693 32.9268 47.5537 32.9497 47.4459 32.9944C47.3381 33.0391 47.2401 33.1045 47.1576 33.1871L45.2837 35.0609C45.1171 35.2276 45.0234 35.4536 45.0234 35.6893C45.0234 35.925 45.1171 36.1511 45.2837 36.3177C45.4504 36.4844 45.6764 36.578 45.9122 36.578C46.1479 36.578 46.3739 36.4844 46.5406 36.3177L48.4144 34.4439Z" fill="url(#paint5_linear)"/>
<path d="M49.6166 37.3445H46.9668C46.7311 37.3445 46.5051 37.4382 46.3384 37.6048C46.1718 37.7715 46.0781 37.9975 46.0781 38.2332C46.0781 38.4689 46.1718 38.6949 46.3384 38.8616C46.5051 39.0283 46.7311 39.1219 46.9668 39.1219H49.6166C49.8523 39.1219 50.0783 39.0283 50.2449 38.8616C50.4116 38.6949 50.5052 38.4689 50.5052 38.2332C50.5052 37.9975 50.4116 37.7715 50.2449 37.6048C50.0783 37.4382 49.8523 37.3445 49.6166 37.3445Z" fill="url(#paint6_linear)"/>
<path d="M39.7714 37.3445H37.1211C36.8854 37.3445 36.6594 37.4382 36.4927 37.6048C36.3261 37.7715 36.2324 37.9975 36.2324 38.2332C36.2324 38.4689 36.3261 38.6949 36.4927 38.8616C36.6594 39.0283 36.8854 39.1219 37.1211 39.1219H39.7709C40.0065 39.1219 40.2326 39.0283 40.3992 38.8616C40.5659 38.6949 40.6595 38.4689 40.6595 38.2332C40.6595 37.9975 40.5659 37.7715 40.3992 37.6048C40.2326 37.4382 40.0065 37.3445 39.7709 37.3445H39.7714Z" fill="url(#paint7_linear)"/>
<path d="M39.5796 33.1871C39.4971 33.1045 39.3991 33.0391 39.2913 32.9944C39.1835 32.9497 39.0679 32.9268 38.9512 32.9268C38.8345 32.9268 38.7189 32.9497 38.6111 32.9944C38.5033 33.0391 38.4053 33.1045 38.3228 33.1871C38.2403 33.2696 38.1748 33.3676 38.1301 33.4754C38.0855 33.5832 38.0625 33.6988 38.0625 33.8155C38.0625 33.9322 38.0855 34.0478 38.1301 34.1556C38.1748 34.2634 38.2403 34.3614 38.3228 34.4439L40.1966 36.3177C40.3633 36.4844 40.5893 36.578 40.825 36.578C41.0607 36.578 41.2868 36.4844 41.4535 36.3177C41.6201 36.1511 41.7138 35.925 41.7138 35.6893C41.7138 35.4536 41.6201 35.2276 41.4535 35.0609L39.5796 33.1871Z" fill="url(#paint8_linear)"/>
<defs>
<linearGradient id="paint0_linear" x1="13.5498" y1="10.1506" x2="45.5252" y2="10.1506" gradientUnits="userSpaceOnUse">
<stop stop-color="#EC577C"/>
<stop offset="0.176598" stop-color="#C557C5"/>
<stop offset="0.415159" stop-color="#6E76FF"/>
<stop offset="1" stop-color="#3639C5"/>
</linearGradient>
<linearGradient id="paint1_linear" x1="13.5498" y1="20.084" x2="45.5252" y2="20.084" gradientUnits="userSpaceOnUse">
<stop stop-color="#EC577C"/>
<stop offset="0.176598" stop-color="#C557C5"/>
<stop offset="0.415159" stop-color="#6E76FF"/>
<stop offset="1" stop-color="#3639C5"/>
</linearGradient>
<linearGradient id="paint2_linear" x1="13.5498" y1="24.7051" x2="45.5252" y2="24.7051" gradientUnits="userSpaceOnUse">
<stop stop-color="#EC577C"/>
<stop offset="0.176598" stop-color="#C557C5"/>
<stop offset="0.415159" stop-color="#6E76FF"/>
<stop offset="1" stop-color="#3639C5"/>
</linearGradient>
<linearGradient id="paint3_linear" x1="9.24512" y1="32.4999" x2="55.7546" y2="32.4999" gradientUnits="userSpaceOnUse">
<stop stop-color="#EC577C"/>
<stop offset="0.176598" stop-color="#C557C5"/>
<stop offset="0.415159" stop-color="#6E76FF"/>
<stop offset="1" stop-color="#3639C5"/>
</linearGradient>
<linearGradient id="paint4_linear" x1="42.4785" y1="33.3105" x2="44.2559" y2="33.3105" gradientUnits="userSpaceOnUse">
<stop stop-color="#EC577C"/>
<stop offset="0.176598" stop-color="#C557C5"/>
<stop offset="0.415159" stop-color="#6E76FF"/>
<stop offset="1" stop-color="#3639C5"/>
</linearGradient>
<linearGradient id="paint5_linear" x1="45.0234" y1="34.7524" x2="48.6747" y2="34.7524" gradientUnits="userSpaceOnUse">
<stop stop-color="#EC577C"/>
<stop offset="0.176598" stop-color="#C557C5"/>
<stop offset="0.415159" stop-color="#6E76FF"/>
<stop offset="1" stop-color="#3639C5"/>
</linearGradient>
<linearGradient id="paint6_linear" x1="46.0781" y1="38.2332" x2="50.5052" y2="38.2332" gradientUnits="userSpaceOnUse">
<stop stop-color="#EC577C"/>
<stop offset="0.176598" stop-color="#C557C5"/>
<stop offset="0.415159" stop-color="#6E76FF"/>
<stop offset="1" stop-color="#3639C5"/>
</linearGradient>
<linearGradient id="paint7_linear" x1="36.2324" y1="38.2332" x2="40.6595" y2="38.2332" gradientUnits="userSpaceOnUse">
<stop stop-color="#EC577C"/>
<stop offset="0.176598" stop-color="#C557C5"/>
<stop offset="0.415159" stop-color="#6E76FF"/>
<stop offset="1" stop-color="#3639C5"/>
</linearGradient>
<linearGradient id="paint8_linear" x1="38.0625" y1="34.7524" x2="41.7138" y2="34.7524" gradientUnits="userSpaceOnUse">
<stop stop-color="#EC577C"/>
<stop offset="0.176598" stop-color="#C557C5"/>
<stop offset="0.415159" stop-color="#6E76FF"/>
<stop offset="1" stop-color="#3639C5"/>
</linearGradient>
</defs>
</svg>
