<svg width="25" height="15" viewBox="0 0 25 15" fill="none" xmlns="http://www.w3.org/2000/svg">
<path d="M20.7448 8.57084C20.3406 8.06043 20.4563 7.83334 20.7448 7.37709C20.75 7.37189 24.0865 2.76147 24.4302 1.19793L24.4323 1.19689C24.6031 0.627093 24.4323 0.208344 23.6063 0.208344H20.8729C20.1771 0.208344 19.8563 0.567718 19.6844 0.969802C19.6844 0.969802 18.2927 4.30105 16.324 6.46043C15.6885 7.08439 15.3948 7.28439 15.0479 7.28439C14.8771 7.28439 14.6115 7.08439 14.6115 6.51459V1.19689C14.6115 0.513552 14.4167 0.208344 13.8406 0.208344H9.54271C9.10625 0.208344 8.84688 0.527094 8.84688 0.823969C8.84688 1.47189 9.83125 1.62084 9.93334 3.44376V7.39897C9.93334 8.26564 9.77604 8.42501 9.42708 8.42501C8.49792 8.42501 6.24271 5.08022 4.90625 1.25209C4.63646 0.509385 4.37292 0.209385 3.67188 0.209385H0.9375C0.157292 0.209385 0 0.56876 0 0.970843C0 1.68126 0.929167 5.21355 4.32083 9.88022C6.58125 13.0656 9.76459 14.7917 12.6604 14.7917C14.401 14.7917 14.6135 14.4083 14.6135 13.749C14.6135 10.7052 14.4563 10.4177 15.3281 10.4177C15.7323 10.4177 16.4281 10.6177 18.0531 12.1542C19.9104 13.9761 20.2156 14.7917 21.2552 14.7917H23.9885C24.7677 14.7917 25.1625 14.4083 24.9354 13.6521C24.4156 12.0615 20.9031 8.78959 20.7448 8.57084Z" fill="white"/>
</svg>
