<svg width="18" height="17" viewBox="0 0 18 17" fill="none" xmlns="http://www.w3.org/2000/svg">
<path d="M13.6236 0.97027C14.1968 1.25122 14.682 1.67311 15.0862 2.20685C15.4318 2.22916 15.8398 2.0869 16.3512 1.61446C16.5944 1.38983 16.9475 1.33044 17.2507 1.46316C17.554 1.59588 17.75 1.89554 17.75 2.22659C17.75 3.40452 17.5278 4.17265 17.2109 4.77281C17.0664 5.04656 16.9093 5.27039 16.7878 5.44366L16.7729 5.46479C16.6935 5.57805 16.633 5.66601 16.5843 5.74535L16.5851 5.85835C16.5996 7.9958 16.6308 12.6045 12.2832 15.3209C9.91987 16.7975 7.14653 16.5407 4.99118 15.9468C2.91737 15.3755 1.24733 14.4459 0.746168 14.1669L0.680125 14.1302C0.321743 13.9321 0.160431 13.5029 0.299573 13.1178C0.438715 12.7326 0.837071 12.5057 1.23934 12.5823C2.03275 12.7335 3.07366 12.5881 4.39648 12.0447C3.02206 11.1669 2.0416 10.1096 1.5532 8.84085C0.643927 6.47879 1.10642 4.35595 1.52444 2.74994C1.60859 2.42661 1.87771 2.18481 2.20816 2.1356C2.53861 2.08639 2.86651 2.23929 3.04121 2.52407C3.62928 3.48261 4.45533 4.52713 5.43415 5.15201C6.24095 5.66707 7.13019 5.89173 8.13816 5.54942C8.1064 4.43821 8.25904 3.38695 8.67684 2.52978C9.19354 1.4697 10.1073 0.738759 11.4081 0.608075C12.1984 0.528682 12.9465 0.638397 13.6236 0.97027Z" fill="white"/>
</svg>
