<svg width="12" height="19" viewBox="0 0 12 19" fill="none" xmlns="http://www.w3.org/2000/svg">
<path d="M7.24968 0.750209L7.29123 0.75H11C11.4603 0.75 11.8334 1.1231 11.8334 1.58333V4.74987C11.8334 5.21011 11.4603 5.58321 11 5.58321H8.50848V7.61142H11C11.2432 7.61142 11.4742 7.7176 11.6325 7.90214C11.7908 8.08667 11.8606 8.33115 11.8237 8.57146L11.3367 11.7368C11.2742 12.1434 10.9244 12.4435 10.5131 12.4435H8.50848V17.4167C8.50848 17.8769 8.13538 18.25 7.67515 18.25H4.01881C3.55858 18.25 3.18548 17.8769 3.18548 17.4167V12.4435H1.00002C0.539783 12.4435 0.166687 12.0704 0.166687 11.6101V8.44475C0.166687 7.98451 0.539783 7.61142 1.00002 7.61142H3.15723L3.18542 5.43895L3.17998 4.90309C3.15704 2.63252 4.97912 0.773206 7.24968 0.750209Z" fill="white"/>
</svg>
