<svg width="36" height="36" viewBox="0 0 36 36" fill="none" xmlns="http://www.w3.org/2000/svg">
<circle cx="17.9636" cy="17.9636" r="17.9636" fill="#C159C8"/>
<path d="M18.1149 5.36938C14.5203 5.36938 11.6064 8.27069 11.6064 11.8495C11.6064 15.4285 14.5203 18.3299 18.1149 18.3299C21.7095 18.3299 24.6234 15.4285 24.6234 11.8495C24.6234 8.27069 21.7095 5.36938 18.1149 5.36938ZM18.1149 14.5285C16.6291 14.5285 15.4245 13.329 15.4245 11.8496C15.4245 10.3702 16.6291 9.17087 18.1149 9.17087C19.6008 9.17087 20.8054 10.3702 20.8054 11.8496C20.8054 13.329 19.6008 14.5285 18.1149 14.5285Z" fill="white"/>
<path d="M20.4121 23.4863C23.0177 22.9578 24.5791 21.7292 24.6617 21.6633C25.4242 21.0545 25.5466 19.9456 24.9352 19.1864C24.3238 18.4272 23.2101 18.3053 22.4475 18.914C22.4314 18.927 20.766 20.1989 18.0259 20.2008C15.2859 20.1989 13.5853 18.927 13.5692 18.914C12.8066 18.3053 11.6929 18.4272 11.0815 19.1864C10.4701 19.9456 10.5925 21.0545 11.355 21.6633C11.4387 21.7302 13.0646 22.9907 15.7432 23.5068L12.0101 27.3913C11.3316 28.0918 11.352 29.2072 12.0556 29.8827C12.399 30.2124 12.8416 30.3762 13.2838 30.3762C13.7475 30.3762 14.2107 30.1959 14.5579 29.8373L18.026 26.1589L21.8444 29.8611C22.5362 30.5488 23.6565 30.5477 24.3471 29.8591C25.0376 29.1705 25.0368 28.0549 24.3451 27.3674L20.4121 23.4863Z" fill="white"/>
<path d="M18.0261 20.2007C18.0203 20.2007 18.0319 20.2008 18.0261 20.2009C18.0204 20.2008 18.032 20.2007 18.0261 20.2007Z" fill="white"/>
</svg>
