<svg width="37" height="36" viewBox="0 0 37 36" fill="none" xmlns="http://www.w3.org/2000/svg">
<g clip-path="url(#clip0)">
<circle cx="17.9636" cy="17.9636" r="17.9636" fill="#C159C8"/>
<path d="M25.7814 20.057C25.3981 19.5729 25.5078 19.3575 25.7814 18.9248C25.7864 18.9198 28.9509 14.5469 29.277 13.064L29.2789 13.063C29.441 12.5225 29.2789 12.1254 28.4955 12.1254H25.9029C25.243 12.1254 24.9387 12.4662 24.7756 12.8476C24.7756 12.8476 23.4557 16.0072 21.5884 18.0553C20.9857 18.6471 20.7071 18.8368 20.3781 18.8368C20.216 18.8368 19.9641 18.6471 19.9641 18.1067V13.063C19.9641 12.4148 19.7793 12.1254 19.233 12.1254H15.1565C14.7425 12.1254 14.4965 12.4277 14.4965 12.7093C14.4965 13.3238 15.4302 13.4651 15.527 15.1941V18.9455C15.527 19.7675 15.3778 19.9187 15.0468 19.9187C14.1655 19.9187 12.0265 16.7462 10.7589 13.1153C10.503 12.4109 10.2531 12.1264 9.58816 12.1264H6.99467C6.25466 12.1264 6.10547 12.4672 6.10547 12.8486C6.10547 13.5224 6.98676 16.8727 10.2037 21.2989C12.3476 24.3202 15.367 25.9573 18.1136 25.9573C19.7645 25.9573 19.9661 25.5937 19.9661 24.9683C19.9661 22.0814 19.8169 21.8087 20.6438 21.8087C21.0272 21.8087 21.6872 21.9984 23.2284 23.4557C24.99 25.1837 25.2795 25.9573 26.2655 25.9573H28.858C29.5971 25.9573 29.9715 25.5937 29.7561 24.8765C29.2631 23.3678 25.9316 20.2645 25.7814 20.057Z" fill="white"/>
</g>
<defs>
<clipPath id="clip0">
<rect width="35.9272" height="35.9272" fill="white" transform="translate(0.357422)"/>
</clipPath>
</defs>
</svg>
