<svg width="37" height="36" viewBox="0 0 37 36" fill="none" xmlns="http://www.w3.org/2000/svg">
<circle cx="18.6784" cy="17.9636" r="17.9636" fill="#C159C8"/>
<rect width="21.5563" height="21.5563" transform="translate(7.90039 7.18542)" fill="#C159C8"/>
<path d="M20.0258 8.53294L20.0705 8.53271H24.0679C24.564 8.53271 24.9661 8.93484 24.9661 9.43089V12.8438C24.9661 13.3399 24.564 13.742 24.0679 13.742H21.3825V15.928H24.0679C24.33 15.928 24.579 16.0425 24.7496 16.2414C24.9202 16.4403 24.9955 16.7038 24.9557 16.9628L24.4308 20.3745C24.3634 20.8126 23.9864 21.1361 23.5431 21.1361H21.3825V26.4963C21.3825 26.9923 20.9804 27.3945 20.4843 27.3945H16.5435C16.0474 27.3945 15.6453 26.9923 15.6453 26.4963V21.1361H13.2898C12.7937 21.1361 12.3916 20.734 12.3916 20.2379V16.8262C12.3916 16.3302 12.7937 15.928 13.2898 15.928H15.6148L15.6452 13.5865L15.6394 13.009C15.6146 10.5617 17.5785 8.55773 20.0258 8.53294Z" fill="white"/>
</svg>
