<svg width="36" height="36" viewBox="0 0 36 36" fill="none" xmlns="http://www.w3.org/2000/svg">
<circle cx="18.0358" cy="17.9636" r="17.9636" fill="#C159C8"/>
<path d="M23.0198 9.84791C23.6376 10.1507 24.1606 10.6054 24.5963 11.1807C24.9688 11.2048 25.4085 11.0514 25.9597 10.5422C26.2218 10.3001 26.6024 10.2361 26.9293 10.3792C27.2561 10.5222 27.4674 10.8452 27.4674 11.202C27.4674 12.4716 27.2279 13.2995 26.8863 13.9463C26.7305 14.2414 26.5613 14.4826 26.4302 14.6694L26.4143 14.6922C26.3287 14.8142 26.2634 14.909 26.211 14.9946L26.2118 15.1164C26.2274 17.4201 26.2611 22.3874 21.5751 25.3152C19.0279 26.9067 16.0388 26.6299 13.7157 25.9899C11.4805 25.3741 9.68053 24.3721 9.14038 24.0714L9.0692 24.0319C8.68293 23.8183 8.50906 23.3558 8.65903 22.9407C8.809 22.5256 9.23835 22.2809 9.67192 22.3636C10.5271 22.5265 11.649 22.3698 13.0747 21.7841C11.5934 20.838 10.5366 19.6984 10.0102 18.3309C9.03018 15.7851 9.52867 13.497 9.97921 11.7661C10.0699 11.4176 10.36 11.157 10.7161 11.1039C11.0723 11.0509 11.4257 11.2157 11.614 11.5226C12.2478 12.5557 13.1382 13.6815 14.1932 14.355C15.0627 14.9102 16.0212 15.1523 17.1076 14.7834C17.0733 13.5857 17.2379 12.4526 17.6882 11.5288C18.2451 10.3862 19.2299 9.59838 20.632 9.45753C21.4838 9.37196 22.2901 9.49021 23.0198 9.84791Z" fill="white"/>
</svg>
